<svg id="b91cc949-7f34-4c64-94d9-341e2043d7b3" data-name="Layer 6" xmlns="http://www.w3.org/2000/svg" viewBox="0 0 733.42 733.42"><defs><style>.fe30af35-4eb0-4913-8795-fb79a899b53f{fill:#fff;}.add6c345-8b12-4fd4-88b9-11d3aedcce95{fill:#00ffa6;}</style></defs><path class="fe30af35-4eb0-4913-8795-fb79a899b53f" d="M782.67,304.33c-3,35.85-11.95,50.79-35.85,65.73-47.81-29.88-107.56-23.9-134.45-20.91-32.87,3-71.71,12-98.6,17.92L474.93,379l20.91-35.85c12-23.9,32.87-53.78,53.78-80.67,17.93-23.9,65.73-83.66,137.44-77.68,29.88,3,53.78,17.92,71.71,38.84C776.69,247.56,785.66,274.45,782.67,304.33Z" transform="translate(-58.77 -58.76)"/><path class="fe30af35-4eb0-4913-8795-fb79a899b53f" d="M663.16,687.05c-6,59.75-59.76,101.58-119.51,95.61-35.86-3-50.79-11.95-65.73-35.86,29.87-47.8,23.9-107.56,20.91-134.45-3-32.86-11.95-71.7-17.93-98.59L469,474.92l35.86,20.91c23.9,11.95,53.78,32.87,80.67,53.78C612.37,567.54,672.12,615.34,663.16,687.05Z" transform="translate(-58.77 -58.76)"/><path class="fe30af35-4eb0-4913-8795-fb79a899b53f" d="M376.05,469.94l-20.92,35.85c-11.95,23.91-32.86,53.78-53.78,80.67s-68.71,86.65-140.42,77.69c-29.88-3-53.78-17.93-71.71-38.85-17.92-23.9-26.89-50.79-23.9-80.67,6-35.85,14.94-50.79,35.85-65.73,29.88,20.92,65.73,23.91,95.61,23.91,14.94,0,29.88,0,41.83-3,32.87-3,71.71-9,98.6-17.93Z" transform="translate(-58.77 -58.76)"/><path class="fe30af35-4eb0-4913-8795-fb79a899b53f" d="M379,373.05l-35.86-20.92c-23.9-11.95-53.78-32.86-80.67-53.78-23.9-17.92-83.65-65.73-77.68-137.43,3-29.88,17.93-53.78,38.84-71.71,23.9-17.93,53.78-26.89,80.67-23.9,35.85,6,50.79,14.94,65.73,35.85-29.88,47.8-23.9,107.56-20.91,134.45,3,32.87,11.95,71.71,17.92,98.6Z" transform="translate(-58.77 -58.76)"/><path class="add6c345-8b12-4fd4-88b9-11d3aedcce95" d="M615.21,169.88c-56.77,12-92.62,59.75-110.55,80.67-20.91,26.89-44.81,59.75-56.76,83.66L427,370.06l-12-38.84c-9-26.89-14.94-62.74-17.93-95.61s-12-107.56,44.82-152.38c23.9-17.92,50.79-26.89,80.67-23.9s53.78,17.93,71.71,38.84C615.21,125.06,621.19,143,615.21,169.88Z" transform="translate(-58.77 -58.76)"/><path class="add6c345-8b12-4fd4-88b9-11d3aedcce95" d="M409.06,767.72c-23.91,17.92-50.8,26.89-80.67,23.9s-53.78-17.93-71.71-38.84c-20.91-26.89-26.89-44.82-20.91-71.71,56.76-12,92.62-59.75,110.54-80.67,20.92-26.89,44.82-59.75,56.77-83.66L424,480.89l12,38.84c9,26.89,14.93,62.75,17.92,95.61S462.84,722.9,409.06,767.72Z" transform="translate(-58.77 -58.76)"/><path class="add6c345-8b12-4fd4-88b9-11d3aedcce95" d="M791.62,522.58c-3,29.88-17.92,53.78-38.84,71.7-26.89,20.92-44.81,26.89-71.7,20.92-12-56.77-59.76-92.62-80.67-110.55-26.89-20.91-59.76-44.81-83.66-56.77L480.89,427l38.85-12c26.89-9,62.74-14.94,95.6-17.93s107.56-11.95,152.38,44.82C785.65,465.81,794.61,492.7,791.62,522.58Z" transform="translate(-58.77 -58.76)"/><path class="add6c345-8b12-4fd4-88b9-11d3aedcce95" d="M370.07,424l-38.84,11.95c-26.89,9-62.74,14.94-95.61,17.93S128.06,465.81,83.25,409c-17.93-23.9-26.89-50.79-23.91-80.67s17.93-53.78,38.85-71.7c26.89-20.92,44.81-26.89,71.7-20.92,12,56.77,59.76,92.62,80.67,110.55,26.89,20.91,59.76,44.82,83.66,56.77Z" transform="translate(-58.77 -58.76)"/></svg>