<?xml version="1.0" encoding="UTF-8"?>
<svg version="1.1" xmlns="http://www.w3.org/2000/svg" width="707" height="710">
<path d="M0 0 C17.81021751 16.53934369 34.97528421 43.99634686 36.62109375 68.92871094 C37.17512725 84.1714553 37.17512725 84.1714553 35.45068359 90.34716797 C36.16385742 90.32098389 36.87703125 90.2947998 37.61181641 90.26782227 C53.38609636 89.7677548 67.43245843 90.35214874 82.45068359 95.34716797 C83.15193359 95.57178711 83.85318359 95.79640625 84.57568359 96.02783203 C100.21589262 101.11534321 114.81484176 108.78821174 127.45068359 119.34716797 C128.44583984 120.17861328 129.44099609 121.01005859 130.46630859 121.86669922 C155.2696953 143.27083857 169.95217662 174.84744031 173.07568359 207.22216797 C173.21677624 209.26278568 173.34167662 211.30458498 173.45068359 213.34716797 C173.50482422 214.33072266 173.55896484 215.31427734 173.61474609 216.32763672 C174.36976009 243.40518423 165.82318743 276.13545141 147.42724609 296.42138672 C143.70058089 300.05230756 139.59566851 303.21132425 135.45068359 306.34716797 C138.93303781 310.56085618 142.55002279 314.49976967 146.49902344 318.27856445 C153.57925088 325.07562199 159.32947855 331.92739178 164.45068359 340.34716797 C164.79824707 340.90952148 165.14581055 341.471875 165.50390625 342.05126953 C181.69940258 368.6533607 184.01564218 401.06577212 176.83251953 430.91601562 C166.68630722 469.86890496 143.24056833 499.96882322 108.63818359 520.59716797 C93.9954523 528.63631456 78.9230528 531.5764277 62.38818359 531.40966797 C61.52257812 531.40515625 60.65697266 531.40064453 59.76513672 531.39599609 C57.66028821 531.3843671 55.55547601 531.3664387 53.45068359 531.34716797 C53.47163086 532.07081543 53.49257813 532.79446289 53.51416016 533.54003906 C53.88419902 548.31583158 53.93396333 562.17244599 49.45068359 576.34716797 C49.24169434 577.0171582 49.03270508 577.68714844 48.81738281 578.37744141 C42.23980293 598.80489175 31.09495701 615.77396677 16.45068359 631.34716797 C15.92474609 631.93755859 15.39880859 632.52794922 14.85693359 633.13623047 C-4.51000896 653.985337 -35.5925398 667.10249844 -63.72143555 668.50537109 C-96.43380999 669.55780383 -129.73021504 664.54362378 -154.54931641 641.34716797 C-157.38832207 638.13142222 -160.02378199 634.81344587 -162.54931641 631.34716797 C-166.02913998 634.1795825 -169.32378094 637.07240633 -172.41650391 640.32373047 C-194.93245086 663.93681555 -225.47197607 673.96678342 -257.61767578 674.80297852 C-271.05491257 674.95400558 -282.92713479 673.97766187 -295.54931641 669.34716797 C-296.37077148 669.05777344 -297.19222656 668.76837891 -298.03857422 668.47021484 C-313.86494172 662.82948908 -327.80237817 655.40165558 -340.54931641 644.34716797 C-341.36787109 643.66138672 -342.18642578 642.97560547 -343.02978516 642.26904297 C-362.81216809 625.21632218 -381.51970134 598.47134549 -385.54931641 572.34716797 C-385.78948228 568.570755 -385.78527801 564.81722331 -385.73681641 561.03466797 C-385.73584961 559.5719043 -385.73584961 559.5719043 -385.73486328 558.07958984 C-385.68671341 550.28466054 -385.68671341 550.28466054 -384.54931641 546.34716797 C-385.61907715 546.38644409 -385.61907715 546.38644409 -386.71044922 546.42651367 C-402.48472917 546.92658113 -416.53109125 546.3421872 -431.54931641 541.34716797 C-432.60119141 541.01023926 -432.60119141 541.01023926 -433.67431641 540.66650391 C-466.56000175 529.96931364 -492.39677184 507.72132296 -508.54931641 477.34716797 C-525.30761094 443.56396967 -525.70074551 406.91890799 -514.54931641 371.34716797 C-511.22326561 361.87179069 -506.86427059 353.20546297 -500.54931641 345.34716797 C-499.99501953 344.64205078 -499.44072266 343.93693359 -498.86962891 343.21044922 C-494.67270526 338.13352545 -489.86831155 334.20675628 -484.54931641 330.34716797 C-487.77589335 326.40357393 -491.10875093 322.78560363 -494.80712891 319.27514648 C-510.72910698 304.01075011 -519.79810619 283.66770538 -524.54931641 262.34716797 C-524.73478027 261.54690186 -524.92024414 260.74663574 -525.11132812 259.92211914 C-526.81173156 251.78945812 -526.94760819 243.68354592 -526.92431641 235.40966797 C-526.92377258 234.68272736 -526.92322876 233.95578674 -526.92266846 233.20681763 C-526.8211788 203.63963308 -517.53744307 176.25242566 -498.54931641 153.34716797 C-497.50517578 152.07486328 -497.50517578 152.07486328 -496.43994141 150.77685547 C-480.87729199 132.65829647 -454.99268189 112.99399394 -430.54931641 110.34716797 C-407.11308301 109.10901395 -407.11308301 109.10901395 -399.54931641 111.34716797 C-399.56502686 110.58799072 -399.5807373 109.82881348 -399.59692383 109.04663086 C-400.11218946 80.31133172 -400.11218946 80.31133172 -396.54931641 66.34716797 C-396.38302734 65.69425781 -396.21673828 65.04134766 -396.04541016 64.36865234 C-387.52496255 31.95939424 -366.92443057 6.39651243 -338.17431641 -10.46533203 C-312.16973703 -25.20656545 -286.46475032 -29.75926289 -256.86181641 -25.90283203 C-255.80291702 -25.76645325 -255.80291702 -25.76645325 -254.72262573 -25.62731934 C-229.17021948 -22.30699307 -205.89399718 -16.61097469 -189.23681641 4.53466797 C-188.325585 5.79450607 -187.4227509 7.06083717 -186.54931641 8.34716797 C-182.60553819 5.12044034 -178.987799 1.78701356 -175.4765625 -1.91088867 C-128.62387214 -50.79831566 -47.26165748 -43.21884733 0 0 Z " fill="#FCFDFD" transform="translate(526.54931640625,35.65283203125)"/>
<path d="M0 0 C0.76328613 0.16483887 1.52657227 0.32967773 2.31298828 0.49951172 C33.8889412 7.50702663 61.3969858 24.76238702 79.32958984 51.98608398 C95.27888531 77.11386528 101.68857458 107.47727482 95.51464844 136.87890625 C93.34685377 145.76189999 90.392986 153.95878484 86 162 C85.46503906 163.01191406 84.93007813 164.02382813 84.37890625 165.06640625 C80.32913043 172.38967292 75.58217225 178.77669005 70 185 C69.54415527 185.51175781 69.08831055 186.02351562 68.61865234 186.55078125 C53.10339359 203.72148835 30.79386384 218.54099656 7.1328125 220.125 C-0.0027618 220.33410108 -6.97236122 219.11962382 -14 218 C-14.35191406 216.8140625 -14.70382812 215.628125 -15.06640625 214.40625 C-23.02033315 188.10909168 -35.18262462 165.34308693 -54.0078125 145.14453125 C-55.80693789 143.20782568 -57.49709196 141.21851264 -59.1875 139.1875 C-66.93730182 130.30489653 -76.12816935 122.51374724 -85.30859375 115.1640625 C-88.14306885 112.88496351 -90.91344837 110.53965683 -93.6875 108.1875 C-100.90848221 102.16536811 -108.42543676 96.56713958 -116 91 C-116.70398926 90.48034668 -117.40797852 89.96069336 -118.13330078 89.42529297 C-135.25727613 76.80864945 -152.77449446 64.98543565 -171.30371094 54.52929688 C-176.65970547 51.49145282 -181.98216644 48.39506595 -187.3125 45.3125 C-196.19564115 40.1860008 -205.086087 35.07282685 -214 30 C-214 29.34 -214 28.68 -214 28 C-206.93196051 25.81838167 -199.8595104 23.65150501 -192.78417969 21.49365234 C-190.39029859 20.761816 -187.99735251 20.02691237 -185.60546875 19.28857422 C-164.15343584 12.67058595 -142.52354025 6.8278277 -120.3125 3.375 C-119.05904785 3.17680664 -117.8055957 2.97861328 -116.51416016 2.77441406 C-78.70409781 -3.04519601 -37.73590501 -8.35271214 0 0 Z " fill="#00FEA6" transform="translate(593,328)"/>
<path d="M0 0 C0.79148437 0.56976563 1.58296875 1.13953125 2.3984375 1.7265625 C22.67429749 17.14671492 41.46233051 40.06644919 45.625 65.875 C46.59765569 75.14175605 45.46316598 83.81602068 44 93 C42.8140625 93.35191406 41.628125 93.70382813 40.40625 94.06640625 C14.10909168 102.02033315 -8.65691307 114.18262462 -28.85546875 133.0078125 C-30.79217432 134.80693789 -32.78148736 136.49709196 -34.8125 138.1875 C-43.69510347 145.93730182 -51.48625276 155.12816935 -58.8359375 164.30859375 C-61.11503649 167.14306885 -63.46034317 169.91344837 -65.8125 172.6875 C-71.83463189 179.90848221 -77.43286042 187.42543676 -83 195 C-83.51965332 195.70398926 -84.03930664 196.40797852 -84.57470703 197.13330078 C-99.32204892 217.14917257 -112.58544668 237.80911605 -124.76611328 259.46704102 C-129.48105453 267.8466335 -134.22294603 276.20257207 -139.1875 284.4375 C-139.64503662 285.20698975 -140.10257324 285.97647949 -140.57397461 286.76928711 C-141.65900744 288.54887324 -142.821656 290.28077679 -144 292 C-144.66 292 -145.32 292 -146 292 C-148.18264253 285.07477044 -150.34935429 278.14468642 -152.50634766 271.21142578 C-153.23793219 268.86594852 -153.97282384 266.52149957 -154.71142578 264.17822266 C-174.96772297 199.87207866 -194.31548514 108.66972203 -162.75512695 45.10400391 C-147.92952799 16.68266771 -123.44025566 -4.06016828 -93 -14 C-92.35998047 -14.21027832 -91.71996094 -14.42055664 -91.06054688 -14.63720703 C-61.04437337 -23.97475066 -25.4409127 -18.49513971 0 0 Z " fill="#00FEA6" transform="translate(500,37)"/>
<path d="M0 0 C1.15862549 0.18393311 2.31725098 0.36786621 3.51098633 0.55737305 C4.38779053 0.69957275 5.26459473 0.84177246 6.16796875 0.98828125 C6.3882373 1.70669189 6.60850586 2.42510254 6.83544922 3.1652832 C13.47504334 24.56730653 21.41890484 43.24110505 35.16796875 60.98828125 C35.87308594 61.90480469 36.57820312 62.82132813 37.3046875 63.765625 C45.37501186 73.92438819 54.26482129 84.07764685 64.2578125 92.39453125 C66.5625243 94.31748097 68.7648776 96.33839044 70.98046875 98.36328125 C102.3303552 126.54985084 138.14295484 150.78978514 175.05810547 171.03710938 C185.54833328 176.80916672 195.84505111 182.92386286 206.16796875 188.98828125 C205.16796875 190.98828125 205.16796875 190.98828125 203.24855042 191.7958374 C202.40541794 192.05753723 201.56228546 192.31923706 200.69360352 192.58886719 C199.73651993 192.88968201 198.77943634 193.19049683 197.79335022 193.50042725 C196.7426384 193.82126282 195.69192657 194.14209839 194.609375 194.47265625 C193.51825912 194.81073303 192.42714325 195.14880981 191.30296326 195.49713135 C188.97115038 196.21712172 186.63810144 196.93311873 184.30395508 197.64550781 C180.82824595 198.70838095 177.3583267 199.78864709 173.88867188 200.87109375 C153.58405673 207.14441831 133.0229596 212.48346497 111.98046875 215.61328125 C111.0132338 215.75870865 111.0132338 215.75870865 110.02645874 215.90707397 C105.0794948 216.64593173 100.1260425 217.32851539 95.16796875 217.98828125 C94.42998047 218.08751892 93.69199219 218.18675659 92.93164062 218.28900146 C72.78909258 220.97434924 52.80570565 222.36862044 32.48046875 222.42578125 C31.09343246 222.43504135 31.09343246 222.43504135 29.67837524 222.44448853 C-8.69855412 222.61028118 -44.85032897 212.15685438 -72.83203125 184.98828125 C-94.84440536 162.59107543 -105.28701591 133.0877663 -105.19555664 102.10058594 C-104.90274368 81.42929256 -99.08290648 61.83992185 -86.83203125 44.98828125 C-86.26226562 44.19679687 -85.6925 43.4053125 -85.10546875 42.58984375 C-69.68319674 22.31119672 -46.80953843 3.59115128 -21.01953125 -0.63671875 C-13.85713801 -1.39137704 -7.11712421 -1.14036252 0 0 Z " fill="#00FEA6" transform="translate(121.83203125,164.01171875)"/>
<path d="M0 0 C0.66 0 1.32 0 2 0 C4.18161833 7.06803949 6.34849499 14.1404896 8.50634766 21.21582031 C9.238184 23.60970141 9.97308763 26.00264749 10.71142578 28.39453125 C17.45160572 50.2426452 23.35674927 72.22650393 26.6875 94.875 C26.89023282 96.21208693 27.09303421 97.54916347 27.29589844 98.88623047 C34.57261548 147.60603998 40.17250537 202.51972219 17 248 C16.66629395 248.66580078 16.33258789 249.33160156 15.98876953 250.01757812 C10.83888741 260.14928094 4.71424257 268.67961832 -3 277 C-3.79019531 277.88300781 -4.58039063 278.76601563 -5.39453125 279.67578125 C-22.71352367 298.14362889 -50.40420395 310.49654704 -75.6875 311.3359375 C-89.58046778 311.50792227 -102.71782446 311.3337612 -116 307 C-116.64001953 306.79632812 -117.28003906 306.59265625 -117.93945312 306.3828125 C-133.95861603 301.10284426 -147.10701822 291.73580581 -159 280 C-159.76441406 279.319375 -160.52882812 278.63875 -161.31640625 277.9375 C-176.65584116 263.88778502 -188.94784258 241.55623093 -190.12890625 220.7265625 C-190.24933995 215.76469414 -189.77361203 211.06930196 -188.98828125 206.16796875 C-188.71238159 204.43003052 -188.71238159 204.43003052 -188.4309082 202.65698242 C-188.2887085 201.78017822 -188.14650879 200.90337402 -188 200 C-186.92238403 199.66959717 -186.92238403 199.66959717 -185.82299805 199.33251953 C-151.04066824 188.54192515 -120.30340063 170.21957957 -96.6640625 141.98046875 C-94.71214572 139.65741286 -92.67160141 137.42750876 -90.625 135.1875 C-62.42154093 103.8188286 -38.26140724 68.00958264 -17.94677734 31.10986328 C-14.20239387 24.32382376 -10.37092565 17.58960897 -6.5 10.875 C-5.88785645 9.80024414 -5.27571289 8.72548828 -4.64501953 7.61816406 C-3.78432861 6.13268066 -3.78432861 6.13268066 -2.90625 4.6171875 C-2.39384766 3.72628418 -1.88144531 2.83538086 -1.35351562 1.91748047 C-0.68352539 0.96832764 -0.68352539 0.96832764 0 0 Z " fill="#00FEA6" transform="translate(351,381)"/>
<path d="M0 0 C-0.3810791 0.65669678 -0.7621582 1.31339355 -1.15478516 1.98999023 C-2.9800933 5.13806052 -4.80308328 8.28746629 -6.625 11.4375 C-6.96157623 12.01911896 -7.29815247 12.60073792 -7.64492798 13.19998169 C-11.98169243 20.6990103 -16.25655869 28.22715363 -20.45263672 35.80615234 C-34.72934847 61.57495405 -51.2366456 85.40509298 -69.234375 108.70703125 C-70.77132598 110.70302732 -72.29602339 112.70718837 -73.8125 114.71875 C-100.64074514 150.24804762 -136.18193895 185.16386259 -182.12280273 192.05249023 C-213.01536328 196.06426648 -241.63864072 189.63398215 -266.90234375 171.4140625 C-285.56741328 156.8680184 -296.96268174 139.03780814 -305 117 C-305.31710937 116.19304687 -305.63421875 115.38609375 -305.9609375 114.5546875 C-314.95290601 90.42772249 -310.70691046 60.77398023 -300.79199219 37.66259766 C-295.0705835 25.21746746 -285.7257871 15.36344678 -275 7 C-270.91230122 8.48643592 -267.40200138 10.49772889 -263.6875 12.75 C-236.76268203 28.50212933 -205.57740613 30.25093847 -175.125 30.375 C-174.17871735 30.38285522 -173.23243469 30.39071045 -172.25747681 30.39880371 C-159.61619501 30.48043017 -147.58567597 29.46750995 -135.12939453 27.34637451 C-130.34112396 26.56749824 -125.51095983 26.12521669 -120.6875 25.625 C-105.70052881 23.96831928 -90.84628904 21.61090598 -76 19 C-74.92476074 18.81211914 -73.84952148 18.62423828 -72.74169922 18.43066406 C-57.1301147 15.6338897 -42.31987504 11.10881418 -27.29101562 6.09130859 C-22.37784009 4.46208792 -17.44707211 2.89784825 -12.5 1.375 C-11.68756836 1.11533447 -10.87513672 0.85566895 -10.03808594 0.58813477 C-6.26295274 -0.56555966 -3.77172261 -1.18936657 0 0 Z " fill="#1E1E1E" transform="translate(333,371)"/>
<path d="M0 0 C8.81415013 4.0723605 17.07561899 8.93689691 25.39501953 13.92236328 C30.58542802 17.020972 35.80422911 19.99951275 41.15087891 22.8190918 C66.64771301 36.31476589 90.28608902 53.89775874 113.08764648 71.46948242 C116.97226274 74.46268244 120.88762823 77.39379752 124.875 80.25 C137.26779955 89.19827521 149.30509119 99.13108133 159 111 C159.43425293 111.5165918 159.86850586 112.03318359 160.31591797 112.56542969 C175.53142493 130.6735606 186.15165677 150.0416278 192 173 C192.2475 173.9178125 192.495 174.835625 192.75 175.78125 C198.94274617 202.96052486 191.57249218 234.7041125 177 258 C160.26193965 283.43559452 135.14128965 299.28065713 105.58984375 305.74609375 C81.47269351 309.83613677 50.32011325 308.40438679 29.328125 294.7109375 C21.17486687 288.71911357 12.65875096 281.16391673 8 272 C8.4921875 269.7109375 8.4921875 269.7109375 10 267 C10.68102417 265.58385809 11.35475992 264.16420091 12.0234375 262.7421875 C12.40282471 261.95755127 12.78221191 261.17291504 13.1730957 260.36450195 C19.3581293 247.55345429 24.12882353 234.97723289 27 221 C27.15388184 220.25492188 27.30776367 219.50984375 27.46630859 218.7421875 C30.21004439 204.55188258 30.29008909 190.27309852 30.3125 175.875 C30.31608521 174.95158813 30.31967041 174.02817627 30.32336426 173.07678223 C30.34979964 160.39848498 29.6370785 147.93278548 28.25267029 135.33119202 C27.99647281 132.96745735 27.76020851 130.60246054 27.52978516 128.23608398 C23.95149849 91.62646154 16.45262646 52.56883418 4.32421875 17.84765625 C0 5.46257962 0 5.46257962 0 0 Z " fill="#1E1E1E" transform="translate(368,376)"/>
<path d="M0 0 C1.67642578 0.57814453 1.67642578 0.57814453 3.38671875 1.16796875 C29.63205735 10.58702755 51.59567238 30.00282915 64 55 C77.35365762 85.14404403 79.39540609 118.83325674 67.66796875 150.0625 C64.16599316 158.68402054 59.08374305 165.97550825 52 172 C51.03191406 172.82371094 50.06382812 173.64742187 49.06640625 174.49609375 C48.00557401 175.35524252 46.94175844 176.21072064 45.875 177.0625 C44.88242187 177.85785156 43.88984375 178.65320313 42.8671875 179.47265625 C40 181 40 181 37.67578125 180.51171875 C36.79277344 180.01285156 35.90976562 179.51398438 35 179 C33.66606685 178.34221028 32.32842438 177.69191868 30.98828125 177.046875 C30.23949707 176.67771973 29.49071289 176.30856445 28.71923828 175.92822266 C-9.64056487 157.14911838 -50.19319409 156.16841901 -92 160 C-92.99676758 160.09120117 -93.99353516 160.18240234 -95.02050781 160.27636719 C-122.93407793 162.96127015 -150.56404823 168.67952957 -177.9375 174.625 C-178.78296387 174.80677795 -179.62842773 174.98855591 -180.49951172 175.17584229 C-191.54211357 177.56205287 -202.27569471 180.44926745 -213 184 C-215.31558732 184.75572521 -217.63129968 185.51106102 -219.94726562 186.265625 C-221.24357247 186.68913048 -222.53770996 187.11931081 -223.83007812 187.5546875 C-228.66331845 189.11222718 -228.66331845 189.11222718 -232 188 C-231.65332275 187.38705078 -231.30664551 186.77410156 -230.94946289 186.14257812 C-229.91152304 184.30726574 -228.87369084 182.47189247 -227.8359375 180.63647461 C-226.64215986 178.52517761 -225.44814499 176.41401473 -224.25390625 174.30297852 C-221.3319658 169.13566222 -218.41782689 163.96445975 -215.52856445 158.77880859 C-213.70240244 155.50966216 -211.8554542 152.25259788 -210 149 C-209.5369043 148.18772949 -209.07380859 147.37545898 -208.59667969 146.53857422 C-200.3885897 132.21553678 -191.50847173 118.4922684 -182 105 C-181.43780762 104.20078125 -180.87561523 103.4015625 -180.29638672 102.578125 C-172.67184375 91.7810294 -164.69173629 81.2813727 -156.50390625 70.90625 C-155.21661234 69.27456317 -153.93577214 67.63778833 -152.65625 66 C-148.69598699 60.97109459 -144.54056254 56.17056844 -140.22265625 51.4453125 C-138.08951605 49.09848338 -136.01367927 46.70965414 -133.9375 44.3125 C-130.22734809 40.15307188 -126.30245616 36.53588692 -122 33 C-121.4858252 32.56816406 -120.97165039 32.13632813 -120.44189453 31.69140625 C-88.38113426 4.81172311 -41.9926496 -16.21602947 0 0 Z " fill="#1E1E1E" transform="translate(606,149)"/>
<path d="M0 0 C4.33898058 3.72020422 8.39339506 7.70548563 12.24609375 11.92578125 C12.85582031 12.56128906 13.46554687 13.19679688 14.09375 13.8515625 C15.24609375 15.92578125 15.24609375 15.92578125 15.16015625 18.734375 C14.09816953 22.44225171 12.46146517 25.62706223 10.62109375 28.98828125 C-13.71084076 75.52841533 -9.93698251 136.22023031 0.5 186.10546875 C1.11127316 189.23544338 1.60355167 192.33397152 2.05859375 195.48828125 C3.56630166 205.41266769 5.62487769 215.22833718 7.68359375 225.05078125 C7.89730621 226.07603912 8.11101868 227.101297 8.33120728 228.15762329 C11.64697583 243.92909519 15.72411498 259.26219752 20.92944336 274.51416016 C21.15948059 275.19610947 21.38951782 275.87805878 21.62652588 276.58067322 C22.24201286 278.39273095 22.8745842 280.19896117 23.50854492 282.00463867 C24.23326298 284.87496357 24.30229104 286.20966778 23.24609375 288.92578125 C22.43325928 288.45906006 22.43325928 288.45906006 21.60400391 287.98291016 C12.10031691 282.52964693 2.58993094 277.09415299 -7.00390625 271.80078125 C-9.9234783 270.18095542 -12.83980084 268.55541951 -15.75390625 266.92578125 C-16.41181152 266.5587207 -17.0697168 266.19166016 -17.74755859 265.81347656 C-44.57676789 250.74088707 -69.72590278 232.4660713 -93.84765625 213.4296875 C-95.47934308 212.14239359 -97.11611792 210.86155339 -98.75390625 209.58203125 C-103.80769359 205.60217372 -108.62670287 201.42163301 -113.375 197.08203125 C-115.52901134 195.12962689 -117.72418351 193.24300766 -119.94140625 191.36328125 C-123.17786413 188.53299239 -126.02516514 185.53754953 -128.79296875 182.25 C-130.23653834 180.53899621 -131.71610225 178.85820187 -133.21484375 177.1953125 C-149.94794514 158.446432 -160.36595774 137.06368224 -166.75390625 112.92578125 C-166.95113281 112.2409668 -167.14835938 111.55615234 -167.3515625 110.85058594 C-169.23888841 103.64167502 -169.15180912 96.33447218 -169.12890625 88.92578125 C-169.12803009 88.23636444 -169.12715393 87.54694763 -169.12625122 86.8366394 C-169.00528889 58.00030707 -157.55612822 32.72774369 -137.25 12.265625 C-102.06385755 -21.92205666 -40.32287038 -30.39939101 0 0 Z " fill="#1E1E1E" transform="translate(311.75390625,43.07421875)"/>
</svg>
