<svg id="bdac101d-059a-49f4-8644-0f3299ad68c1" data-name="Layer 6" xmlns="http://www.w3.org/2000/svg" viewBox="0 0 706.28 708.66"><defs><style>.a3f77775-b7fd-4dd7-acf8-ebca3533560f{fill:#1e1e1e;}.f0cde016-0781-4abd-a7fd-41a119441243{fill:#fff;}.e457f0f5-ee8d-4093-a03d-dda14bba58ce{fill:#00ffa6;}</style></defs><path class="a3f77775-b7fd-4dd7-acf8-ebca3533560f" d="M743.69,435.93c-9-9-17.93-17.92-26.89-23.9,29.87-17.93,38.84-35.85,44.81-74.69,6-62.75-38.84-122.5-101.58-128.48H624.18c9-32.86,3-53.78-20.92-83.66-38.84-50.79-113.53-59.75-164.33-17.92-9,9-17.92,17.92-23.9,26.89-17.93-29.88-35.85-38.84-74.69-44.82-68.72-9-125.49,38.84-134.45,101.59v35.85c-32.87-9-50.79-3-80.67,20.91C74.43,286.54,65.46,361.24,107.29,412c9,9,17.93,17.93,26.89,23.9-29.88,17.93-38.84,35.86-44.82,74.7-6,62.74,38.85,122.5,101.59,128.47H226.8c-9,32.87-3,53.78,20.92,83.66,38.84,50.79,113.53,59.75,164.32,17.93,9-9,17.93-17.93,23.91-26.89,17.92,29.87,35.85,38.84,74.69,44.81,62.74,6,122.5-38.84,128.47-101.58V621.17c32.87,9,53.78,3,83.66-20.91C776.55,561.42,785.51,486.72,743.69,435.93ZM441.92,113.25c23.9-17.92,50.79-26.89,80.67-23.9s53.78,17.93,71.71,38.84c20.91,26.89,26.89,44.82,20.91,71.71-56.77,11.95-92.62,59.75-110.55,80.67-20.91,26.89-44.81,59.75-56.76,83.66L427,400.08l-12-38.84c-9-26.89-14.94-62.74-17.93-95.61S385.15,158.07,441.92,113.25ZM113.27,409c-17.93-23.9-26.89-50.79-23.91-80.67s17.93-53.78,38.85-71.7c26.89-20.92,44.81-26.89,71.7-20.92,12,56.77,59.76,92.62,80.67,110.55,26.89,20.91,59.76,44.82,83.66,56.77L400.09,424l-38.84,11.95c-26.89,9-62.74,14.94-95.61,17.93S158.08,465.81,113.27,409ZM409.06,737.7c-23.91,17.92-50.8,26.89-80.67,23.9s-53.78-17.93-71.71-38.84c-20.91-26.89-26.89-44.82-20.91-71.71,56.76-11.95,92.62-59.75,110.54-80.67,20.92-26.89,44.82-59.75,56.77-83.66L424,450.87l12,38.84c9,26.89,14.93,62.75,17.92,95.61S462.84,692.88,409.06,737.7ZM722.77,594.28c-26.89,20.92-44.81,26.89-71.7,20.92-12-56.77-59.76-92.62-80.67-110.55-26.89-20.91-59.76-44.81-83.66-56.77L450.88,427l38.85-12c26.89-9,62.74-14.94,95.6-17.93s107.56-11.95,152.38,44.82c17.93,23.9,26.89,50.79,23.9,80.67S743.69,576.36,722.77,594.28Z" transform="translate(-72.05 -70.87)"/><path class="f0cde016-0781-4abd-a7fd-41a119441243" d="M749.66,430q-9-9-17.93-17.93c26.89-17.93,32.87-41.83,38.85-74.69a130.59,130.59,0,0,0-26.89-92.62c-20.92-26.89-50.8-41.83-83.66-47.81H633.14c6-29.88-6-50.79-23.9-77.68-20.92-26.89-50.8-41.83-83.66-47.8-35.85-3-68.72,6-95.61,26.89L412,116.24c-17.92-26.89-41.83-32.86-74.69-35.85-32.87-6-65.73,6-92.62,26.89s-41.83,50.79-44.82,83.66v26.89c-32.86-6-53.78,3-80.67,23.9C65.46,283.56,56.5,364.23,98.33,418l17.92,17.92c-26.89,17.93-32.86,41.83-38.84,74.7a130.61,130.61,0,0,0,26.89,92.62c20.92,26.89,50.8,41.83,83.66,47.8h26.89c-6,32.87,6,53.78,26.89,80.67s50.79,41.83,83.66,47.81h14.94c26.89,0,56.76-9,77.68-26.89L436,734.71c17.92,26.89,41.82,32.87,74.69,38.84h14.94c62.74,0,116.52-47.8,125.49-110.55V636.11H666c23.91,0,41.83-9,62.75-26.89,26.89-20.91,41.83-50.79,47.8-83.65C782.53,489.71,773.56,456.85,749.66,430Zm12,92.62c-3,29.88-17.92,53.78-38.84,71.7-26.89,20.92-44.81,26.89-71.7,20.92-12-56.77-59.76-92.62-80.67-110.55-26.89-20.91-59.76-44.81-83.66-56.77L450.88,427l38.85-12c26.89-9,62.74-14.94,95.6-17.93s107.56-11.95,152.38,44.82C755.64,465.81,764.6,492.7,761.61,522.58ZM633.14,657c-6,59.75-59.76,101.58-119.51,95.61-35.86-3-50.79-11.95-65.73-35.86,29.87-47.8,23.9-107.56,20.91-134.45-3-32.86-11.95-71.7-17.93-98.59L438.93,444.9l35.86,20.91c23.9,11.95,53.78,32.87,80.67,53.78C582.35,537.52,642.1,585.32,633.14,657ZM328.39,761.6c-29.88-3-53.78-17.93-71.71-38.84-20.91-26.89-26.89-44.82-20.91-71.71,56.76-11.95,92.62-59.75,110.54-80.67,20.92-26.89,44.82-59.75,56.77-83.66L424,450.87l12,38.84c9,26.89,14.93,62.75,17.92,95.61s9,107.56-44.81,152.38C385.15,755.62,358.26,764.59,328.39,761.6Zm-233-248c6-35.85,14.94-50.79,35.85-65.73,29.88,20.92,65.73,23.91,95.61,23.91,14.94,0,29.88,0,41.83-3,32.87-3,71.71-9,98.6-17.93l38.84-11.95-20.92,35.85c-11.95,23.91-32.86,53.78-53.78,80.67S262.66,642.09,191,633.13c-29.88-3-53.78-17.93-71.71-38.85C101.32,570.38,92.35,543.49,95.34,513.61Zm-6-185.24c3-29.87,17.93-53.78,38.85-71.7,26.89-20.92,44.81-26.89,71.7-20.92,12,56.77,59.76,92.62,80.67,110.55,26.89,20.91,59.76,44.82,83.66,56.77L400.09,424l-38.84,11.95c-26.89,9-62.74,14.94-95.61,17.93S158.08,465.81,113.27,409C95.34,385.14,86.38,358.25,89.36,328.37ZM214.85,190.94c3-29.88,17.93-53.78,38.84-71.71,23.9-17.93,53.78-26.89,80.67-23.9,35.85,6,50.79,14.94,65.73,35.85-29.88,47.8-23.9,107.56-20.91,134.45,3,32.87,11.95,71.71,17.92,98.6l12,38.84L373.2,382.15c-23.9-11.95-53.78-32.86-80.67-53.78C268.63,310.45,208.88,262.64,214.85,190.94ZM522.59,89.35c29.88,3,53.78,17.93,71.71,38.84,20.91,26.89,26.89,44.82,20.91,71.71-56.77,11.95-92.62,59.75-110.55,80.67-20.91,26.89-44.81,59.75-56.76,83.66L427,400.08l-12-38.84c-9-26.89-14.94-62.74-17.93-95.61s-12-107.56,44.82-152.38C465.82,95.33,492.71,86.36,522.59,89.35Zm230.06,245c-3,35.85-11.95,50.79-35.85,65.73C669,370.2,609.24,376.18,582.35,379.17c-32.87,3-71.71,11.95-98.6,17.92l-38.84,12,20.91-35.85c11.95-23.9,32.87-53.78,53.78-80.67,17.93-23.9,65.73-83.66,137.44-77.68,29.88,3,53.78,17.92,71.71,38.84C746.67,277.58,755.64,304.47,752.65,334.35Z" transform="translate(-72.05 -70.87)"/><path class="e457f0f5-ee8d-4093-a03d-dda14bba58ce" d="M615.21,199.9c-56.77,11.95-92.62,59.75-110.55,80.67-20.91,26.89-44.81,59.75-56.76,83.66L427,400.08l-12-38.84c-9-26.89-14.94-62.74-17.93-95.61s-12-107.56,44.82-152.38c23.9-17.92,50.79-26.89,80.67-23.9s53.78,17.93,71.71,38.84C615.21,155.08,621.19,173,615.21,199.9Z" transform="translate(-72.05 -70.87)"/><path class="e457f0f5-ee8d-4093-a03d-dda14bba58ce" d="M409.06,737.7c-23.91,17.92-50.8,26.89-80.67,23.9s-53.78-17.93-71.71-38.84c-20.91-26.89-26.89-44.82-20.91-71.71,56.76-11.95,92.62-59.75,110.54-80.67,20.92-26.89,44.82-59.75,56.77-83.66L424,450.87l12,38.84c9,26.89,14.93,62.75,17.92,95.61S462.84,692.88,409.06,737.7Z" transform="translate(-72.05 -70.87)"/><path class="e457f0f5-ee8d-4093-a03d-dda14bba58ce" d="M761.61,522.58c-3,29.88-17.92,53.78-38.84,71.7-26.89,20.92-44.81,26.89-71.7,20.92-12-56.77-59.76-92.62-80.67-110.55-26.89-20.91-59.76-44.81-83.66-56.77L450.88,427l38.85-12c26.89-9,62.74-14.94,95.6-17.93s107.56-11.95,152.38,44.82C755.64,465.81,764.6,492.7,761.61,522.58Z" transform="translate(-72.05 -70.87)"/><path class="e457f0f5-ee8d-4093-a03d-dda14bba58ce" d="M400.09,424l-38.84,11.95c-26.89,9-62.74,14.94-95.61,17.93S158.08,465.81,113.27,409c-17.93-23.9-26.89-50.79-23.91-80.67s17.93-53.78,38.85-71.7c26.89-20.92,44.81-26.89,71.7-20.92,12,56.77,59.76,92.62,80.67,110.55,26.89,20.91,59.76,44.82,83.66,56.77Z" transform="translate(-72.05 -70.87)"/></svg>