<svg id="Layer_3" data-name="Layer 3" xmlns="http://www.w3.org/2000/svg" viewBox="0 0 708.66 708.65"><defs><style>.cls-1{fill:#e6e6e6;}.cls-2{fill:#2a2a2a;}.cls-3{fill:#00ffa6;}</style></defs><path class="cls-1" d="M751,453.7l28.51-28.5L751,396.69l23.13-33-33-23.13,17-36.53-36.53-17L732.06,248,693.12,237.6l3.51-40.16-40.16-3.52L653,153.76l-40.16,3.52-10.44-38.94-38.94,10.43-17-36.54-36.54,17-23.12-33-33,23.12L425.2,70.87l-28.51,28.5-33-23.12-23.12,33L304,92.23l-17,36.54L248,118.34,237.6,157.28l-40.16-3.52-3.52,40.16-40.15,3.52,3.51,40.16L118.34,248,128.77,287,92.23,304l17,36.53-33,23.13,23.12,33L70.86,425.2l28.51,28.51-23.12,33,33,23.12-17,36.54,36.54,17-10.43,38.94,38.94,10.44L153.77,653l40.15,3.52,3.52,40.16,40.16-3.51L248,732.06,287,721.62l17,36.54,36.54-17,23.12,33,33-23.13,28.51,28.51L453.7,751l33,23.13,23.12-33,36.54,17,17-36.54,38.94,10.44,10.44-38.94L653,696.63l3.51-40.16L696.63,653l-3.51-40.15,38.94-10.44-10.43-38.94,36.53-17-17-36.54,33-23.12Zm20.62-28.5-23.86,23.87-9.31-13.3-16.74,11.72L699.44,425.2l22.29-22.29,16.74,11.72,9.31-13.3ZM766.38,365,747,392.69l-11.48-11.48-14.45,14.45-25.82-18.09,18.08-25.81,18.52,8.63,6.86-14.71Zm-15.63-58.33L736.48,337.3,723.19,328l-11.72,16.74L682.9,331.4l13.32-28.57L716,308.12l4.2-15.68Zm-58.12-63.47,32.6,8.74-8.74,32.6-14.71-6.86-8.64,18.51-30.44-8.15,8.16-30.45,20.35,1.78Zm-34.25-27.5L657,199.57l33.63,2.94-2.94,33.62L672,231.93l-5.29,19.74-31.4-2.75,2.75-31.4Zm-44.12-53,33.63-2.95,2.94,33.63L634.66,192l-1.78,20.35-31.4,2.75-2.75-31.4,19.73-5.29ZM565.82,133.9l32.6-8.73,8.74,32.6L591,159.19l1.79,20.35-30.45,8.16-8.16-30.45,18.52-8.63Zm-43.41-6.69-9.31-13.3,30.59-14.26L558,130.24l-15.68,4.2,5.29,19.73L519,167.5l-13.32-28.57Zm-64.7-23.83L485.36,84l19.36,27.65L490,118.53,498.64,137l-25.82,18.08L454.74,129.3l14.45-14.45ZM425.2,78.75l23.87,23.87-13.3,9.31,11.72,16.74L425.2,151l-22.29-22.29,11.72-16.74-13.3-9.31ZM365,84l27.65,19.36-11.48,11.47,14.45,14.45-18.08,25.82L351.76,137l8.63-18.51-14.71-6.86ZM306.71,99.65l30.59,14.26L328,127.21l16.73,11.72L331.4,167.5l-28.57-13.32,5.29-19.74-15.68-4.2ZM252,125.17l32.61,8.73-6.86,14.72,18.52,8.63-8.16,30.45-30.45-8.16,1.78-20.35-16.17-1.42ZM202.51,159.8l33.62,2.95-4.2,15.68,19.74,5.29-2.75,31.4-31.4-2.75L215.74,192l-16.18,1.41Zm-9.08,39.77L192,215.74l20.35,1.78,2.75,31.4-31.4,2.75-5.29-19.74-15.68,4.2-2.94-33.62ZM125.17,252l32.6-8.74,1.41,16.17,20.36-1.78,8.16,30.45-30.45,8.16-8.63-18.52-14.72,6.86ZM99.65,306.71l30.59-14.27,4.2,15.68,19.73-5.29L167.5,331.4l-28.57,13.32L127.21,328l-13.3,9.31ZM84,365l27.65-19.36,6.86,14.71,18.52-8.63,18.07,25.81L129.3,395.65l-14.44-14.44-11.48,11.48ZM78.75,425.2l23.87-23.87,9.31,13.3,16.74-11.72L151,425.2l-22.29,22.29-16.74-11.72-9.31,13.3ZM84,485.36l19.36-27.65,11.48,11.48,14.44-14.45,25.82,18.08-18.07,25.82L118.53,490l-6.86,14.71Zm15.63,58.33,14.26-30.59,13.3,9.31,11.72-16.74L167.5,519l-13.33,28.56-19.73-5.29L130.24,558Zm58.12,63.47-32.6-8.74,8.73-32.61,14.72,6.86,8.63-18.51,30.45,8.16-8.16,30.44L159.18,591ZM192,634.66l1.41,16.17-33.62-2.94,2.94-33.63,15.68,4.21,5.29-19.74,31.4,2.74-2.75,31.41Zm44.11,53-33.62,2.94L199.57,657l16.17,1.42L217.52,638l31.4-2.74,2.75,31.4L231.93,672Zm48.45,28.84L252,725.23l-8.73-32.61,16.17-1.41-1.78-20.35,30.45-8.16,8.16,30.44-18.52,8.63Zm43.41,6.7,9.31,13.29-30.59,14.27-14.27-30.59,15.68-4.2-5.29-19.74L331.4,682.9l13.32,28.57ZM392.69,747,365,766.38l-19.36-27.65,14.71-6.86-8.64-18.52,25.83-18.08,18.08,25.82-14.45,14.45Zm32.51,24.62-23.87-23.87,13.3-9.31-11.72-16.73,22.29-22.29,22.29,22.29-11.72,16.73,13.29,9.31Zm25.54-54.55L425.2,691.55l-25.54,25.54L379,687.5l-29.59,20.72L334.1,675.49l-32.73,15.26L292,655.87l-34.88,9.35-3.15-36-36,3.15,3.15-36-36-3.15,9.35-34.88L159.64,549l15.27-32.74L142.18,501l20.71-29.58-29.58-20.72,25.53-25.53-25.53-25.54L162.89,379l-20.71-29.59,32.73-15.26-15.27-32.73L194.53,292l-9.35-34.88,36-3.15L218,218l36,3.15,3.15-36L292,194.53l9.35-34.88,32.73,15.26,15.26-32.73L379,162.89l20.71-29.58,25.54,25.54,25.53-25.54,20.72,29.58L501,142.18l15.27,32.73L549,159.65l9.34,34.88,34.89-9.35,3.15,36,36-3.15-3.14,36,36,3.15L655.87,292l34.88,9.35L675.49,334.1l32.73,15.26L687.5,379l29.59,20.71L691.55,425.2l25.54,25.54L687.5,471.45,708.22,501l-32.73,15.26L690.75,549l-34.88,9.35,9.34,34.88-36,3.15,3.14,36-36-3.15-3.15,36-34.89-9.35L549,690.75,516.3,675.49,501,708.22,471.45,687.5Zm34.62,49.29L457.71,747l11.48-11.48-14.45-14.45,18.08-25.82,25.82,18.08L490,731.87l14.72,6.86Zm58.33-15.63L513.1,736.48l9.31-13.29-16.74-11.72L519,682.9l28.57,13.32L542.27,716l15.68,4.2Zm54.73-25.52-32.6-8.74,6.86-14.72-18.52-8.63,8.16-30.44,30.44,8.16L591,691.21l16.18,1.41Zm49.47-34.64-33.63-2.94,4.2-15.68-19.73-5.29,2.75-31.4,31.4,2.74,1.78,20.36L650.83,657ZM657,650.83l1.42-16.17L638,632.88l-2.75-31.41,31.4-2.74L672,618.47l15.68-4.21,2.94,33.63Zm68.27-52.41-32.6,8.74L691.21,591l-20.36,1.78-8.15-30.44,30.45-8.16,8.63,18.51,14.71-6.86Zm25.52-54.73L720.16,558,716,542.27l-19.74,5.29L682.9,519l28.57-13.33,11.72,16.74,13.29-9.31Zm-12-39L731.87,490l-18.52,8.63-18.08-25.82,25.82-18.08,14.45,14.45L747,457.71l19.36,27.65Z" transform="translate(-70.86 -70.87)"/><polygon class="cls-2" points="187.84 107.92 189.63 87.41 173.65 86.01 181.81 55.52 212.31 63.69 205.53 78.23 224.19 86.93 216.51 115.6 187.84 107.92"/><path d="M253.39,127.62l28.37,7.6-5.85,12.56-.85,1.81,1.82.85,17,7.92-7.21,26.89-26.9-7.2,1.63-18.68.18-2-2-.18L245.79,156l7.6-28.37M252,125.17l-8.73,32.6,16.17,1.42-1.78,20.35,30.45,8.16,8.16-30.45-18.52-8.63,6.86-14.72L252,125.17Z" transform="translate(-70.86 -70.87)"/><polygon class="cls-2" points="108.28 159.83 92.78 163.98 90.03 132.55 121.47 129.8 120.08 145.78 140.59 147.57 143.18 177.14 113.61 179.73 108.28 159.83"/><path d="M191.23,201.77l-1.2,13.8-.17,2,2,.17,18.68,1.64L213,247.1l-27.74,2.43-4.86-18.12-.51-1.93-1.93.52-13.38,3.58L162,204.33l29.25-2.56m2.2-2.2-33.62,2.94,2.94,33.62,15.68-4.2,5.29,19.74,31.4-2.75-2.75-31.4L192,215.74l1.41-16.17Z" transform="translate(-70.86 -70.87)"/><polygon class="cls-2" points="56.59 255.72 43.45 264.93 30.12 236.32 58.72 222.98 62.87 238.47 82.76 233.14 95.31 260.04 68.41 272.59 56.59 255.72"/><path d="M128.93,295.26l3.58,13.38.52,1.93,1.93-.52,18.11-4.85,11.77,25.23L139.61,342.2l-10.76-15.36-1.15-1.63-1.63,1.14-11.35,7.95-12.41-26.62,26.62-12.42m1.31-2.82L99.65,306.71l14.26,30.59,13.3-9.31,11.72,16.73L167.5,331.4l-13.33-28.57-19.73,5.29-4.2-15.68Z" transform="translate(-70.86 -70.87)"/><polygon class="cls-2" points="9.3 354.33 31.62 332.01 40.82 345.15 57.7 333.34 78.69 354.33 57.7 375.31 40.82 363.5 31.62 376.64 9.3 354.33"/><path d="M102.35,404.43l8,11.35,1.14,1.64,1.64-1.15,15.37-10.76,19.68,19.69-19.68,19.69-15.37-10.76L111.44,433l-1.14,1.64-8,11.35L81.58,425.2l20.77-20.77m.27-3.1L78.75,425.2l23.87,23.87,9.31-13.3,16.74,11.72L151,425.2l-22.29-22.29-16.74,11.72-9.31-13.3Z" transform="translate(-70.86 -70.87)"/><polygon class="cls-2" points="30.12 472.33 43.45 443.73 56.59 452.93 68.41 436.06 95.31 448.61 82.76 475.5 62.87 470.17 58.72 485.66 30.12 472.33"/><path d="M139.61,508.19,164.84,520l-11.77,25.22L135,540.34l-1.93-.52-.52,1.93-3.58,13.38-26.62-12.41,12.41-26.62,11.35,7.95,1.64,1.14,1.14-1.63,10.76-15.37m-.68-2.52-11.72,16.74-13.3-9.31L99.65,543.69,130.24,558l4.2-15.68,19.73,5.29L167.5,519l-28.57-13.33Z" transform="translate(-70.86 -70.87)"/><polygon class="cls-2" points="90.03 576.1 92.78 544.66 108.28 548.82 113.61 528.92 143.18 531.5 140.59 561.08 120.08 562.87 121.47 578.85 90.03 576.1"/><path d="M185.22,600.87,213,603.29,210.53,631l-18.68,1.64-2,.17.17,2,1.2,13.8L162,646.07l2.56-29.26,13.37,3.59,1.94.52.51-1.93,4.86-18.12m-1.5-2.14-5.29,19.74-15.68-4.21-2.94,33.63,33.62,2.94L192,634.66l20.35-1.78,2.75-31.41-31.4-2.74Z" transform="translate(-70.86 -70.87)"/><polygon class="cls-2" points="173.65 622.63 189.63 621.24 187.84 600.73 216.51 593.05 224.19 621.71 205.53 630.41 212.31 644.96 181.81 653.13 173.65 622.63"/><path d="M286.67,665.15,293.88,692l-17,7.92-1.82.85.85,1.81,5.85,12.56-28.37,7.61-7.6-28.38,13.8-1.2,2-.17-.18-2-1.63-18.68,26.9-7.2m1.41-2.45-30.45,8.16,1.78,20.35-16.17,1.41L252,725.23l32.61-8.74-6.86-14.72,18.52-8.63-8.16-30.44Z" transform="translate(-70.86 -70.87)"/><polygon class="cls-2" points="276.32 668.25 290.86 661.48 282.15 642.81 306.47 625.78 323.5 650.1 308.93 664.66 320.28 676.01 294.42 694.11 276.32 668.25"/><path d="M377.09,698.05l16,22.81L379.8,734.12l-1.42,1.42L379.8,737l9.79,9.79-24.06,16.85-16.84-24.06,12.55-5.85,1.81-.85L362.2,731l-7.93-17,22.82-16m.49-2.78-25.83,18.08,8.64,18.52-14.71,6.86L365,766.38,392.69,747l-11.48-11.48,14.45-14.45-18.08-25.82Z" transform="translate(-70.86 -70.87)"/><polygon class="cls-2" points="388.39 676.01 399.74 664.66 385.18 650.1 402.2 625.78 426.51 642.81 417.81 661.48 432.35 668.26 414.25 694.11 388.39 676.01"/><path d="M473.31,698.05l22.81,16-7.93,17-.85,1.81,1.81.85,12.56,5.85-16.84,24.06-24.06-16.85L470.6,737l1.42-1.41-1.42-1.42-13.26-13.26,16-22.81m-.49-2.78-18.08,25.82,14.45,14.45L457.71,747l27.65,19.36,19.36-27.65L490,731.87l8.64-18.52-25.82-18.08Z" transform="translate(-70.86 -70.87)"/><polygon class="cls-2" points="496.36 644.96 503.14 630.41 484.48 621.71 492.16 593.05 520.82 600.73 519.03 621.24 535.02 622.63 526.85 653.13 496.36 644.96"/><path d="M563.73,665.15l26.89,7.2L589,691l-.18,2,2,.17,13.81,1.2L597,722.78l-28.36-7.61,5.85-12.56.85-1.81-1.82-.85-17-7.92,7.21-26.88m-1.41-2.45-8.16,30.44,18.52,8.63-6.86,14.72,32.6,8.74,8.74-32.61L591,691.21l1.78-20.35-30.44-8.16Z" transform="translate(-70.86 -70.87)"/><polygon class="cls-2" points="588.6 562.87 568.09 561.08 565.5 531.5 595.06 528.92 600.39 548.82 615.89 544.66 618.64 576.1 587.19 578.85 588.6 562.87"/><path d="M665.18,600.87,670,619l.51,1.93,1.94-.52,13.37-3.59,2.56,29.26-29.26,2.56,1.21-13.8.17-2-2-.17L639.87,631l-2.43-27.74,27.74-2.42m1.5-2.14-31.4,2.74L638,632.88l20.35,1.78L657,650.83l33.63-2.94-2.94-33.63L672,618.47l-5.29-19.74Z" transform="translate(-70.86 -70.87)"/><polygon class="cls-2" points="645.8 470.17 625.9 475.5 613.36 448.61 640.26 436.06 652.08 452.93 665.21 443.73 678.55 472.33 649.95 485.66 645.8 470.17"/><path d="M710.79,508.19l10.76,15.37,1.15,1.63,1.63-1.14,11.34-7.95,12.42,26.62-26.62,12.41-3.58-13.38-.52-1.93-1.93.52-18.12,4.85L685.55,520l25.24-11.78m.68-2.52L682.9,519l13.32,28.56L716,542.27l4.2,15.68,30.59-14.26L736.48,513.1l-13.29,9.31-11.72-16.74Z" transform="translate(-70.86 -70.87)"/><polygon class="cls-2" points="667.85 363.5 650.98 375.31 629.99 354.33 650.98 333.34 667.85 345.15 677.05 332.01 699.36 354.33 677.05 376.64 667.85 363.5"/><path d="M748.05,404.43l20.76,20.77L748.05,446l-7.95-11.35L739,433l-1.64,1.15L722,444.89,702.27,425.2,722,405.51l15.37,10.76,1.64,1.15,1.14-1.64,7.95-11.35m-.27-3.1-9.31,13.3-16.74-11.72L699.44,425.2l22.29,22.29,16.74-11.72,9.31,13.3,23.86-23.87-23.86-23.87Z" transform="translate(-70.86 -70.87)"/><polygon class="cls-2" points="613.36 260.04 625.9 233.14 645.8 238.47 649.95 222.98 678.55 236.32 665.21 264.92 652.08 255.72 640.26 272.6 613.36 260.04"/><path d="M721.47,295.26l26.62,12.42L735.67,334.3l-11.34-7.95-1.63-1.14-1.15,1.63-10.76,15.37-25.24-11.78,11.77-25.23,18.12,4.85,1.93.52.52-1.93,3.58-13.38m-1.31-2.82L716,308.12l-19.74-5.29L682.9,331.4l28.57,13.33L723.19,328l13.29,9.31,14.27-30.59-30.59-14.27Z" transform="translate(-70.86 -70.87)"/><polygon class="cls-2" points="565.5 177.14 568.09 147.57 588.6 145.78 587.19 129.8 618.64 132.55 615.89 163.98 600.39 159.83 595.06 179.73 565.5 177.14"/><path d="M659.16,201.77l29.26,2.56-2.56,29.25L672.48,230l-1.93-.52-.51,1.93-4.86,18.12-27.74-2.43,2.43-27.73,18.68-1.64,2-.17-.17-2-1.21-13.8m-2.2-2.2,1.42,16.17L638,217.52l-2.75,31.4,31.4,2.75L672,231.93l15.68,4.2,2.94-33.62L657,199.57Z" transform="translate(-70.86 -70.87)"/><polygon class="cls-2" points="484.48 86.93 503.14 78.23 496.36 63.69 526.85 55.52 535.02 86.01 519.03 87.41 520.83 107.92 492.16 115.6 484.48 86.93"/><path d="M597,127.62,604.61,156,590.8,157.2l-2,.18.18,2,1.64,18.68-26.9,7.2-7.21-26.89,17-7.92,1.82-.85-.85-1.81-5.85-12.56,28.36-7.6m1.42-2.45-32.6,8.73,6.86,14.72-18.52,8.63,8.16,30.45,30.45-8.16L591,159.19l16.18-1.42-8.74-32.6Z" transform="translate(-70.86 -70.87)"/><polygon class="cls-2" points="385.18 58.54 399.74 43.98 388.39 32.65 414.25 14.54 432.35 40.4 417.81 47.17 426.51 65.83 402.2 82.86 385.18 58.54"/><path d="M484.87,86.81l16.84,24.06-12.56,5.85-1.81.85.85,1.81,7.93,17-22.81,16-16-22.81,13.26-13.26,1.42-1.42-1.42-1.41-9.79-9.79,24.06-16.84m.49-2.79-27.65,19.36,11.48,11.47L454.74,129.3l18.08,25.82L498.64,137,490,118.53l14.72-6.86L485.36,84Z" transform="translate(-70.86 -70.87)"/><polygon class="cls-2" points="282.16 65.83 290.86 47.17 276.32 40.4 294.42 14.54 320.28 32.65 308.93 43.98 323.5 58.54 306.47 82.86 282.16 65.83"/><path d="M365.53,86.81l24.06,16.84-9.79,9.79-1.42,1.41,1.42,1.42,13.26,13.26-16,22.81-22.81-16,7.92-17,.85-1.81-1.81-.85-12.55-5.85,16.84-24.06M365,84l-19.36,27.65,14.71,6.86L351.76,137l25.82,18.08,18.08-25.82-14.45-14.45,11.48-11.47L365,84Z" transform="translate(-70.86 -70.87)"/><polygon class="cls-3" points="147.58 140.57 145.79 120.07 129.8 121.46 132.56 90.01 163.99 92.77 159.84 108.27 179.74 113.6 177.15 143.16 147.58 140.57"/><path d="M204.33,162l29.25,2.57L230,177.92l-.52,1.93,1.93.51,18.12,4.86L247.1,213l-27.73-2.43-1.64-18.68-.17-2-2,.17-13.81,1.2L204.33,162m-1.82-2.17-2.95,33.63L215.74,192l1.78,20.35,31.4,2.75,2.75-31.4-19.74-5.29,4.2-15.68-33.62-2.95Z" transform="translate(-70.86 -70.87)"/><polygon class="cls-3" points="78.24 205.52 63.7 212.3 55.53 181.81 86.02 173.64 87.41 189.62 107.93 187.83 115.61 216.5 86.94 224.18 78.24 205.52"/><path d="M156,245.79l1.2,13.8.17,2,2-.18,18.69-1.63,7.2,26.9-26.89,7.21-7.92-17-.85-1.82-1.81.85-12.56,5.85-7.6-28.36L156,245.79m1.78-2.55L125.17,252l8.73,32.6,14.72-6.86,8.63,18.52,30.45-8.16-8.16-30.45-20.36,1.78-1.41-16.17Z" transform="translate(-70.86 -70.87)"/><polygon class="cls-3" points="44 308.92 32.66 320.27 14.55 294.41 40.41 276.31 47.19 290.85 65.85 282.15 82.87 306.45 58.55 323.48 44 308.92"/><path d="M110.87,348.69l5.85,12.55.85,1.81,1.81-.85,17-7.92,16,22.8-22.81,16L116.28,379.8l-1.42-1.42-1.41,1.42-9.79,9.79L86.81,365.53l24.06-16.84m.8-3L84,365l19.36,27.65,11.48-11.48,14.44,14.44,25.82-18.08-18.07-25.81-18.52,8.63-6.86-14.71Z" transform="translate(-70.86 -70.87)"/><polygon class="cls-3" points="14.55 414.24 32.66 388.38 44 399.73 58.55 385.17 82.87 402.19 65.85 426.5 47.19 417.81 40.41 432.34 14.55 414.24"/><path d="M129.53,457.34l22.81,16-16,22.81-17-7.92-1.81-.85-.85,1.81-5.85,12.55L86.81,484.87l16.85-24.06,9.79,9.79,1.41,1.42,1.42-1.42,13.25-13.26m-.23-2.6-14.44,14.45-11.48-11.48L84,485.36l27.65,19.36L118.53,490l18.52,8.63,18.07-25.82L129.3,454.74Z" transform="translate(-70.86 -70.87)"/><polygon class="cls-3" points="55.53 526.84 63.7 496.34 78.24 503.12 86.94 484.47 115.61 492.15 107.93 520.81 87.41 519.02 86.02 535.01 55.53 526.84"/><path d="M158.36,556.52l26.89,7.21-7.2,26.89L159.36,589l-2-.18-.17,2L156,604.61,127.62,597l7.6-28.37,12.56,5.85,1.81.85.85-1.82,7.92-17m-1.11-2.36-8.63,18.51-14.72-6.86-8.73,32.61,32.6,8.74L159.18,591l20.36,1.78,8.16-30.44-30.45-8.16Z" transform="translate(-70.86 -70.87)"/><polygon class="cls-3" points="129.81 587.18 145.79 588.59 147.58 568.07 177.15 565.49 179.74 595.05 159.84 600.38 163.99 615.88 132.56 618.63 129.81 587.18"/><path d="M247.1,637.44l2.43,27.74L231.41,670l-1.93.51.52,1.93,3.58,13.38-29.25,2.56-2.56-29.26,13.8,1.21,2,.17.17-2,1.64-18.69,27.73-2.42m1.82-2.16L217.52,638l-1.78,20.36L199.57,657l2.94,33.63,33.62-2.94L231.93,672l19.74-5.29-2.75-31.4Z" transform="translate(-70.86 -70.87)"/><polygon class="cls-3" points="222.99 649.94 238.48 645.79 233.15 625.89 260.05 613.35 272.6 640.25 255.73 652.07 264.93 665.2 236.33 678.54 222.99 649.94"/><path d="M330.43,685.55l11.77,25.24-15.36,10.76-1.63,1.15,1.14,1.63,7.95,11.34-26.62,12.42-12.42-26.62,13.38-3.58,1.93-.52-.52-1.93-4.85-18.12,25.23-11.77m1-2.65-28.57,13.32L308.12,716l-15.68,4.2,14.27,30.59,30.59-14.27L328,723.19l16.73-11.72L331.4,682.9Z" transform="translate(-70.86 -70.87)"/><polygon class="cls-3" points="332.02 677.03 345.16 667.83 333.35 650.97 354.34 629.98 375.32 650.97 363.51 667.83 376.64 677.03 354.34 699.35 332.02 677.03"/><path d="M425.2,702.27,444.89,722l-10.76,15.36L433,739l1.64,1.14L446,748,425.2,768.81,404.43,748l11.35-7.95,1.64-1.14-1.15-1.64L405.51,722l19.69-19.68m0-2.83-22.29,22.29,11.72,16.73-13.3,9.31,23.87,23.87,23.86-23.87-13.29-9.31,11.72-16.73L425.2,699.44Z" transform="translate(-70.86 -70.87)"/><polygon class="cls-3" points="443.74 665.2 452.94 652.07 436.06 640.25 448.61 613.35 475.51 625.89 470.18 645.79 485.67 649.94 472.34 678.54 443.74 665.2"/><path d="M520,685.55l25.23,11.77-4.85,18.12-.52,1.93,1.93.52,13.38,3.58-12.41,26.62L516.1,735.67l7.95-11.34,1.14-1.63-1.63-1.15-15.37-10.76L520,685.55m-1-2.65-13.32,28.57,16.74,11.72-9.31,13.29,30.59,14.27L558,720.16,542.27,716l5.29-19.74L519,682.9Z" transform="translate(-70.86 -70.87)"/><polygon class="cls-3" points="544.67 615.88 548.82 600.38 528.93 595.05 531.52 565.49 561.09 568.07 562.88 588.59 578.86 587.18 576.11 618.63 544.67 615.88"/><path d="M603.3,637.44,631,639.86l1.64,18.69.17,2,2-.17,13.8-1.21-2.56,29.26-29.26-2.56,3.58-13.38.52-1.93L619,670l-18.11-4.86,2.43-27.74m-1.82-2.16-2.75,31.4L618.46,672l-4.2,15.68,33.63,2.94L650.83,657l-16.17,1.42L632.88,638l-31.4-2.74Z" transform="translate(-70.86 -70.87)"/><polygon class="cls-3" points="621.25 519.02 600.73 520.81 593.06 492.15 621.73 484.47 630.43 503.12 644.97 496.34 653.14 526.84 622.65 535.01 621.25 519.02"/><path d="M692,556.52l7.92,17,.85,1.82,1.81-.85,12.55-5.85L722.78,597l-28.37,7.61L693.2,590.8l-.18-2-2,.18-18.69,1.63-7.19-26.89L692,556.52m1.11-2.36-30.45,8.16,8.15,30.44L691.21,591l1.42,16.18,32.6-8.74-8.74-32.61-14.71,6.86-8.63-18.51Z" transform="translate(-70.86 -70.87)"/><polygon class="cls-3" points="661.49 417.81 642.82 426.5 625.79 402.19 650.11 385.17 664.67 399.73 676.02 388.38 694.12 414.24 668.26 432.34 661.49 417.81"/><path d="M720.86,457.34l13.26,13.26,1.42,1.42L737,470.6l9.79-9.79,16.85,24.06-24.06,16.84-5.85-12.55-.85-1.81-1.81.85-17,7.92-16-22.81,22.81-16m.23-2.6-25.82,18.08,18.08,25.82L731.87,490l6.86,14.71,27.65-19.36L747,457.71l-11.48,11.48-14.45-14.45Z" transform="translate(-70.86 -70.87)"/><polygon class="cls-3" points="625.79 306.45 642.82 282.15 661.49 290.85 668.26 276.31 694.12 294.41 676.02 320.27 664.67 308.92 650.11 323.49 625.79 306.45"/><path d="M739.53,348.69l24.06,16.84-16.85,24.06L737,379.8l-1.41-1.42-1.42,1.42-13.26,13.26-22.81-16,16-22.8,17,7.92,1.81.85.85-1.81,5.85-12.55m-.8-3-6.86,14.71-18.52-8.63-18.08,25.81,25.82,18.09,14.45-14.45L747,392.69,766.38,365l-27.65-19.36Z" transform="translate(-70.86 -70.87)"/><polygon class="cls-3" points="593.06 216.5 600.74 187.83 621.25 189.62 622.65 173.64 653.14 181.81 644.97 212.3 630.43 205.52 621.72 224.17 593.06 216.5"/><path d="M694.41,245.79l28.37,7.61-7.61,28.36-12.55-5.85-1.81-.85-.85,1.82-7.93,17-26.88-7.2,7.2-26.9L691,261.4l2,.18.18-2,1.21-13.8m-1.78-2.55-1.42,16.17-20.35-1.78-8.16,30.45,30.44,8.15,8.64-18.51,14.71,6.86,8.74-32.6-32.6-8.74Z" transform="translate(-70.86 -70.87)"/><polygon class="cls-3" points="528.93 113.6 548.82 108.27 544.67 92.77 576.11 90.01 578.86 121.46 562.88 120.07 561.09 140.57 531.52 143.16 528.93 113.6"/><path d="M646.07,162l2.56,29.26-13.8-1.2-2-.17-.17,2L631,210.53,603.3,213l-2.43-27.74L619,180.36l1.93-.51-.52-1.93-3.58-13.38L646.07,162m1.82-2.17-33.63,2.95,4.2,15.68-19.73,5.29,2.75,31.4,31.4-2.75L634.66,192l16.17,1.41-2.94-33.63Z" transform="translate(-70.86 -70.87)"/><polygon class="cls-3" points="436.06 68.4 452.94 56.59 443.74 43.44 472.34 30.11 485.67 58.71 470.18 62.86 475.51 82.75 448.61 95.3 436.06 68.4"/><path d="M542.72,102.31l12.41,26.62-13.38,3.58-1.93.52.52,1.93,4.85,18.11L520,164.84l-11.77-25.23,15.37-10.76,1.63-1.15-1.14-1.63-7.95-11.35,26.62-12.41m1-2.66L513.1,113.91l9.31,13.3-16.74,11.72L519,167.5l28.57-13.33-5.29-19.73,15.68-4.2L543.69,99.65Z" transform="translate(-70.86 -70.87)"/><polygon class="cls-3" points="333.35 57.69 345.16 40.81 332.02 31.61 354.34 9.29 376.65 31.61 363.51 40.81 375.32 57.69 354.34 78.67 333.35 57.69"/><path d="M425.2,81.58,446,102.35l-11.35,8L433,111.44l1.15,1.64,10.76,15.37L425.2,148.13l-19.69-19.68,10.76-15.37,1.15-1.64-1.64-1.14-11.35-8L425.2,81.58m0-2.83-23.87,23.87,13.3,9.31-11.72,16.74L425.2,151l22.29-22.29-11.72-16.74,13.3-9.31L425.2,78.75Z" transform="translate(-70.86 -70.87)"/><polygon class="cls-3" points="233.15 82.76 238.48 62.86 222.99 58.71 236.33 30.11 264.94 43.44 255.73 56.59 272.6 68.4 260.05 95.3 233.15 82.76"/><path d="M307.68,102.31l26.62,12.41-7.95,11.35-1.14,1.63,1.63,1.15,15.36,10.76-11.77,25.24L305.2,153.08,310.05,135l.52-1.93-1.93-.52-13.38-3.58,12.42-26.62m-1-2.66-14.27,30.59,15.68,4.2-5.29,19.74L331.4,167.5l13.32-28.57L328,127.21l9.31-13.3L306.71,99.65Z" transform="translate(-70.86 -70.87)"/><path class="cls-1" d="M408.09,620.7l17.1,17.1,17.11-17.1,19.81,13.87L476,614.76,497.91,625l10.22-21.92,23.37,6.26L537.76,586l24.09,2.1L564,564l24.1-2.11L586,537.76l23.36-6.26-6.26-23.36L625,497.92,614.75,476l19.82-13.87-13.88-19.81,17.1-17.11-17.1-17.1,13.88-19.82-19.82-13.87L625,352.49l-21.93-10.23,6.26-23.36L586,312.64l2.11-24.09L564,286.43l-2.11-24.09-24.09,2.11-6.26-23.36-23.37,6.25-10.22-21.92L476,235.64l-13.88-19.81L442.3,229.7l-17.11-17.1-17.1,17.1-19.81-13.87L374.4,235.64l-21.92-10.22-10.22,21.92-23.36-6.25-6.27,23.36-24.09-2.11-2.11,24.09-24.09,2.12,2.1,24.09-23.36,6.26,6.26,23.36-21.92,10.23,10.22,21.92-19.82,13.87L229.7,408.1l-17.1,17.1,17.1,17.1-13.88,19.82L235.64,476l-10.22,21.93,21.92,10.22-6.26,23.36,23.36,6.26-2.1,24.1L286.43,564l2.11,24.09,24.09-2.1,6.27,23.36,23.36-6.26L352.48,625l21.92-10.22,13.88,19.81Zm17.1,12.37-14.32-14.32,8-5.58-7-10,13.37-13.37,13.38,13.37-7,10,8,5.58Zm36.1-3.16L444.7,618.3l6.89-6.89-8.67-8.67,10.85-15.49,15.49,10.84-5.18,11.12,8.83,4.11Zm35-9.38L477.94,612l5.58-8-10-7,8-17.15,17.14,8-3.18,11.84,9.41,2.52Zm38.08-34.87-5.24,19.56L509.57,600l4.11-8.83L502.58,586l4.89-18.27,18.27,4.9-1.07,12.21Zm16.5-20.55,9.7-.85-1.76,20.18-20.17-1.77,2.52-9.4-11.85-3.18L531,551.25l18.84,1.65Zm31.8-26.47,1.77,20.18-20.18,1.76.84-9.7-12.21-1.07L551.24,531l18.84-1.65,3.18,11.84ZM600,509.58l5.23,19.56-19.56,5.24-.85-9.71-12.21,1.08-4.89-18.27,18.27-4.9,5.17,11.11Zm4-26.05,8-5.59,8.56,18.36-18.36,8.55-2.52-9.4-11.84,3.17-8-17.14,17.14-8Zm14.3-38.82L629.9,461.3l-16.59,11.62-4.11-8.84-11.11,5.19-10.85-15.49,15.5-10.85,8.67,8.67Zm14.78-19.51-14.33,14.33-5.58-8-10,7L589.74,425.2l13.37-13.37,10,7,5.58-8Zm-3.17-36.09L618.29,405.7l-6.88-6.89-8.67,8.67-15.5-10.85,10.85-15.49,11.11,5.18,4.11-8.83Zm-9.37-35L612,372.46l-8-5.58-7,10-17.14-8,8-17.14L599.65,355l2.52-9.4Zm-15.32-32.85L600,340.83l-8.84-4.12L586,347.83l-18.27-4.9,4.89-18.27,12.21,1.07.85-9.7Zm-20.77-29.67-1.77,20.17-9.41-2.52-3.18,11.84-18.84-1.65,1.65-18.84,12.21-1.06-.84-9.71Zm-23.87-5.45-9.7-.85L549.8,297.5,531,299.15l-1.65-18.84,11.85-3.17-2.52-9.41L558.81,266Zm-31.44-41,5.24,19.56-9.7.85,1.07,12.22-18.27,4.89-4.9-18.27,11.11-5.18-4.11-8.83Zm-32.84-15.31,8.56,18.36-9.41,2.52,3.18,11.83-17.14,8-8-17.14,10-7-5.58-8Zm-35-9.38,11.62,16.59-8.83,4.12,5.18,11.11-15.49,10.84-10.84-15.49,8.66-8.66-6.89-6.89Zm-36.1-3.16,14.33,14.32-8,5.59,7,10-13.38,13.38-13.37-13.38,7-10-8-5.59Zm-36.09,3.16,16.59,11.62L398.8,239l8.67,8.66-10.85,15.49-15.49-10.84,5.18-11.11-8.83-4.12Zm-35,9.38,18.35,8.56-5.58,8,10,7-8,17.14-17.13-8L355,250.75l-9.41-2.52ZM316,264.74l5.24-19.56,19.57,5.24-4.12,8.83,11.11,5.18-4.9,18.27-18.26-4.89,1.07-12.22Zm-16.5,20.55-9.7.85L291.58,266l20.18,1.76-2.53,9.41,11.85,3.17-1.65,18.84-18.84-1.65Zm-31.8,26.47L266,291.59l20.18-1.77-.85,9.71,12.21,1.06,1.65,18.84-18.84,1.65-3.18-11.84Zm-17.3,29.07-5.24-19.57L264.74,316l.85,9.7,12.21-1.07,4.89,18.27-18.26,4.9-5.18-11.12Zm-4,26.05-8,5.58-8.57-18.35,18.36-8.56,2.52,9.4,11.84-3.17,8,17.14-17.14,8ZM232.1,405.7l-11.61-16.59,16.59-11.62,4.11,8.83,11.11-5.19,10.85,15.5-15.49,10.85L239,398.81Zm-14.77,19.5,14.32-14.32,5.59,8,10-7,13.37,13.37-13.37,13.38-10-7-5.59,8Zm32.73,15.33,15.32-15.33-15.32-15.32,17.75-12.43L255.38,379.7,275,370.54l-9.16-19.64,20.93-5.61-5.61-20.92,21.6-1.89-1.89-21.59,21.58,1.89,1.89-21.59,20.93,5.61,5.61-20.93L370.54,275l9.16-19.64,17.74,12.43,12.44-17.75,15.31,15.32,15.33-15.32L453,267.82l17.75-12.43L479.86,275l19.63-9.16,5.61,20.93L526,281.19l1.89,21.59,21.59-1.89-1.89,21.59,21.59,1.89-5.61,20.92,20.93,5.61-9.16,19.64L595,379.7l-12.43,17.75,17.75,12.43L585,425.2l15.32,15.32L582.58,453,595,470.7l-19.64,9.16,9.16,19.64-20.93,5.61L569.21,526l-21.59,1.89,1.89,21.58-21.59-1.88L526,569.21l-20.93-5.6-5.61,20.92-19.63-9.15L470.7,595,453,582.58l-12.43,17.76L425.19,585l-15.32,15.33-12.43-17.76L379.7,595l-9.16-19.64-19.64,9.15-5.61-20.92-20.93,5.6-1.89-21.58-21.58,1.88,1.89-21.58L281.18,526l5.61-20.93-20.93-5.61L275,479.86l-19.64-9.16L267.81,453ZM220.49,461.3l11.61-16.59L239,451.6l8.67-8.67,15.49,10.85L252.3,469.27l-11.11-5.19-4.11,8.84Zm9.37,35,8.57-18.36,8,5.59,7-10,17.14,8-8,17.14-11.84-3.17-2.52,9.4Zm15.32,32.84,5.24-19.56,8.83,4.11,5.18-11.11,18.26,4.9-4.89,18.26-12.21-1.07-.85,9.71ZM266,558.82l1.76-20.18,9.41,2.52,3.18-11.84L299.15,531l-1.65,18.84-12.21,1.07.85,9.7Zm23.86,5.44,9.7.85,1.07-12.21,18.84-1.65,1.65,18.84-11.85,3.18,2.53,9.4-20.18,1.77Zm31.44,41L316,585.66l9.71-.85-1.07-12.22,18.26-4.89,4.9,18.27-11.11,5.18,4.12,8.83Zm32.84,15.31-8.56-18.35,9.41-2.52-3.17-11.84,17.13-8,8,17.15-10,7,5.58,8Zm23.38-7.21,8.83-4.11-5.18-11.12,15.49-10.84,10.85,15.49-8.67,8.67,6.89,6.89L389.1,629.91Z" transform="translate(-70.86 -70.87)"/><polygon class="cls-2" points="498.06 271.35 502.48 254.86 514.85 255.94 515.68 246.43 533.12 251.1 528.45 268.55 519.79 264.51 514.55 275.77 498.06 271.35"/><path d="M587.44,318.57l15.32,4.11L598.66,338,592,334.9l-1.81-.84-.85,1.81-4.47,9.59-14.72-3.94,4-14.72,10.54.92,2,.18.17-2,.65-7.33M585.65,316l-.85,9.7-12.21-1.07-4.89,18.27,18.27,4.9,5.17-11.12,8.84,4.12,5.23-19.57L585.65,316Z" transform="translate(-70.86 -70.87)"/><polygon class="cls-2" points="459.52 210.19 471.52 206.97 469.05 197.75 487.04 196.18 488.61 214.17 479.1 213.34 478.02 225.71 461.01 227.2 459.52 210.19"/><path d="M557,268.14l1.38,15.8L551,283.3l-2-.17-.17,2L548,295.66,532.78,297l-1.33-15.18,10.22-2.74,1.94-.52-.52-1.93-1.9-7.1,15.8-1.38m1.82-2.17-20.17,1.76,2.52,9.41-11.85,3.17L531,299.15l18.84-1.65,1.07-12.21,9.7.85L558.81,266Z" transform="translate(-70.86 -70.87)"/><polygon class="cls-2" points="403.88 182.9 414.05 175.78 408.57 167.96 424.94 160.33 432.58 176.69 423.35 179.16 426.57 191.16 411.1 198.38 403.88 182.9"/><path d="M495.32,232.53,502,246.91l-7.1,1.9-1.94.52.52,1.93,2.74,10.22-13.81,6.44L476,254.12l8.67-6.07,1.64-1.15-1.15-1.64-4.22-6,14.38-6.7m1-2.66-18.35,8.56,5.58,8-10,7,8,17.14,17.14-8-3.18-11.83,9.41-2.52-8.56-18.36Z" transform="translate(-70.86 -70.87)"/><polygon class="cls-2" points="342.26 176.3 349.38 166.12 341.56 160.65 354.33 147.87 367.1 160.65 359.28 166.12 366.4 176.3 354.33 188.37 342.26 176.3"/><path d="M425.19,220.16l11.23,11.22-6,4.22-1.64,1.15,1.15,1.64,6.07,8.67-10.78,10.77-10.77-10.77,6.07-8.67,1.15-1.64L420,235.6l-6-4.22,11.22-11.22m0-2.83-14.32,14.32,8,5.59-7,10,13.37,13.38,13.38-13.38-7-10,8-5.59-14.33-14.32Z" transform="translate(-70.86 -70.87)"/><polygon class="cls-2" points="282.1 191.16 285.31 179.16 276.09 176.69 283.72 160.33 300.09 167.96 294.61 175.78 304.79 182.9 297.57 198.38 282.1 191.16"/><path d="M355.07,232.53l14.38,6.7-4.22,6-1.15,1.64,1.64,1.15,8.67,6.07L368,267.92l-13.8-6.44,2.73-10.22.52-1.93-1.93-.52-7.11-1.9,6.71-14.38m-1-2.66-8.56,18.36,9.41,2.52-3.17,11.83,17.13,8,8-17.14-10-7,5.58-8-18.35-8.56Z" transform="translate(-70.86 -70.87)"/><polygon class="cls-2" points="230.65 225.71 229.56 213.34 220.05 214.17 221.63 196.18 239.62 197.75 237.14 206.97 249.14 210.19 247.66 227.2 230.65 225.71"/><path d="M293.4,268.14l15.81,1.38-1.91,7.1-.52,1.93,1.94.52,10.22,2.74L317.61,297l-15.18-1.33-.92-10.54-.17-2-2,.17-7.33.64,1.38-15.8M291.58,266l-1.76,20.17,9.7-.85,1.07,12.21,18.84,1.65,1.65-18.84-11.85-3.17,2.53-9.41L291.58,266Z" transform="translate(-70.86 -70.87)"/><polygon class="cls-2" points="188.87 264.51 180.21 268.55 175.54 251.1 192.99 246.43 193.81 255.94 206.19 254.86 210.61 271.35 194.12 275.77 188.87 264.51"/><path d="M263,318.58l.64,7.32.17,2,2-.18,10.54-.92,3.95,14.72-14.72,3.94-4.46-9.59-.85-1.81-1.81.84L251.74,338l-4.11-15.33,15.33-4.1m1.78-2.55-19.56,5.23,5.24,19.57,8.83-4.12,5.18,11.12,18.26-4.9-4.89-18.27-12.21,1.07-.85-9.7Z" transform="translate(-70.86 -70.87)"/><polygon class="cls-2" points="168.13 326.52 161.37 333.27 151.01 318.48 165.81 308.12 169.84 316.77 181.1 311.52 190.9 325.51 176.91 335.3 168.13 326.52"/><path d="M236.27,380.5l3.11,6.66.85,1.82,1.81-.85,9.59-4.47,8.74,12.48-12.48,8.74-7.49-7.49L239,396l-1.41,1.41-5.21,5.21-9.1-13,13-9.1m.81-3-16.59,11.62L232.1,405.7l6.89-6.89,8.67,8.67,15.49-10.85-10.85-15.5-11.11,5.19-4.11-8.83Z" transform="translate(-70.86 -70.87)"/><polygon class="cls-2" points="151.01 390.18 161.37 375.38 168.13 382.14 176.91 373.35 190.9 383.15 181.1 397.13 169.84 391.88 165.81 400.54 151.01 390.18"/><path d="M247.89,445.53l12.48,8.74-8.74,12.47L242,462.27l-1.82-.85-.84,1.82-3.11,6.67-13-9.1,9.1-13,5.21,5.2,1.41,1.42L240.4,453l7.49-7.48m-.23-2.6L239,451.6l-6.89-6.89L220.49,461.3l16.59,11.62,4.11-8.84,11.11,5.19,10.85-15.49-15.49-10.85Z" transform="translate(-70.86 -70.87)"/><polygon class="cls-2" points="175.54 457.55 180.21 440.11 188.87 444.15 194.12 432.89 210.61 437.31 206.19 453.8 193.81 452.71 192.99 462.23 175.54 457.55"/><path d="M265.53,505l14.72,3.94L276.3,523.6l-10.54-.92-2-.18-.17,2-.64,7.33-15.33-4.11,4.11-15.33,6.67,3.11,1.81.85.85-1.81,4.46-9.59m-1.1-2.37-5.18,11.11-8.83-4.11-5.24,19.56,19.56,5.24.85-9.71,12.21,1.07,4.89-18.26-18.26-4.9Z" transform="translate(-70.86 -70.87)"/><polygon class="cls-2" points="220.05 494.49 229.56 495.32 230.65 482.95 247.66 481.46 249.14 498.47 237.14 501.68 239.62 510.91 221.63 512.48 220.05 494.49"/><path d="M317.61,553.42l1.33,15.17-10.22,2.74-1.94.52.52,1.93,1.91,7.11-15.81,1.38L292,566.46l7.32.64,2,.18.17-2,.92-10.54,15.18-1.33m1.82-2.17-18.84,1.65-1.07,12.21-9.7-.85,1.76,20.18,20.18-1.77-2.53-9.4,11.85-3.18-1.65-18.84Z" transform="translate(-70.86 -70.87)"/><polygon class="cls-2" points="276.09 531.96 285.31 529.49 282.1 517.49 297.57 510.28 304.79 525.75 294.61 532.88 300.09 540.7 283.72 548.33 276.09 531.96"/><path d="M368,582.48l6.44,13.81-8.67,6.07-1.64,1.15,1.15,1.63,4.22,6-14.38,6.71-6.71-14.39,7.11-1.9,1.93-.52-.52-1.93-2.73-10.22,13.8-6.44m1-2.66-17.13,8L355,599.66l-9.41,2.52,8.56,18.35L372.45,612l-5.58-8,10-7-8-17.15Z" transform="translate(-70.86 -70.87)"/><polygon class="cls-2" points="341.56 548.01 349.38 542.54 342.26 532.36 354.33 520.29 366.4 532.36 359.28 542.54 367.1 548.01 354.33 560.78 341.56 548.01"/><path d="M425.19,592.58,436,603.35,429.9,612l-1.15,1.64,1.64,1.14,6,4.22-11.23,11.22L414,619l6-4.22,1.64-1.14L420.49,612l-6.07-8.67,10.77-10.77m0-2.83-13.37,13.37,7,10-8,5.58,14.32,14.32,14.33-14.32-8-5.58,7-10-13.38-13.37Z" transform="translate(-70.86 -70.87)"/><polygon class="cls-2" points="408.57 540.7 414.05 532.88 403.87 525.75 411.1 510.28 426.57 517.49 423.35 529.49 432.58 531.96 424.94 548.33 408.57 540.7"/><path d="M482.44,582.48l13.81,6.44-2.74,10.22-.52,1.93,1.94.52,7.1,1.9-6.71,14.39-14.38-6.71,4.22-6,1.15-1.63-1.64-1.15L476,596.29l6.44-13.81m-1-2.66-8,17.15,10,7-5.58,8,18.35,8.56,8.56-18.35-9.41-2.52,3.18-11.84-17.14-8Z" transform="translate(-70.86 -70.87)"/><polygon class="cls-2" points="469.05 510.91 471.52 501.68 459.52 498.47 461.01 481.46 478.02 482.95 479.1 495.32 488.61 494.49 487.04 512.48 469.05 510.91"/><path d="M532.78,553.42,548,554.75l.92,10.54.17,2,2-.18,7.32-.64L557,582.27l-15.8-1.38,1.9-7.11.52-1.93-1.94-.52-10.22-2.74,1.33-15.17M531,551.25l-1.65,18.84,11.85,3.18-2.52,9.4,20.17,1.77,1.76-20.18-9.7.85L549.8,552.9,531,551.25Z" transform="translate(-70.86 -70.87)"/><polygon class="cls-2" points="514.85 452.71 502.48 453.8 498.06 437.31 514.55 432.89 519.79 444.15 528.45 440.11 533.12 457.55 515.68 462.23 514.85 452.71"/><path d="M584.86,505l4.47,9.59.85,1.81,1.81-.85,6.67-3.11,4.1,15.33-15.32,4.11-.65-7.33-.17-2-2,.18-10.54.93-4-14.72L584.86,505m1.11-2.37-18.27,4.9,4.89,18.27,12.21-1.08.85,9.71,19.56-5.24L600,509.58l-8.84,4.11L586,502.58Z" transform="translate(-70.86 -70.87)"/><polygon class="cls-2" points="538.82 391.88 527.57 397.13 517.77 383.15 531.76 373.35 540.54 382.14 547.29 375.38 557.65 390.18 542.85 400.54 538.82 391.88"/><path d="M602.51,445.53,610,453l1.42,1.42,1.41-1.42,5.2-5.2,9.1,13-13,9.1L611,463.24l-.85-1.82-1.81.85-9.58,4.47L590,454.27l12.48-8.74m.23-2.6-15.5,10.85,10.85,15.49,11.11-5.19,4.11,8.84L629.9,461.3l-11.61-16.59-6.88,6.89-8.67-8.67Z" transform="translate(-70.86 -70.87)"/><polygon class="cls-2" points="517.77 325.51 527.57 311.52 538.82 316.77 542.85 308.12 557.65 318.48 547.29 333.27 540.54 326.52 531.76 335.3 517.77 325.51"/><path d="M614.12,380.5l13,9.1-9.1,13-5.2-5.2L611.41,396,610,397.39l-7.48,7.49L590,396.14l8.74-12.48,9.58,4.47,1.81.84.85-1.81,3.11-6.66m-.81-3-4.11,8.83-11.11-5.18-10.85,15.49,15.5,10.85,8.67-8.67,6.88,6.89,11.61-16.59-16.59-11.62Z" transform="translate(-70.86 -70.87)"/><polygon class="cls-3" points="481.46 247.65 482.95 230.64 495.32 229.56 494.49 220.04 512.49 221.62 510.91 239.61 501.69 237.14 498.47 249.14 481.46 247.65"/><path d="M566.46,292l15.81,1.39-1.39,15.8-7.11-1.9-1.93-.52-.51,1.93L568.59,319l-15.18-1.33,1.33-15.18,10.54-.92,2-.18-.17-2-.64-7.33m-2.2-2.2.84,9.71-12.21,1.06-1.65,18.84,18.84,1.65,3.18-11.84,9.41,2.52,1.77-20.17-20.18-1.77Z" transform="translate(-70.86 -70.87)"/><polygon class="cls-3" points="432.89 194.11 444.15 188.86 440.11 180.21 457.56 175.53 462.23 192.98 452.72 193.81 453.8 206.18 437.31 210.6 432.89 194.11"/><path d="M527.71,247.63,531.82,263l-7.32.64-2,.17.18,2,.92,10.55-14.72,3.94-3.94-14.71,9.59-4.47,1.81-.85-.84-1.81-3.11-6.67,15.32-4.11m1.42-2.45-19.56,5.24,4.11,8.83-11.11,5.18,4.9,18.27,18.27-4.89-1.07-12.22,9.7-.85-5.24-19.56Z" transform="translate(-70.86 -70.87)"/><polygon class="cls-3" points="373.36 176.9 382.14 168.12 375.39 161.37 390.18 151.01 400.54 165.81 391.89 169.84 397.13 181.1 383.15 190.89 373.36 176.9"/><path d="M460.8,223.28l9.1,13-6.66,3.11-1.82.84.85,1.82,4.47,9.59-12.48,8.73-8.73-12.48,7.47-7.48,1.42-1.41L453,237.58l-5.2-5.2,13-9.1m.49-2.79L444.7,232.11l6.89,6.89-8.66,8.66,10.84,15.49,15.49-10.84-5.18-11.11,8.83-4.12-11.62-16.59Z" transform="translate(-70.86 -70.87)"/><polygon class="cls-3" points="311.53 181.1 316.77 169.84 308.12 165.81 318.48 151.01 333.27 161.37 326.52 168.13 335.31 176.9 325.51 190.89 311.53 181.1"/><path d="M389.59,223.28l13,9.1-5.2,5.2L396,239l1.42,1.41,7.48,7.48-8.74,12.48-12.48-8.73,4.47-9.59.85-1.82-1.82-.84-6.66-3.11,9.1-13m-.49-2.79-11.62,16.59,8.83,4.12-5.18,11.11,15.49,10.84,10.85-15.49L398.8,239l6.89-6.89L389.1,220.49Z" transform="translate(-70.86 -70.87)"/><polygon class="cls-3" points="254.86 206.18 255.95 193.81 246.43 192.98 251.1 175.53 268.56 180.21 264.52 188.86 275.77 194.11 271.35 210.6 254.86 206.18"/><path d="M322.68,247.63,338,251.74l-3.11,6.67-.84,1.81,1.81.85,9.58,4.47-3.94,14.71-14.71-3.94.92-10.55.17-2-2-.17-7.33-.64,4.11-15.33m-1.42-2.45L316,264.74l9.71.85-1.07,12.22,18.26,4.89,4.9-18.27-11.11-5.18,4.12-8.83-19.57-5.24Z" transform="translate(-70.86 -70.87)"/><polygon class="cls-3" points="206.98 237.14 197.75 239.61 196.18 221.62 214.17 220.05 213.34 229.56 225.72 230.64 227.2 247.65 210.19 249.14 206.98 237.14"/><path d="M283.94,292l-.65,7.33-.17,2,2,.18,10.55.92L297,317.62,281.8,319l-2.74-10.23-.51-1.93-1.93.52-7.11,1.9-1.38-15.8L283.94,292m2.2-2.2Zm0,0L266,291.59l1.76,20.17,9.41-2.52,3.18,11.84,18.84-1.65-1.65-18.84-12.21-1.06.85-9.71Z" transform="translate(-70.86 -70.87)"/><polygon class="cls-3" points="175.78 294.61 167.97 300.09 160.33 283.72 176.7 276.08 179.17 285.31 191.17 282.09 198.38 297.56 182.91 304.78 175.78 294.61"/><path d="M246.9,348.37l1.91,7.1.51,1.93,1.94-.51,10.22-2.74L267.92,368l-13.81,6.43L248,365.73l-1.15-1.64-1.64,1.15-6,4.22-6.71-14.38,14.38-6.71m1.32-2.82-18.36,8.56,8.57,18.35,8-5.58,7,10,17.14-8-8-17.14L250.74,355l-2.52-9.4Z" transform="translate(-70.86 -70.87)"/><polygon class="cls-3" points="147.88 354.33 160.65 341.56 166.13 349.38 176.3 342.26 188.37 354.33 176.3 366.4 166.13 359.28 160.65 367.09 147.88 354.33"/><path d="M231.38,414l4.22,6,1.15,1.64,1.64-1.15,8.66-6.07,10.77,10.77L247.05,436l-8.66-6.07-1.64-1.15-1.15,1.64-4.22,6L220.16,425.2,231.38,414m.27-3.1L217.33,425.2l14.32,14.32,5.59-8,10,7,13.37-13.38-13.37-13.37-10,7-5.59-8Z" transform="translate(-70.86 -70.87)"/><polygon class="cls-3" points="160.33 424.94 167.97 408.57 175.78 414.05 182.91 403.87 198.38 411.09 191.17 426.56 179.17 423.35 176.7 432.57 160.33 424.94"/><path d="M254.11,476l13.81,6.43-6.44,13.81-10.22-2.74-1.94-.51-.51,1.93L246.9,502l-14.38-6.7L239.23,481l6,4.22,1.64,1.14,1.15-1.63,6.07-8.67m-.68-2.52-7,10-8-5.59-8.57,18.36,18.36,8.55,2.52-9.4,11.84,3.17,8-17.14-17.14-8Z" transform="translate(-70.86 -70.87)"/><polygon class="cls-3" points="196.18 487.03 197.75 469.04 206.98 471.51 210.19 459.52 227.2 461.01 225.72 478.01 213.34 479.1 214.17 488.61 196.18 487.03"/><path d="M281.8,531.46,297,532.79,295.66,548l-10.55.92-2,.17.17,2,.65,7.33L268.13,557l1.38-15.81,7.11,1.9,1.93.52.51-1.93,2.74-10.22m-1.49-2.14-3.18,11.84-9.41-2.52L266,558.82l20.18,1.76-.85-9.7,12.21-1.07L299.15,531l-18.84-1.65Z" transform="translate(-70.86 -70.87)"/><polygon class="cls-3" points="246.43 515.68 255.95 514.84 254.86 502.47 271.35 498.05 275.77 514.55 264.52 519.79 268.55 528.45 251.1 533.12 246.43 515.68"/><path d="M341.51,570.15l3.94,14.72-9.58,4.47-1.82.84.85,1.82,3.11,6.66-15.33,4.11-4.11-15.32,7.33-.65,2-.17-.17-2-.92-10.55,14.71-3.94m1.41-2.45-18.26,4.89,1.07,12.22-9.71.85,5.24,19.56L340.83,600l-4.12-8.83L347.82,586l-4.9-18.27Z" transform="translate(-70.86 -70.87)"/><polygon class="cls-3" points="308.12 542.85 316.77 538.81 311.53 527.56 325.51 517.76 335.31 531.75 326.52 540.53 333.27 547.28 318.48 557.64 308.12 542.85"/><path d="M396.13,590l8.74,12.48L397.39,610,396,611.41l1.42,1.41,5.2,5.2-13,9.11-9.1-13,6.66-3.11,1.82-.85-.85-1.81-4.47-9.59L396.13,590m.49-2.78-15.49,10.84,5.18,11.12-8.83,4.11,11.62,16.59,16.59-11.61-6.89-6.89,8.67-8.67-10.85-15.49Z" transform="translate(-70.86 -70.87)"/><polygon class="cls-3" points="375.39 547.28 382.14 540.53 373.36 531.75 383.15 517.76 397.13 527.56 391.89 538.81 400.54 542.85 390.18 557.64 375.39 547.28"/><path d="M454.26,590l12.48,8.74-4.47,9.59-.85,1.81,1.82.85,6.66,3.11-9.1,13-13-9.11,5.2-5.2,1.42-1.41L453,610l-7.48-7.48L454.26,590m-.49-2.78-10.85,15.49,8.67,8.67-6.89,6.89,16.59,11.61,11.62-16.59-8.83-4.11,5.18-11.12-15.49-10.84Z" transform="translate(-70.86 -70.87)"/><polygon class="cls-3" points="440.11 528.45 444.15 519.79 432.89 514.54 437.31 498.05 453.8 502.47 452.72 514.84 462.23 515.68 457.56 533.12 440.11 528.45"/><path d="M508.88,570.15l14.72,4-.92,10.54-.18,2,2,.17,7.33.65-4.11,15.32-15.32-4.11L515.5,592l.84-1.82-1.81-.84-9.59-4.48,3.94-14.71m-1.41-2.45L502.58,586l11.1,5.18L509.57,600l19.56,5.24,5.24-19.56-9.7-.85,1.07-12.21-18.27-4.9Z" transform="translate(-70.86 -70.87)"/><polygon class="cls-3" points="495.32 479.1 482.95 478.01 481.46 461.01 498.47 459.52 501.69 471.51 510.91 469.04 512.49 487.03 494.49 488.61 495.32 479.1"/><path d="M568.59,531.46l2.74,10.22.51,1.93,1.93-.52,7.11-1.9L582.27,557l-15.81,1.38.64-7.33.17-2-2-.17L554.74,548l-1.33-15.18,15.18-1.33m1.49-2.14L551.24,531l1.65,18.84,12.21,1.07-.84,9.7,20.18-1.76-1.77-20.18-9.41,2.52-3.18-11.84Z" transform="translate(-70.86 -70.87)"/><polygon class="cls-3" points="529.49 423.35 517.5 426.56 510.28 411.09 525.75 403.87 532.88 414.05 540.7 408.57 548.33 424.94 531.96 432.57 529.49 423.35"/><path d="M596.28,476l6.07,8.67,1.15,1.63,1.64-1.14,6-4.22,6.71,14.38L603.49,502l-1.91-7.1-.51-1.93-1.94.51-10.21,2.74-6.45-13.81L596.28,476m.68-2.52-17.14,8,8,17.14,11.84-3.17,2.52,9.4,18.36-8.55L612,477.94l-8,5.59-7-10Z" transform="translate(-70.86 -70.87)"/><polygon class="cls-3" points="542.54 359.28 532.36 366.4 520.29 354.33 532.36 342.25 542.54 349.38 548.01 341.56 560.79 354.33 548.01 367.1 542.54 359.28"/><path d="M619,414l11.23,11.22L619,436.43l-4.21-6-1.15-1.64L612,429.91,603.34,436,592.57,425.2l10.77-10.77L612,420.5l1.64,1.15L614.8,420l4.21-6m-.27-3.1-5.58,8-10-7L589.74,425.2l13.37,13.38,10-7,5.58,8,14.33-14.33-14.33-14.32Z" transform="translate(-70.86 -70.87)"/><polygon class="cls-3" points="510.28 297.56 517.5 282.09 529.49 285.31 531.96 276.08 548.33 283.72 540.7 300.09 532.88 294.61 525.75 304.78 510.28 297.56"/><path d="M603.49,348.37l14.38,6.71-6.71,14.38-6-4.22-1.64-1.15-1.15,1.64-6.07,8.66L582.47,368l6.44-13.81,10.22,2.74,1.94.51.51-1.93,1.91-7.1m-1.32-2.82-2.52,9.4-11.84-3.17-8,17.14,17.14,8,7-10,8,5.58,8.56-18.35-18.36-8.56Z" transform="translate(-70.86 -70.87)"/><path class="cls-1" d="M542.49,435.46l10.26-10.26-10.26-10.26,8.33-11.89-11.89-8.33,6.13-13.15-13.15-6.13,3.76-14-14-3.76,1.26-14.45-14.46-1.27-1.26-14.46-14.46,1.27-3.76-14-14,3.76-6.14-13.16-13.15,6.14-8.32-11.89-11.89,8.32L425.2,297.64,414.93,307.9l-11.88-8.32-8.33,11.89-13.15-6.14-6.14,13.16-14-3.76-3.76,14-14.46-1.27-1.26,14.46-14.46,1.27,1.27,14.45-14,3.76,3.75,14-13.15,6.13,6.13,13.15-11.88,8.33,8.32,11.89L297.64,425.2l10.26,10.26-8.32,11.89,11.88,8.32-6.13,13.16L318.48,475l-3.75,14,14,3.76-1.27,14.45,14.46,1.27,1.26,14.45,14.46-1.26,3.76,14,14-3.76,6.14,13.15,13.15-6.13,8.33,11.89,11.88-8.33,10.27,10.27,10.26-10.27,11.89,8.33,8.32-11.89,13.15,6.13L475,531.91l14,3.76,3.76-14,14.46,1.26,1.26-14.45,14.46-1.27-1.26-14.45,14-3.76-3.76-14,13.15-6.13-6.13-13.16,11.89-8.32Zm7.42-10.26-8.59,8.59L538,429l-6,4.21-8-8,8-8,6,4.21,3.35-4.78ZM548,403.54l-7,10-4.13-4.14-5.2,5.21-9.3-6.52,6.51-9.29,6.67,3.11,2.47-5.3Zm-5.63-21-5.13,11-4.79-3.36-4.22,6L518,391.43l4.79-10.28,7.11,1.9,1.51-5.64ZM521.47,359.7l11.74,3.14-3.15,11.74-5.3-2.47-3.11,6.66-10.95-2.93,2.93-11,7.33.64Zm-12.33-9.9-.51-5.83L520.74,345l-1.06,12.11L514,355.62l-1.9,7.11-11.31-1,1-11.3Zm-15.88-19.08,12.1-1.06,1.06,12.1-5.82-.5-.64,7.32-11.3,1-1-11.3,7.1-1.91Zm-17.44-10.39,11.74-3.14,3.14,11.74-5.82.51.64,7.32-11,2.94-2.94-11,6.67-3.11Zm-15.63-2.41-3.35-4.78,11-5.14L473,319l-5.65,1.51,1.91,7.1L459,332.43l-4.79-10.29Zm-23.29-8.57,10-7,7,9.95-5.3,2.47,3.11,6.66L442.34,328l-6.51-9.29,5.2-5.2Zm-11.7-8.87,8.59,8.59L429,312.42l4.22,6-8,8-8-8,4.22-6-4.79-3.35Zm-21.66,1.9,9.95,7-4.13,4.13,5.2,5.2L408.05,328l-9.29-6.51,3.11-6.66-5.3-2.47Zm-21,5.62,11,5.14-3.35,4.78,6,4.22-4.79,10.29-10.29-4.8,1.91-7.1L377.4,319Zm-19.71,9.19,11.74,3.14-2.47,5.3,6.67,3.11-2.94,11-11-2.94.64-7.32-5.82-.51ZM345,329.66l12.1,1.06-1.51,5.64,7.11,1.91-1,11.3-11.31-1-.64-7.32-5.82.5ZM341.76,344l-.51,5.83,7.33.64,1,11.3-11.3,1-1.91-7.11-5.64,1.52L329.66,345Zm-24.57,18.87,11.73-3.14.51,5.82,7.33-.64,2.94,11-11,2.93-3.11-6.66-5.3,2.47ZM308,382.54l11-5.13,1.51,5.64,7.11-1.9,4.8,10.28-10.29,4.8-4.22-6-4.79,3.36Zm-5.63,21,10-7,2.47,5.3,6.66-3.11,6.51,9.29-9.3,6.51-5.19-5.2-4.14,4.14Zm-1.89,21.66,8.59-8.59,3.35,4.78,6-4.21,8,8-8,8-6-4.21-3.35,4.78Zm1.89,21.66,7-10,4.14,4.14,5.19-5.21,9.3,6.51-6.51,9.3-6.66-3.11-2.47,5.3Zm5.63,21,5.13-11,4.79,3.36,4.22-6,10.29,4.8-4.8,10.28-7.11-1.91L319,473Zm20.92,22.84-11.73-3.14,3.14-11.74,5.3,2.47,3.11-6.66,11,2.93-2.94,11-7.33-.64Zm12.33,9.9.51,5.83-12.1-1.06,1.06-12.11,5.64,1.52,1.91-7.11,11.3,1-1,11.3Zm15.88,19.08L345,520.74,344,508.63l5.82.51.64-7.33,11.31-1,1,11.3L355.62,514Zm17.44,10.38-11.74,3.15-3.14-11.74,5.82-.51-.64-7.32,11-2.94,2.94,11-6.67,3.1Zm15.63,2.42,3.35,4.78-11,5.14-5.14-11,5.65-1.51-1.91-7.1,10.29-4.8,4.79,10.29Zm23.29,8.57-9.95,7-7-9.95,5.3-2.47-3.11-6.67,9.29-6.51,6.51,9.3-5.2,5.2Zm11.71,8.87-8.6-8.6,4.79-3.35-4.22-6,8-8,8,8L429,538l4.79,3.35Zm9.19-19.64-9.19-9.2-9.2,9.2-7.45-10.65-10.66,7.46L392.4,515.3l-11.78,5.5-3.37-12.56-12.55,3.37-1.14-13-12.95,1.13,1.13-12.95-12.95-1.13,3.37-12.56-12.56-3.36L335.09,458l-11.78-5.49,7.46-10.65-10.65-7.46,9.19-9.19L320.12,416l10.65-7.46-7.46-10.65,11.78-5.5-5.49-11.78,12.56-3.36-3.37-12.56,12.95-1.13-1.13-13,12.95,1.14,1.14-13,12.55,3.37,3.37-12.56,11.78,5.5,5.49-11.79,10.66,7.46L416,320.12l9.2,9.2,9.19-9.2,7.46,10.65,10.65-7.46L458,335.1l11.79-5.5,3.36,12.56,12.56-3.37,1.13,13,12.95-1.14-1.13,13,13,1.13-3.36,12.56,12.55,3.36L515.3,392.4l11.78,5.5-7.46,10.65L530.28,416l-9.2,9.19,9.2,9.19-10.66,7.46,7.46,10.65L515.3,458l5.49,11.79-12.55,3.36,3.36,12.56-13,1.13,1.13,12.95-12.95-1.13-1.13,13-12.56-3.37-3.36,12.56L458,515.3l-5.49,11.79-10.65-7.46ZM446.85,548l-10-7,4.13-4.13-5.2-5.2,6.51-9.3,9.29,6.51-3.11,6.67,5.3,2.47Zm21-5.62-11-5.14,3.35-4.78-6-4.22L459,518l10.29,4.8-1.91,7.1,5.65,1.51Zm19.71-9.19-11.74-3.15,2.47-5.3-6.67-3.1,2.94-11,11,2.94-.64,7.32,5.82.51Zm17.8-12.47-12.1-1.06,1.51-5.64-7.1-1.91,1-11.3,11.3,1,.64,7.33,5.82-.51Zm3.27-14.31.51-5.83-7.33-.64-1-11.3,11.31-1,1.9,7.11,5.65-1.52,1.06,12.11Zm24.58-18.87-11.74,3.14-.51-5.82-7.33.64-2.93-11,11-2.93,3.1,6.66,5.3-2.47Zm9.18-19.7-11,5.13-1.51-5.65-7.11,1.91L518,459l10.28-4.8,4.22,6,4.79-3.36Zm-4.32-14-2.47-5.3-6.67,3.11-6.51-9.3,9.3-6.51,5.2,5.21,4.13-4.14,7,10Z" transform="translate(-70.86 -70.87)"/><polygon class="cls-2" points="295.08 265.14 295.73 257.65 290.1 257.16 292.68 247.54 302.3 250.12 299.91 255.24 306.73 258.42 304.26 267.6 295.08 265.14"/><path d="M364.25,319.64l7.5,2-1.46,3.14-.84,1.81,1.81.85,5.15,2.39-2,7.41-7.41-2,.5-5.66.17-2-2-.17-3.45-.31,2-7.5m-1.42-2.45-3.14,11.74,5.82.51-.64,7.32,11,2.94,2.94-11-6.67-3.11,2.47-5.3-11.74-3.14Z" transform="translate(-70.86 -70.87)"/><polygon class="cls-2" points="266.2 283.52 260.74 284.99 259.88 275.07 269.8 274.2 269.31 279.83 276.79 280.49 277.62 289.96 268.15 290.79 266.2 283.52"/><path d="M339.56,346.17l-.3,3.45-.17,2,2,.18,5.65.49.67,7.64-7.64.67-1.47-5.48-.52-1.94-1.93.52-3.34.9-.68-7.74,7.74-.68m2.2-2.2L329.66,345l1.06,12.11,5.64-1.52,1.91,7.11,11.3-1-1-11.3-7.33-.64.51-5.83Z" transform="translate(-70.86 -70.87)"/><polygon class="cls-2" points="247.3 317.94 242.67 321.18 238.46 312.15 247.49 307.94 248.95 313.4 256.21 311.46 260.23 320.07 251.61 324.09 247.3 317.94"/><path d="M317.7,380.23l.89,3.34.52,1.93L321,385l5.48-1.47,3.25,7-6.95,3.24-3.26-4.65-1.15-1.64-1.64,1.15-2.83,2-3.28-7,7-3.28m1.31-2.82-11,5.13,5.13,11,4.79-3.36,4.22,6,10.29-4.8-4.8-10.28-7.11,1.9L319,377.41Z" transform="translate(-70.86 -70.87)"/><polygon class="cls-2" points="231.03 354.33 238.07 347.28 241.31 351.91 247.47 347.6 254.19 354.33 247.47 361.05 241.31 356.74 238.07 361.37 231.03 354.33"/><path d="M308.8,419.71l2,2.83,1.15,1.64,1.64-1.15,4.65-3.25,5.42,5.42-5.42,5.42-4.65-3.25-1.64-1.15-1.15,1.64-2,2.83-5.5-5.49,5.5-5.49m.27-3.1-8.59,8.59,8.59,8.59,3.35-4.78,6,4.21,8-8-8-8-6,4.21-3.35-4.78Z" transform="translate(-70.86 -70.87)"/><polygon class="cls-2" points="238.47 396.5 242.67 387.47 247.3 390.71 251.61 384.56 260.23 388.58 256.21 397.19 248.95 395.25 247.49 400.7 238.47 396.5"/><path d="M322.82,456.69l6.95,3.24-3.25,6.95L321,465.41l-1.93-.52-.52,1.94-.89,3.34-7-3.28,3.28-7,2.83,2,1.64,1.15,1.15-1.64,3.26-4.65m-.68-2.52-4.22,6-4.79-3.36-5.13,11L319,473l1.51-5.65,7.11,1.91,4.8-10.28-10.29-4.8Z" transform="translate(-70.86 -70.87)"/><polygon class="cls-2" points="259.88 433.58 260.74 423.66 266.2 425.13 268.15 417.87 277.62 418.69 276.79 428.17 269.31 428.82 269.8 434.45 259.88 433.58"/><path d="M339.76,489.81l7.64.66-.67,7.65-5.65.49-2,.18.17,2,.3,3.45-7.74-.68.68-7.74,3.34.9,1.93.52.52-1.94,1.47-5.48m-1.49-2.14-1.91,7.11-5.64-1.52-1.06,12.11,12.1,1.06-.51-5.83,7.33-.64,1-11.3-11.3-1Z" transform="translate(-70.86 -70.87)"/><polygon class="cls-2" points="290.1 451.49 295.73 451 295.08 443.51 304.26 441.05 306.73 450.23 299.91 453.4 302.3 458.53 292.68 461.11 290.1 451.49"/><path d="M374.42,513.15l2,7.4-5.15,2.4-1.81.85.84,1.81,1.46,3.14-7.5,2-2-7.5,3.45-.31,2-.17-.17-2-.5-5.66,7.41-2m1.41-2.45-11,2.94.64,7.32-5.82.51,3.14,11.74,11.74-3.15-2.47-5.3,6.67-3.1-2.94-11Z" transform="translate(-70.86 -70.87)"/><polygon class="cls-2" points="327.21 467.6 332.33 465.21 329.15 458.4 336.94 452.94 342.4 460.73 337.08 466.05 341.08 470.04 332.92 475.76 327.21 467.6"/><path d="M407.56,525.21l4.4,6.28-4,4-1.42,1.41,1.42,1.42,2.44,2.44L404,545.24l-4.45-6.37,3.13-1.46,1.81-.84-.84-1.82-2.4-5.14,6.28-4.4m.49-2.79-9.29,6.51,3.11,6.67-5.3,2.47,7,9.95,9.95-7-4.13-4.13,5.2-5.2-6.51-9.3Z" transform="translate(-70.86 -70.87)"/><polygon class="cls-2" points="367.59 470.04 371.58 466.05 366.27 460.73 371.72 452.94 379.51 458.4 376.33 465.21 381.46 467.6 375.74 475.76 367.59 470.04"/><path d="M442.83,525.21l6.28,4.4-2.4,5.14-.84,1.82,1.81.84,3.14,1.47-4.46,6.36L440,540.78l2.45-2.44,1.41-1.42-1.41-1.41-4-4,4.4-6.28m-.49-2.79-6.51,9.3,5.2,5.2-4.13,4.13,10,7,7-9.95-5.3-2.47,3.11-6.67-9.29-6.51Z" transform="translate(-70.86 -70.87)"/><polygon class="cls-2" points="406.36 458.53 408.75 453.4 401.94 450.23 404.4 441.05 413.58 443.51 412.93 451 418.56 451.49 415.98 461.11 406.36 458.53"/><path d="M476,513.15l7.41,2-.5,5.66-.17,2,2,.17,3.45.31-2,7.5-7.5-2,1.46-3.14.85-1.81-1.82-.85-5.14-2.4,2-7.4m-1.41-2.45-2.94,11,6.67,3.1-2.47,5.3,11.74,3.15,3.14-11.74-5.82-.51.64-7.32-11-2.94Z" transform="translate(-70.86 -70.87)"/><polygon class="cls-2" points="439.36 428.82 431.87 428.17 431.04 418.69 440.52 417.87 442.46 425.13 447.92 423.66 448.79 433.58 438.87 434.45 439.36 428.82"/><path d="M510.63,489.81l1.47,5.48.52,1.94,1.93-.52,3.34-.9.68,7.74-7.74.68.3-3.45.18-2-2-.18-5.65-.49-.67-7.65,7.64-.66m1.5-2.14-11.31,1,1,11.3,7.33.64-.51,5.83,12.11-1.06-1.06-12.11L514,494.78l-1.9-7.11Z" transform="translate(-70.86 -70.87)"/><polygon class="cls-2" points="459.71 395.25 452.45 397.19 448.43 388.58 457.05 384.56 461.36 390.71 465.99 387.47 470.2 396.5 461.17 400.7 459.71 395.25"/><path d="M527.58,456.69l3.25,4.65L532,463l1.64-1.15,2.83-2,3.29,7-7,3.28-.9-3.34-.52-1.93-1.93.51-5.48,1.47-3.24-6.95,7-3.24m.67-2.52L518,459l4.79,10.28,7.11-1.91,1.51,5.65,11-5.13-5.13-11-4.79,3.36-4.22-6Z" transform="translate(-70.86 -70.87)"/><polygon class="cls-2" points="467.35 356.74 461.2 361.05 454.47 354.33 461.2 347.6 467.35 351.91 470.6 347.28 477.64 354.33 470.6 361.37 467.35 356.74"/><path d="M541.6,419.71l5.49,5.49-5.49,5.49-2-2.83-1.15-1.64-1.63,1.15-4.66,3.25-5.42-5.42,5.42-5.42,4.66,3.25,1.63,1.15,1.15-1.64,2-2.83m-.28-3.1L538,421.39l-6-4.21-8,8,8,8,6-4.21,3.35,4.78,8.59-8.59-8.59-8.59Z" transform="translate(-70.86 -70.87)"/><polygon class="cls-2" points="448.43 320.07 452.45 311.46 459.71 313.4 461.17 307.94 470.2 312.15 465.99 321.18 461.36 317.94 457.05 324.1 448.43 320.07"/><path d="M532.7,380.23l7,3.28-3.29,7-2.83-2L532,387.42l-1.15,1.64-3.25,4.65-7-3.24,3.24-7,5.48,1.47,1.93.52.52-1.93.9-3.34m-1.32-2.82-1.51,5.64-7.11-1.9L518,391.43l10.28,4.8,4.22-6,4.79,3.36,5.13-11-11-5.13Z" transform="translate(-70.86 -70.87)"/><polygon class="cls-2" points="431.04 289.96 431.87 280.49 439.36 279.83 438.87 274.2 448.79 275.07 447.92 284.99 442.46 283.52 440.52 290.79 431.04 289.96"/><path d="M510.83,346.17l7.74.68-.68,7.74-3.34-.9-1.93-.52-.52,1.94-1.47,5.48-7.64-.67.67-7.64,5.65-.49,2-.18-.18-2-.3-3.45m-2.2-2.2.51,5.83-7.33.64-1,11.3,11.31,1,1.9-7.11,5.65,1.52L520.74,345,508.63,344Z" transform="translate(-70.86 -70.87)"/><polygon class="cls-2" points="401.94 258.42 408.75 255.24 406.37 250.12 415.98 247.54 418.56 257.16 412.93 257.65 413.59 265.14 404.4 267.6 401.94 258.42"/><path d="M486.14,319.64l2,7.5-3.45.31-2,.17.17,2,.5,5.66-7.41,2-2-7.41,5.14-2.39,1.82-.85-.85-1.81-1.46-3.14,7.5-2m1.42-2.45-11.74,3.14,2.47,5.3-6.67,3.11,2.94,11,11-2.94-.64-7.32,5.82-.51-3.14-11.74Z" transform="translate(-70.86 -70.87)"/><polygon class="cls-2" points="366.27 247.92 371.58 242.6 367.59 238.61 375.74 232.9 381.46 241.05 376.33 243.44 379.51 250.25 371.72 255.71 366.27 247.92"/><path d="M446.36,305.16l4.46,6.36L447.68,313l-1.81.84.84,1.82,2.4,5.14-6.28,4.4-4.4-6.29,4-4,1.41-1.42-1.41-1.41L440,309.62l6.36-4.46m.49-2.78-10,7,4.13,4.13-5.2,5.2,6.51,9.29,9.29-6.51-3.11-6.66,5.3-2.47-7-9.95Z" transform="translate(-70.86 -70.87)"/><polygon class="cls-2" points="329.15 250.25 332.33 243.44 327.21 241.05 332.92 232.9 341.08 238.61 337.08 242.6 342.4 247.92 336.94 255.71 329.15 250.25"/><path d="M404,305.16l6.36,4.46L408,312.06l-1.42,1.41,1.42,1.42,4,4-4.4,6.29-6.28-4.4,2.4-5.14.84-1.82-1.81-.84-3.13-1.46,4.45-6.37m-.49-2.78-7,9.95,5.3,2.47-3.11,6.66,9.29,6.51,6.51-9.29-5.2-5.2,4.13-4.13-9.95-7Z" transform="translate(-70.86 -70.87)"/><polygon class="cls-3" points="280.49 276.79 279.84 269.3 274.2 269.79 275.07 259.87 284.99 260.74 283.53 266.2 290.79 268.14 289.96 277.61 280.49 276.79"/><path d="M346.85,331.82l7.73.68-.89,3.35-.52,1.93,1.93.52,5.49,1.47-.67,7.64-7.64-.67-.5-5.66-.17-2-2,.17-3.45.3.68-7.74M345,329.66,344,341.76l5.82-.5.64,7.32,11.31,1,1-11.3-7.11-1.91,1.51-5.64L345,329.66Z" transform="translate(-70.86 -70.87)"/><polygon class="cls-3" points="255.25 299.9 250.12 302.29 247.55 292.67 257.17 290.1 257.66 295.73 265.15 295.07 267.61 304.26 258.42 306.72 255.25 299.9"/><path d="M327.14,362.24l.3,3.45.17,2,2-.17,5.66-.5,2,7.41-7.41,2-2.4-5.15-.84-1.81-1.82.85-3.13,1.46-2-7.5,7.5-2m1.78-2.54-11.73,3.14,3.14,11.74,5.3-2.47,3.11,6.66,11-2.93-2.94-11-7.33.64-.51-5.82Z" transform="translate(-70.86 -70.87)"/><polygon class="cls-3" points="242.61 337.07 238.61 341.07 232.9 332.91 241.06 327.2 243.45 332.32 250.26 329.15 255.71 336.93 247.92 342.39 242.61 337.07"/><path d="M311.52,399.58l1.46,3.13.85,1.82,1.81-.85,5.15-2.4,4.39,6.28L318.9,412l-4-4-1.41-1.41L312.06,408l-2.45,2.45L305.16,404l6.36-4.45m.81-3-10,7,7,10,4.14-4.14,5.19,5.2,9.3-6.51-6.51-9.29-6.66,3.11-2.47-5.3Z" transform="translate(-70.86 -70.87)"/><polygon class="cls-3" points="232.9 375.74 238.61 367.58 242.61 371.58 247.92 366.26 255.71 371.71 250.26 379.5 243.45 376.33 241.06 381.45 232.9 375.74"/><path d="M318.9,438.44l6.28,4.39-4.39,6.29-5.15-2.4-1.81-.85-.85,1.82-1.46,3.13-6.36-4.45,4.45-6.37,2.45,2.45,1.42,1.42,1.41-1.42,4-4m-.23-2.61L313.48,441l-4.14-4.14-7,10,10,7,2.47-5.3,6.66,3.11,6.51-9.3-9.3-6.51Z" transform="translate(-70.86 -70.87)"/><polygon class="cls-3" points="247.55 415.98 250.12 406.35 255.25 408.74 258.42 401.93 267.61 404.39 265.15 413.58 257.66 412.92 257.17 418.56 247.55 415.98"/><path d="M329.84,474l7.41,2-2,7.4-5.66-.49-2-.18-.17,2-.3,3.45-7.5-2,2-7.5,3.13,1.46,1.82.85.84-1.82,2.4-5.14m-1.1-2.37-3.11,6.67-5.3-2.47-3.14,11.74,11.73,3.14.51-5.82,7.33.64,2.94-11-11-2.94Z" transform="translate(-70.86 -70.87)"/><polygon class="cls-3" points="274.21 438.86 279.84 439.35 280.49 431.86 289.96 431.04 290.79 440.51 283.53 442.45 284.99 447.91 275.07 448.78 274.21 438.86"/><path d="M359.92,503l.67,7.64-5.49,1.47-1.93.52.52,1.93.89,3.35-7.73.67-.68-7.74,3.45.31,2,.17.17-2,.5-5.66,7.64-.67m1.82-2.16-11.31,1-.64,7.33-5.82-.51L345,520.74l12.1-1.06L355.62,514l7.11-1.91-1-11.3Z" transform="translate(-70.86 -70.87)"/><polygon class="cls-3" points="307.95 461.17 313.41 459.7 311.46 452.44 320.08 448.43 324.1 457.04 317.94 461.36 321.19 465.98 312.16 470.19 307.95 461.17"/><path d="M390.46,520.63l3.24,7-4.65,3.26L387.42,532l1.14,1.64,2,2.83-7,3.29-3.29-7,3.35-.9,1.93-.51-.52-1.94-1.47-5.48,6.95-3.24m1-2.66-10.29,4.8,1.91,7.1-5.65,1.51,5.14,11,11-5.14-3.35-4.78,6-4.22L391.43,518Z" transform="translate(-70.86 -70.87)"/><polygon class="cls-3" points="347.29 470.59 351.92 467.34 347.61 461.19 354.33 454.46 361.06 461.19 356.75 467.34 361.37 470.59 354.33 477.63 347.29 470.59"/><path d="M425.2,526.75l5.42,5.43-3.26,4.64-1.14,1.64,1.63,1.15,2.84,2-5.49,5.5-5.5-5.49,2.84-2,1.64-1.15L423,536.82l-3.26-4.64,5.43-5.43m0-2.82-8,8,4.22,6-4.79,3.35,8.6,8.6,8.59-8.6L429,538l4.22-6-8-8Z" transform="translate(-70.86 -70.87)"/><polygon class="cls-3" points="387.48 465.98 390.72 461.36 384.56 457.04 388.58 448.43 397.2 452.44 395.25 459.7 400.71 461.17 396.5 470.19 387.48 465.98"/><path d="M459.93,520.63l6.95,3.24-1.47,5.48-.52,1.94,1.93.51,3.35.9-3.28,7-7-3.29,2-2.83L463,532l-1.64-1.14-4.65-3.26,3.24-7M459,518l-4.79,10.29,6,4.22-3.35,4.78,11,5.14,5.14-11-5.65-1.51,1.91-7.1L459,518Z" transform="translate(-70.86 -70.87)"/><polygon class="cls-3" points="423.67 447.91 425.13 442.45 417.87 440.51 418.7 431.04 428.17 431.86 428.83 439.35 434.46 438.86 433.59 448.78 423.67 447.91"/><path d="M490.47,503l7.64.67.5,5.66.17,2,2-.17,3.44-.31-.67,7.74-7.74-.67.89-3.35.52-1.93-1.93-.52-5.48-1.47.66-7.64m-1.81-2.16-1,11.3,7.1,1.91-1.51,5.64,12.1,1.06,1.06-12.11-5.82.51-.64-7.33-11.3-1Z" transform="translate(-70.86 -70.87)"/><polygon class="cls-3" points="451 412.92 443.51 413.58 441.06 404.39 450.24 401.93 453.42 408.74 458.54 406.36 461.12 415.98 451.5 418.56 451 412.92"/><path d="M520.55,474l2.4,5.14.85,1.82,1.81-.85,3.14-1.46,2,7.5-7.51,2-.3-3.45-.17-2-2,.18-5.66.49-2-7.4,7.41-2m1.11-2.36-11,2.93,2.93,11,7.33-.64.51,5.82,11.74-3.14-3.15-11.74-5.3,2.47-3.1-6.66Z" transform="translate(-70.86 -70.87)"/><polygon class="cls-3" points="465.22 376.33 458.4 379.5 452.95 371.71 460.74 366.26 466.05 371.58 470.05 367.58 475.76 375.74 467.6 381.45 465.22 376.33"/><path d="M531.49,438.44l4,4,1.42,1.41,1.41-1.41,2.45-2.45,4.45,6.37-6.36,4.45-1.46-3.13-.85-1.82-1.81.85-5.14,2.4-4.4-6.29,6.28-4.39m.23-2.61-9.3,6.51,6.51,9.3,6.67-3.11,2.47,5.3,9.95-7-7-10L536.92,441l-5.2-5.21Z" transform="translate(-70.86 -70.87)"/><polygon class="cls-3" points="452.95 336.93 458.4 329.15 465.22 332.32 467.6 327.2 475.76 332.91 470.05 341.07 466.05 337.07 460.74 342.39 452.95 336.93"/><path d="M538.87,399.58l6.36,4.45-4.45,6.37L538.33,408l-1.41-1.41L535.5,408l-4,4-6.28-4.4,4.4-6.28,5.14,2.4,1.81.85.85-1.82,1.46-3.13m-.8-3-2.47,5.3-6.67-3.11-6.51,9.29,9.3,6.52,5.2-5.21,4.13,4.14,7-10-9.95-7Z" transform="translate(-70.86 -70.87)"/><polygon class="cls-3" points="441.06 304.26 443.52 295.07 451 295.73 451.5 290.1 461.12 292.67 458.54 302.29 453.42 299.9 450.24 306.71 441.06 304.26"/><path d="M523.25,362.24l7.51,2-2,7.5-3.14-1.46-1.81-.85-.85,1.81-2.4,5.15-7.4-2,2-7.41,5.65.5,2,.17.17-2,.3-3.45m-1.78-2.54-.51,5.82-7.33-.64-2.93,11,10.95,2.93,3.11-6.66,5.3,2.47,3.15-11.74-11.74-3.14Z" transform="translate(-70.86 -70.87)"/><polygon class="cls-3" points="417.87 268.14 425.13 266.2 423.67 260.74 433.59 259.87 434.46 269.79 428.83 269.3 428.17 276.79 418.7 277.61 417.87 268.14"/><path d="M503.55,331.82l.67,7.74-3.44-.3-2-.17-.17,2-.5,5.66-7.64.67-.66-7.64,5.48-1.47,1.93-.52-.52-1.93-.89-3.35,7.74-.68m1.81-2.16-12.1,1.06,1.51,5.64-7.1,1.91,1,11.3,11.3-1,.64-7.32,5.82.5-1.06-12.1Z" transform="translate(-70.86 -70.87)"/><polygon class="cls-3" points="384.56 251.61 390.72 247.3 387.48 242.66 396.5 238.46 400.71 247.48 395.25 248.95 397.2 256.2 388.58 260.23 384.56 251.61"/><path d="M466.89,310.66l3.28,7-3.35.9-1.93.51.52,1.94,1.47,5.48-6.95,3.24-3.24-6.95,4.65-3.26,1.64-1.14-1.15-1.64-2-2.84,7-3.28m1-2.66-11,5.14,3.35,4.78-6,4.22L459,332.43l10.29-4.8-1.91-7.1L473,319l-5.14-11Z" transform="translate(-70.86 -70.87)"/><polygon class="cls-3" points="347.61 247.46 351.92 241.3 347.29 238.06 354.33 231.02 361.38 238.06 356.75 241.3 361.06 247.46 354.33 254.19 347.61 247.46"/><path d="M425.2,303.31l5.49,5.49-2.83,2-1.64,1.14,1.14,1.64,3.26,4.65-5.42,5.43-5.43-5.43,3.26-4.65,1.15-1.64-1.64-1.14-2.84-2,5.5-5.49m0-2.83-8.6,8.59,4.79,3.35-4.22,6,8,8,8-8-4.22-6,4.79-3.35-8.59-8.59Z" transform="translate(-70.86 -70.87)"/><polygon class="cls-3" points="311.46 256.21 313.41 248.95 307.95 247.48 312.16 238.46 321.19 242.66 317.94 247.3 324.1 251.61 320.08 260.23 311.46 256.21"/><path d="M383.51,310.66l7,3.28-2,2.84-1.14,1.64,1.63,1.14,4.65,3.26-3.24,6.95-6.95-3.24,1.47-5.48.52-1.94-1.93-.51-3.35-.9,3.29-7m-1-2.66-5.14,11,5.65,1.51-1.91,7.1,10.29,4.8,4.79-10.29-6-4.22,3.35-4.78-11-5.14Z" transform="translate(-70.86 -70.87)"/></svg>