<svg id="Layer_4" data-name="Layer 4" xmlns="http://www.w3.org/2000/svg" viewBox="0 0 737.12 736.98"><defs><style>.cls-1,.cls-3{fill:#fff;}.cls-1,.cls-2,.cls-3{stroke:#1e1e1e;stroke-miterlimit:10;}.cls-1,.cls-2{stroke-width:30px;}.cls-2{fill:#00ffa6;}.cls-3{stroke-width:20px;}</style></defs><path class="cls-1" d="M430.89,430.89C345,385.55,248.77,360.84,154,361.17c-40.74.14-68.26-41.9-51.95-79.24A347.64,347.64,0,0,1,175,175c1.34-1.34,2.67-2.66,4-4a56.74,56.74,0,0,1,76.56-2.34c80.18,68.76,141,159.14,175.29,262.15Z" transform="translate(-56.7 -56.56)"/><path class="cls-2" d="M430.9,430.88c31.54-95.91,46.16-202.2,37.85-303.58-2.34-28.51,24.44-50.47,52-42.82A351.78,351.78,0,0,1,676.13,175l.25.25a40.89,40.89,0,0,1,3.06,53.93c-65.35,84-153.22,150.25-248.54,201.68Z" transform="translate(-56.7 -56.56)"/><path class="cls-2" d="M430.88,430.92C395.5,516.33,377.28,613,380.94,707.57c1.43,37.06-34.75,64.35-70,52.71A344.26,344.26,0,0,1,175,676.13l-.34-.35a53.45,53.45,0,0,1-3-71.94c65.44-78.6,154.73-138.29,259.19-172.92Z" transform="translate(-56.7 -56.56)"/><path class="cls-1" d="M675.37,675.36c-.09.09-.19.18-.28.28a42.26,42.26,0,0,1-58.25,1.23c-78.79-71.92-135.71-155-185.94-246h0c91.52,26.24,192.75,43.85,291,39.18a42.43,42.43,0,0,1,42.88,54.06A349.6,349.6,0,0,1,675.37,675.36Z" transform="translate(-56.7 -56.56)"/><path class="cls-1" d="M725,469.92c-99.19,5.19-201.59-12.51-294.08-39C513.74,386.19,591,330.26,652.67,261.26c26.93-30.11,76.1-22.95,93.28,13.61a347.49,347.49,0,0,1,32.84,136.86A56.66,56.66,0,0,1,725,469.92Z" transform="translate(-56.7 -56.56)"/><path class="cls-1" d="M99.25,563.3A343.19,343.19,0,0,1,71.9,416.56a56.6,56.6,0,0,1,53.36-54.51c103.88-6,211,18.9,305.63,68.84h0C336.42,462.38,255.43,512.94,192.66,580,164.72,609.86,115.34,600.88,99.25,563.3Z" transform="translate(-56.7 -56.56)"/><path class="cls-2" d="M430.89,430.89c-31-93.06-83.6-175.81-152.59-241.62-30-28.57-19.79-78.56,18.71-93.77A346.56,346.56,0,0,1,409.48,71.61a56.64,56.64,0,0,1,58.91,51.46C477.46,225.73,462.88,333.64,430.89,430.89Z" transform="translate(-56.7 -56.56)"/><path class="cls-2" d="M576.57,745.16A347.7,347.7,0,0,1,440.19,778.5c-30.53,1.09-56.2-22.53-58.29-53-6.86-100.21,11.36-203.78,49-294.6,44.92,81.34,95.18,156.38,161.65,222.77C620.38,681.47,612.13,728.31,576.57,745.16Z" transform="translate(-56.7 -56.56)"/><circle class="cls-3" cx="374.19" cy="374.33" r="67.31"/></svg>