<svg id="Layer_4" data-name="Layer 4" xmlns="http://www.w3.org/2000/svg" viewBox="0 0 735.76 735.93"><defs><style>.cls-1{fill:#fff;}.cls-1,.cls-2,.cls-3{stroke:#1e1e1e;stroke-miterlimit:10;stroke-width:28.49px;}.cls-2{fill:#00ffa6;}.cls-3{fill:#1e1e1e;}</style></defs><path class="cls-1" d="M430.89,430.89c-109.33-57.7-235.36-82-353.8-63.77A349.23,349.23,0,0,1,175,175c13.67-13.67,27.33-25.81,43.27-35.68C317,210.71,391.41,312.45,430.89,430.89Z" transform="translate(-57.45 -57.04)"/><path class="cls-2" d="M430.89,430.89C468.1,317.76,481.76,190.21,462,73.29c78.2,8.35,154.13,41.76,214.11,101.74,8.35,8.35,15.94,17.46,23.53,26.57C632.84,298.78,536.43,374,430.89,430.89Z" transform="translate(-57.45 -57.04)"/><path class="cls-2" d="M430.89,430.89c-44,106.29-61.5,230.05-43.27,345.45-79-7.59-153.37-41-212.59-100.21a349,349,0,0,1-31.13-35.69l.76-.76C211.47,542.5,310.17,471.13,430.89,430.89Z" transform="translate(-57.45 -57.04)"/><path class="cls-1" d="M675.37,675.36c-9.11,9.11-19.74,18.22-29.61,26.58C551.61,624.5,487.07,532.63,430.89,430.89,539.46,462,661.7,481,776.35,465.06A349.56,349.56,0,0,1,675.37,675.36Z" transform="translate(-57.45 -57.04)"/><path class="cls-1" d="M776.35,465.06C661.7,481,539.46,462,430.89,430.89,536.43,374,632.84,298.78,699.66,201.6A347.94,347.94,0,0,1,776.35,465.06Z" transform="translate(-57.45 -57.04)"/><path class="cls-1" d="M144.66,639.68c-62.26-79-84.27-178.42-67.57-272.56,118.44-18.23,244.47,6.07,353.8,63.77C310.17,471.13,211.47,542.5,144.66,639.68Z" transform="translate(-57.45 -57.04)"/><path class="cls-2" d="M430.89,430.89C391.41,312.45,317,210.71,218.3,139.35,289.67,86.2,377,64.18,462,73.29,481.76,190.21,468.1,317.76,430.89,430.89Z" transform="translate(-57.45 -57.04)"/><path class="cls-2" d="M645.76,701.94c-75.17,60-168.56,85-258.14,74.4-18.23-115.4-.77-239.16,43.27-345.45C487.07,532.63,551.61,624.5,645.76,701.94Z" transform="translate(-57.45 -57.04)"/><circle class="cls-3" cx="373.44" cy="373.85" r="67.31"/></svg>