<svg id="Layer_5" data-name="Layer 5" xmlns="http://www.w3.org/2000/svg" viewBox="0 0 753.43 753.43"><defs><style>.cls-1{fill:#fff;}.cls-2{fill:#00ffa6;}</style></defs><path class="cls-1" d="M360.06,424l-38.84,11.95c-26.89,9-62.75,14.94-95.61,17.93S118.05,465.81,73.23,409c-17.92-23.9-26.89-50.79-23.9-80.67s17.93-53.78,38.84-71.7c26.89-20.92,44.82-26.89,71.71-20.92,12,56.77,59.75,92.62,80.67,110.55,26.89,20.92,59.75,44.82,83.65,56.77Z" transform="translate(-48.77 -48.76)"/><path class="cls-1" d="M366,479l-20.91,35.86c-11.95,23.9-32.87,53.77-53.78,80.66s-68.72,86.65-140.43,77.69c-29.87-3-53.78-17.93-71.7-38.84-17.93-23.91-26.89-50.8-23.9-80.67,6-35.86,14.93-50.8,35.85-65.73,29.88,20.91,65.73,23.9,95.61,23.9,14.94,0,29.87,0,41.83-3,32.86-3,71.7-9,98.59-17.93Z" transform="translate(-48.77 -48.76)"/><path class="cls-1" d="M801.64,522.58c-3,29.88-17.93,53.78-38.84,71.71C735.91,615.2,718,621.18,691.09,615.2c-12-56.77-59.76-92.62-80.67-110.55-26.89-20.91-59.75-44.81-83.66-56.76L490.91,427l38.84-12c26.89-9,62.74-14.94,95.61-17.93s107.56-11.95,152.38,44.82C795.66,465.81,804.63,492.7,801.64,522.58Z" transform="translate(-48.77 -48.76)"/><path class="cls-1" d="M792.67,294.32c-3,35.85-11.95,50.79-35.85,65.73-47.8-29.88-107.56-23.9-134.45-20.91-32.86,3-71.7,11.95-98.59,17.92L484.93,369l20.92-35.85c11.95-23.9,32.86-53.78,53.78-80.67,17.93-23.9,65.73-83.66,137.44-77.68,29.87,3,53.78,17.93,71.7,38.84C786.7,237.55,795.66,264.44,792.67,294.32Z" transform="translate(-48.77 -48.76)"/><path class="cls-2" d="M673.16,697.06c-6,59.75-59.75,101.58-119.51,95.61-35.85-3-50.79-11.95-65.73-35.86,29.88-47.8,23.9-107.56,20.92-134.45-3-32.86-11.95-71.7-17.93-98.59l-12-38.84,35.85,20.91c23.9,11.95,53.78,32.87,80.67,53.78C622.37,577.55,682.13,625.35,673.16,697.06Z" transform="translate(-48.77 -48.76)"/><path class="cls-2" d="M409.05,777.73c-23.9,17.93-50.79,26.89-80.67,23.9s-53.78-17.93-71.71-38.84c-20.91-26.89-26.89-44.82-20.91-71.71,56.77-12,92.62-59.75,110.55-80.67,20.91-26.89,44.81-59.75,56.77-83.65L424,490.9l11.95,38.84c9,26.89,14.94,62.75,17.93,95.61S462.83,732.91,409.05,777.73Z" transform="translate(-48.77 -48.76)"/><path class="cls-2" d="M369,363l-35.85-20.92c-23.9-11.95-53.78-32.86-80.67-53.78-23.9-17.92-83.66-65.73-77.68-137.43,3-29.88,17.92-53.78,38.84-71.71,23.9-17.93,53.78-26.89,80.67-23.9,35.85,6,50.79,14.94,65.73,35.85C330.18,139,336.16,198.71,339.14,225.6c3,32.87,11.95,71.71,17.93,98.6Z" transform="translate(-48.77 -48.76)"/><path class="cls-2" d="M615.21,159.87c-56.77,11.95-92.62,59.76-110.55,80.67-20.91,26.89-44.82,59.76-56.77,83.66L427,360.05l-12-38.84c-9-26.89-14.94-62.74-17.93-95.61S385.15,118,441.92,73.23c23.9-17.93,50.79-26.89,80.67-23.91s53.78,17.93,71.7,38.84C615.21,115.05,621.18,133,615.21,159.87Z" transform="translate(-48.77 -48.76)"/></svg>