<?xml version="1.0" encoding="UTF-8"?>
<svg version="1.1" xmlns="http://www.w3.org/2000/svg" width="732" height="844">
<path d="M0 0 C0.66 0 1.32 0 2 0 C10.13415627 20.14100826 18.02183578 40.37637112 25.90332031 60.6171875 C28.93330854 68.39765535 31.96982296 76.17557554 35.00604248 83.95361328 C36.670981 88.21896391 38.33546689 92.48449115 40 96.75 C40.66666451 98.45833417 41.33333118 100.16666751 42 101.875 C46 112.125 46 112.125 46.9997406 114.68699646 C47.66712641 116.39706506 48.33465798 118.10707678 49.00233459 119.81703186 C50.65919222 124.06086365 52.3135888 128.30562095 53.96264648 132.55249023 C57.07667114 140.56432283 60.21583327 148.56377919 63.43643188 156.53347778 C64.95637669 160.29880741 66.46318281 164.06933174 67.96899414 167.84033203 C68.69062746 169.63676239 69.41869236 171.43062422 70.15356445 173.22167969 C71.17214857 175.70534411 72.16823372 178.19699758 73.16015625 180.69140625 C73.4644606 181.41667007 73.76876495 182.1419339 74.08229065 182.88917542 C77.39080061 191.35743477 74.69908684 198.66389399 72.0625 206.96484375 C71.75530029 207.95165634 71.44810059 208.93846893 71.1315918 209.95518494 C70.454645 212.12687871 69.77457178 214.29759977 69.09179688 216.46746826 C67.96659654 220.04366541 66.84949487 223.62230761 65.734375 227.20166016 C64.50371663 231.15164448 63.27256618 235.10147066 62.03857422 239.05041504 C58.73324631 249.62982176 55.45437393 260.21725357 52.1875 270.80859375 C51.81318816 272.02212115 51.81318816 272.02212115 51.43131447 273.26016426 C50.144634 277.43204778 48.85832544 281.60404586 47.57217407 285.77609253 C45.99208682 290.90125434 44.41064734 296.02599823 42.82885742 301.15063477 C42.56447089 302.00719382 42.30008436 302.86375288 42.02768612 303.74626827 C41.49035121 305.48711215 40.9530139 307.22795528 40.41567421 308.96879768 C36.20521422 322.61009888 31.99672689 336.25200816 27.78933716 349.89425659 C25.78980675 356.37757876 23.78985906 362.86077218 21.78981209 369.34393501 C20.42877589 373.75585349 19.06797841 378.16784528 17.70776367 382.58001709 C6.92337075 417.56108719 6.92337075 417.56108719 2 433 C0 432 0 432 -0.89212036 429.79997253 C-1.19471771 428.82208267 -1.49731506 427.84419281 -1.80908203 426.83666992 C-2.15837265 425.72107697 -2.50766327 424.60548401 -2.86753845 423.45608521 C-3.24382889 422.22663177 -3.62011932 420.99717834 -4.0078125 419.73046875 C-4.40828603 418.44119256 -4.80942832 417.15212394 -5.2111969 415.86325073 C-6.29746734 412.3716063 -7.374127 408.87706408 -8.44906235 405.38191605 C-9.58536108 401.69294834 -10.73035561 398.0066808 -11.87426758 394.32006836 C-14.38921917 386.20882345 -16.89137626 378.09366536 -19.39076996 369.97761536 C-20.29480739 367.04302876 -21.20036502 364.10891187 -22.10595703 361.17480469 C-25.25603931 350.9667407 -28.39650969 340.75575346 -31.53125 330.54296875 C-36.40363939 314.67089814 -41.30052674 298.80639506 -46.19805813 282.9420681 C-47.84830193 277.59591193 -49.49685494 272.24923814 -51.14393139 266.90210533 C-58.26844682 243.77188675 -58.26844682 243.77188675 -65.52734375 220.68359375 C-66.15880096 218.68576997 -66.79007794 216.68788922 -67.42114258 214.68994141 C-68.51232987 211.2356575 -69.6193245 207.78707972 -70.73706055 204.34130859 C-71.20297289 202.86967547 -71.66827428 201.39784871 -72.1328125 199.92578125 C-72.52355957 198.71317627 -72.91430664 197.50057129 -73.31689453 196.2512207 C-74.60590573 190.1162092 -72.47536111 185.18557328 -70.18359375 179.54296875 C-69.8958609 178.8202478 -69.60812805 178.09752686 -69.31167603 177.35290527 C-68.68711027 175.78594199 -68.05985441 174.22004882 -67.4302063 172.65512085 C-66.06603025 169.26411862 -64.71520136 165.86784773 -63.3634491 162.47187805 C-62.65188174 160.68457616 -61.93964167 158.89754197 -61.22676086 157.11076355 C-57.45609542 147.65549687 -53.75604444 138.17309791 -50.0625 128.6875 C-49.39321997 126.97026809 -48.72386738 125.25306446 -48.05444336 123.53588867 C-46.70800405 120.08183394 -45.36192995 116.62763722 -44.01611328 113.17333984 C-41.01298013 105.4661277 -38.00497781 97.7608159 -34.99734497 90.05535889 C-34.00254899 87.50653092 -33.00795374 84.95762472 -32.01342773 82.40869141 C-28.95929323 74.58122097 -25.90431978 66.75408128 -22.84625244 58.92814636 C-15.17849497 39.30533194 -7.52673726 19.677437 0 0 Z " fill="#00FEA5" transform="translate(365,411)"/>
<path d="M0 0 C8.83782935 2.21604032 17.05032113 5.85950659 25.38687134 9.46090698 C29.83898124 11.38373223 34.2990936 13.28787579 38.7578125 15.1953125 C39.68453262 15.59235886 40.61125275 15.98940521 41.5660553 16.39848328 C51.45843526 20.63347406 61.38318499 24.79001758 71.3125 28.9375 C73.0919765 29.68135614 74.87143609 30.42525274 76.65087891 31.16918945 C80.25011759 32.67367523 83.84958487 34.17761237 87.44921875 35.68115234 C96.13508201 39.3093291 104.81933248 42.94135983 113.50302124 46.57473755 C117.08093524 48.07145218 120.65939116 49.56686924 124.237854 51.06227112 C126.67072214 52.08108327 129.10117106 53.10550594 131.53149414 54.13037109 C134.37917817 55.32925534 137.23563489 56.49868243 140.10717773 57.63916016 C146.61414974 60.25483117 151.66451272 62.6517309 156.4375 67.875 C157.11329102 68.59236328 157.11329102 68.59236328 157.80273438 69.32421875 C160.40841305 72.11786011 162.88986183 75.02173801 165.3984375 77.90234375 C168.90331498 81.91965257 172.52591535 85.81322924 176.1875 89.6875 C177.51342292 91.09597575 178.83893881 92.50483478 180.1640625 93.9140625 C180.81407227 94.60532227 181.46408203 95.29658203 182.13378906 96.00878906 C184.79247657 98.84555716 187.42981108 101.70161797 190.0625 104.5625 C194.35580767 109.2264321 198.67113413 113.86905163 203 118.5 C207.8389234 123.67696799 212.65787067 128.87148234 217.45874023 134.08374023 C221.30880049 138.26010919 225.18288738 142.41358672 229.0625 146.5625 C234.12901132 151.98146428 239.15491065 157.43452046 244.16015625 162.91015625 C247.99031271 167.08838515 251.86696357 171.2232387 255.73828125 175.36328125 C259.50701921 179.39533714 263.26087919 183.44047252 267 187.5 C271.31483824 192.18408396 275.65128093 196.84735735 280 201.5 C285.86735887 207.77831479 291.70563378 214.08264422 297.52783203 220.40283203 C299.53312292 222.57838974 301.5412469 224.75132364 303.54931641 226.92431641 C305.53256321 229.07139386 307.51348932 231.22060725 309.49462891 233.36962891 C311.06023681 235.06523864 312.62962106 236.75730233 314.19921875 238.44921875 C315.2162332 239.54939841 316.23316344 240.64965592 317.25 241.75 C317.72832275 242.26377197 318.20664551 242.77754395 318.69946289 243.30688477 C322 246.88659919 322 246.88659919 322 248 C315.19630379 247.37371993 308.71611435 246.16662736 302.06567383 244.62109375 C300.46747362 244.25609961 300.46747362 244.25609961 298.83698654 243.88373184 C295.29256812 243.07304126 291.74982909 242.25524107 288.20703125 241.4375 C285.67075545 240.85604274 283.13437073 240.27506043 280.59788513 239.69451904 C275.16817313 238.45112487 269.73926777 237.20426211 264.31091309 235.95495605 C255.77903082 233.99145715 247.24563752 232.03458076 238.71191406 230.07910156 C236.54230312 229.58190484 234.372694 229.08470017 232.2030853 228.58749366 C230.74823013 228.25408895 229.2933727 227.92069412 227.83851302 227.58730912 C223.4285517 226.57670143 219.01872491 225.56550903 214.60900128 224.55386472 C194.14982385 219.86034953 173.68511673 215.19175351 153.21484375 210.546875 C151.28537116 210.10898399 151.28537116 210.10898399 149.31691933 209.6622467 C138.21028965 207.1417751 127.10330608 204.62286682 115.99575806 202.10644531 C110.33752117 200.82453978 104.67958915 199.54129687 99.02186775 198.25711823 C96.9555962 197.78843678 94.88919632 197.32032072 92.82266045 196.85280609 C90.02241559 196.21930319 87.22258701 195.58399197 84.42285156 194.94824219 C83.6042909 194.76356384 82.78573023 194.5788855 81.94236469 194.38861084 C78.90996011 193.69845095 75.95251462 192.98417154 73 192 C71.84393055 189.57381981 70.89052699 187.23791606 69.98046875 184.71875 C69.68986572 183.94409897 69.3992627 183.16944794 69.09985352 182.37132263 C68.46007019 180.66223112 67.82551642 178.95117549 67.19540405 177.23849487 C65.80636112 173.46443828 64.39162206 169.70017122 62.97859192 165.93504333 C62.21022523 163.88698498 61.44316327 161.83843674 60.67729187 159.78944397 C56.39632001 148.34639282 51.99512516 136.95029203 47.58712769 125.55569458 C46.17734005 121.91123538 44.76926336 118.26611907 43.36157227 114.62084961 C38.08822973 100.9686348 32.79870849 87.32275193 27.50048828 73.68017578 C20.92953252 56.75950313 14.37244225 39.83363125 7.88983154 22.87887573 C7.17727033 21.01608789 6.46362399 19.15371474 5.74884033 17.29177856 C4.77323595 14.7491636 3.80196445 12.20493902 2.83203125 9.66015625 C2.54245041 8.90754517 2.25286957 8.15493408 1.95451355 7.3795166 C0 2.2291016 0 2.2291016 0 0 Z " fill="#1D1D1D" transform="translate(410,385)"/>
<path d="M0 0 C-3.27004883 8.47946934 -6.54099141 16.95859377 -9.8125 25.4375 C-10.06048088 26.08021725 -10.30846176 26.72293449 -10.56395721 27.38512802 C-17.94970486 46.52702012 -25.35398473 65.6615917 -32.78024292 84.78781128 C-37.70280861 97.46785416 -42.61155056 110.15305434 -47.47639465 122.8553772 C-49.61654726 128.44095505 -51.77085183 134.02001638 -53.96166992 139.5859375 C-59.08422085 152.61111495 -59.08422085 152.61111495 -63.41333008 165.91384888 C-64.3229849 169.02761657 -65.31033032 172.11418853 -66.30279541 175.20239258 C-66.9104986 177.22273248 -67.37831766 179.24280791 -67.84716797 181.29882812 C-69.19353176 185.43651543 -70.55797749 188.33856464 -74 191 C-78.20756964 192.6441152 -82.53396084 193.52922462 -86.94799805 194.45263672 C-88.24980224 194.74288281 -89.5510991 195.03541277 -90.85190773 195.33008862 C-93.55757754 195.93954574 -96.26560688 196.53612513 -98.97640419 197.12234688 C-103.96440385 198.20397048 -108.93410894 199.36233643 -113.90567875 200.51680088 C-119.53574155 201.82099675 -125.17185632 203.09841694 -130.80750513 204.37821913 C-134.26912094 205.16478887 -137.73021402 205.95365299 -141.19137573 206.74221802 C-147.81673814 208.25133884 -154.44253282 209.75855219 -161.068519 211.26493168 C-169.45512882 213.17161069 -177.84133881 215.08004593 -186.22753906 216.98852539 C-189.28393431 217.68407219 -192.34033109 218.3796123 -195.39672852 219.07514954 C-196.15028169 219.24663716 -196.90383487 219.41812478 -197.68022299 219.594809 C-202.22289128 220.6285665 -206.76561969 221.66205941 -211.30839109 222.6953637 C-228.3429966 226.57017486 -245.37543752 230.45413502 -262.40309525 234.35939217 C-265.30161437 235.02402649 -268.20026268 235.68809391 -271.09896851 236.35191345 C-272.0111017 236.5607998 -272.9232349 236.76968615 -273.8630085 236.98490238 C-275.6358951 237.39088796 -277.40878694 237.79685061 -279.18168449 238.20278835 C-284.1588763 239.34275749 -289.13521989 240.48634166 -294.11097145 241.6325798 C-297.09306766 242.31863457 -300.07595013 243.0012164 -303.05908585 243.68273544 C-305.03160834 244.13453169 -307.00311632 244.59075036 -308.97457886 245.04714966 C-310.12217682 245.30865814 -311.26977478 245.57016663 -312.45214844 245.83959961 C-313.43648865 246.06586533 -314.42082886 246.29213104 -315.43499756 246.5252533 C-318 247 -318 247 -322 247 C-320.58261511 243.74792908 -318.87473588 241.68638933 -316.3125 239.25 C-312.95384407 236.04615186 -309.92313644 232.64355053 -306.88500977 229.14111328 C-303.78147954 225.61592742 -300.54494828 222.21911889 -297.3125 218.8125 C-292.47257598 213.69148337 -287.64524503 208.56103758 -282.875 203.375 C-278.58343782 198.70936907 -274.26757582 194.06741336 -269.9375 189.4375 C-265.76874495 184.97882338 -261.61830175 180.50533745 -257.5 176 C-252.78872712 170.84596432 -248.03100608 165.7370629 -243.26171875 160.63671875 C-239.49298079 156.60466286 -235.73912081 152.55952748 -232 148.5 C-227.09344369 143.17356122 -222.15605834 137.87656896 -217.2109375 132.5859375 C-212.96973309 128.04579357 -208.75041827 123.48610264 -204.54125977 118.91625977 C-200.69119951 114.73989081 -196.81711262 110.58641328 -192.9375 106.4375 C-187.87349953 101.02122124 -182.84973434 95.57121151 -177.84765625 90.09765625 C-174.02925656 85.932006 -170.16402915 81.80981379 -166.296875 77.68945312 C-165.48283203 76.82030273 -165.48283203 76.82030273 -164.65234375 75.93359375 C-164.0689624 75.32427002 -163.48558105 74.71494629 -162.88452148 74.0871582 C-160.91686058 71.96854276 -160.91686058 71.96854276 -159.02368164 69.38745117 C-151.52757452 59.97018606 -142.5350612 56.68141217 -131.5625 52.4375 C-129.64569969 51.66975586 -127.73019391 50.89877272 -125.81591797 50.12475586 C-121.84815408 48.52338266 -117.87525013 46.93592821 -113.89794922 45.35839844 C-105.6403192 42.07157598 -97.4516346 38.62253115 -89.26138306 35.17205811 C-86.61925185 34.06008081 -83.97536467 32.95239302 -81.33081055 31.84619141 C-65.97298204 25.42191095 -50.63705937 18.94585962 -35.30712891 12.45532227 C-31.02488576 10.64243357 -26.73891834 8.83854394 -22.45202637 7.03668213 C-19.97285912 5.98852522 -17.50038303 4.92562968 -15.02832031 3.86083984 C-13.47993372 3.20252655 -11.93143662 2.54447308 -10.3828125 1.88671875 C-9.67728241 1.57829544 -8.97175232 1.26987213 -8.24484253 0.95210266 C-3.34004136 -1.11334712 -3.34004136 -1.11334712 0 0 Z " fill="#1D1D1D" transform="translate(323,386)"/>
<path d="M0 0 C5.77452218 0.63527202 11.33280926 1.6431208 16.99047852 2.94824219 C18.2994587 3.24525559 18.2994587 3.24525559 19.63488293 3.54826927 C22.5504055 4.21080437 25.46462946 4.87888328 28.37890625 5.546875 C30.48749001 6.0270303 32.59615524 6.50682797 34.70489502 6.98629761 C41.65866056 8.56882744 48.61065208 10.15907092 55.5625 11.75 C57.96934142 12.30055505 60.37619165 12.8510716 62.78305054 13.40155029 C63.98994632 13.67758402 65.1968421 13.95361774 66.44031048 14.23801613 C71.4639761 15.38685221 76.48772403 16.53532783 81.51152611 17.68356705 C84.11327496 18.27831573 86.71497887 18.87325715 89.31661415 19.46850204 C108.39375957 23.8326354 127.48512979 28.12943571 146.58688408 32.38449287 C156.06404201 34.49646205 165.53746125 36.62511328 175.01058102 38.75511169 C182.80802041 40.50748704 190.60846363 42.24519258 198.41307747 43.96533525 C204.42988748 45.29298057 210.44086693 46.64548394 216.45012665 48.00687027 C218.92409785 48.56311124 221.39992584 49.11116721 223.87766266 49.65038681 C227.27899663 50.39176805 230.67249054 51.16223223 234.06567383 51.93994141 C235.04828469 52.1467239 236.03089556 52.35350639 237.04328251 52.56655502 C244.04903606 54.2192596 248.67289219 57.21519155 254 62 C254.65225461 62.58086679 255.30450922 63.16173359 255.97652912 63.76020241 C257.69734822 65.31485053 259.38266801 66.90121677 261.0625 68.5 C262.27655823 69.64146105 263.49139562 70.78209399 264.70703125 71.921875 C265.56288818 72.7252832 265.56288818 72.7252832 266.43603516 73.54492188 C268.93424728 75.8692029 271.50408731 78.1056584 274.0859375 80.3359375 C278.98178024 84.59232323 283.76351301 88.98038447 288.578125 93.328125 C292.3430085 96.72344938 296.11193551 100.11058342 299.9375 103.4375 C303.18827518 106.26712212 306.37941255 109.15695696 309.5625 112.0625 C313.64613518 115.78782178 317.77696174 119.43387881 322 123 C319.25884473 126.42353071 315.47605118 127.71727526 311.5390625 129.34375 C310.77914001 129.66461578 310.01921753 129.98548157 309.23626709 130.31607056 C306.7019997 131.384231 304.16351786 132.44198515 301.625 133.5 C299.81821837 134.2595317 298.01174651 135.01980068 296.20556641 135.78076172 C292.39577541 137.38462759 288.5843266 138.98445622 284.77148438 140.58105469 C276.5439789 144.02718992 268.32738644 147.49913751 260.11029053 150.97000122 C257.36049173 152.13112624 254.6102222 153.29113017 251.85986328 154.45092773 C233.67079135 162.12395305 215.51047624 169.8643325 197.35302734 177.61181641 C196.23282196 178.08958023 195.11261658 178.56734406 193.95846558 179.05958557 C191.85564964 179.95648978 189.75303739 180.85387173 187.65066528 181.7518158 C186.71342621 182.15155106 185.77618713 182.55128632 184.81054688 182.96313477 C183.99807495 183.30997818 183.18560303 183.65682159 182.34851074 184.01417542 C181.5735022 184.33949753 180.79849365 184.66481964 180 185 C178.67850952 185.56312141 178.67850952 185.56312141 177.33032227 186.13761902 C174.62635714 187.13827379 173.61923385 187.1484333 171 186 C169.26757812 184.53222656 169.26757812 184.53222656 167.53125 182.640625 C166.56034424 181.59527588 166.56034424 181.59527588 165.56982422 180.52880859 C164.88678223 179.77680176 164.20374023 179.02479492 163.5 178.25 C162.78730957 177.47865723 162.07461914 176.70731445 161.34033203 175.91259766 C159.21965879 173.61492409 157.10943166 171.30799048 155 169 C153.92550923 167.83498663 152.85009592 166.67082291 151.7734375 165.5078125 C149.84302883 163.42230459 147.91616137 161.33363278 145.9921875 159.2421875 C142.67867681 155.64535726 139.33968299 152.07251492 136 148.5 C129.14804753 141.16826093 122.33966774 133.79714932 115.54101562 126.41601562 C109.12273699 119.44931264 102.67969615 112.50675108 96.21142578 105.58642578 C91.9693161 101.04539508 87.74934828 96.48458663 83.5390625 91.9140625 C79.70948518 87.76028815 75.85787376 83.62749311 72 79.5 C65.14811274 72.16819943 58.33966826 64.79714987 51.54101562 57.41601562 C45.12273699 50.44931264 38.67969615 43.50675108 32.21142578 36.58642578 C27.97673861 32.05334062 23.75995541 27.50429471 19.56323242 22.93603516 C16.79030678 19.9220865 13.99453894 16.93211742 11.17578125 13.9609375 C10.53318359 13.28095703 9.89058594 12.60097656 9.22851562 11.90039062 C7.9746911 10.57499202 6.71701895 9.2532201 5.45507812 7.93554688 C4.88853516 7.33548828 4.32199219 6.73542969 3.73828125 6.1171875 C2.98091675 5.32223877 2.98091675 5.32223877 2.20825195 4.51123047 C1 3 1 3 0 0 Z " fill="#00FDA5" transform="translate(1,211)"/>
<path d="M0 0 C-6.75685898 7.91046905 -13.58692871 15.70322389 -20.75 23.25 C-26.2947011 29.11554258 -31.79005318 35.0180343 -37.23046875 40.98046875 C-41.03351281 45.13896345 -44.88987313 49.24777704 -48.73876953 53.36376953 C-52.50731443 57.39569076 -56.26103507 61.44064175 -60 65.5 C-64.31483824 70.18408396 -68.65128093 74.84735735 -73 79.5 C-79.3617409 86.30732385 -85.68767935 93.14686473 -92 100 C-98.90389439 107.4953927 -105.83010524 114.96879128 -112.78857422 122.41357422 C-116.54000059 126.42934553 -120.27670869 130.45813831 -124 134.5 C-128.31486909 139.18405575 -132.65128069 143.84735709 -137 148.5 C-141.38854896 153.19592749 -145.76719633 157.90051798 -150.125 162.625 C-150.60718994 163.14771484 -151.08937988 163.67042969 -151.58618164 164.20898438 C-154.139336 166.97821766 -156.68958416 169.75010174 -159.23828125 172.5234375 C-159.77372559 173.10528809 -160.30916992 173.68713867 -160.86083984 174.28662109 C-161.87641512 175.39026112 -162.89113156 176.49469238 -163.90478516 177.60009766 C-165.26180984 179.07418047 -166.63070968 180.53730381 -168 182 C-168.83660156 182.969375 -169.67320312 183.93875 -170.53515625 184.9375 C-173 187 -173 187 -175.07983398 186.86669922 C-179.25869874 185.62642082 -183.19036935 183.92549808 -187.1875 182.1953125 C-188.55680916 181.60961487 -188.55680916 181.60961487 -189.95378113 181.01208496 C-191.93194495 180.16535536 -193.90918052 179.31645461 -195.8855896 178.46563721 C-200.13382002 176.63693288 -204.38652999 174.81875552 -208.63896179 172.99984741 C-210.84355053 172.056727 -213.04790373 171.11305583 -215.25202942 170.16885376 C-225.88134552 165.61653086 -236.53202119 161.11566279 -247.1875 156.625 C-250.85169112 155.07973196 -254.5156966 153.53402397 -258.1796875 151.98828125 C-259.57242638 151.40080864 -259.57242638 151.40080864 -260.99330139 150.8014679 C-273.60369859 145.48127001 -286.2078563 140.1463107 -298.8125 134.8125 C-299.9807431 134.31816467 -301.14898621 133.82382935 -302.35263062 133.31451416 C-308.90184875 130.54323392 -315.45098177 127.77175264 -322 125 C-322 122 -322 122 -320.63671875 120.52734375 C-319.99347656 120.00269531 -319.35023438 119.47804688 -318.6875 118.9375 C-315.21677644 116.03192081 -311.83760468 113.05830722 -308.5 110 C-304.73649479 106.56735239 -300.93870649 103.1844499 -297.09375 99.84375 C-294.53580973 97.59123543 -292.0182102 95.29682908 -289.5 93 C-285.73649479 89.56735239 -281.93870649 86.1844499 -278.09375 82.84375 C-275.53580973 80.59123543 -273.0182102 78.29682908 -270.5 76 C-262.34274036 68.57106711 -262.34274036 68.57106711 -259.16539001 65.88868713 C-257.68919116 64.60112334 -256.26002007 63.25809502 -254.87672424 61.87120056 C-246.49890388 54.02940998 -237.79860689 52.29068389 -226.83984375 50.00390625 C-224.90191473 49.57493507 -222.96462299 49.14307649 -221.02792358 48.70858765 C-216.85913335 47.77940886 -212.68675635 46.86964941 -208.51040649 45.97506714 C-201.84863576 44.54785057 -195.1966236 43.07843043 -188.5456543 41.60180664 C-181.48552536 40.03644321 -174.42476471 38.47422867 -167.36073303 36.92655945 C-149.50948369 33.01459356 -131.68234885 29.00223358 -113.8671875 24.9296875 C-112.58481516 24.6365737 -111.30244282 24.34345989 -109.98121071 24.04146385 C-103.59142803 22.58039078 -97.20200816 21.11773892 -90.81277466 19.65426636 C-83.44447629 17.96695524 -76.07485507 16.28548134 -68.70483398 14.60571289 C-67.53227428 14.33842125 -66.35971458 14.07112961 -65.15162277 13.79573822 C-60.696542 12.78019453 -56.24145133 11.76469424 -51.78632736 10.74934006 C-49.7759145 10.29105415 -47.76554793 9.83256515 -45.75522995 9.37386322 C-43.81411246 8.93107842 -41.87285393 8.48891138 -39.93144608 8.04740143 C-34.58518969 6.82911976 -29.24484928 5.58866513 -23.90878296 4.32644653 C-22.72610682 4.04843232 -21.54343069 3.77041811 -20.32491589 3.48397923 C-18.03754545 2.94566186 -15.75120593 2.40293929 -13.46607685 1.85518551 C-12.43270286 1.61269856 -11.39932886 1.37021162 -10.3346405 1.12037659 C-9.4238483 0.90379174 -8.51305609 0.6872069 -7.57466412 0.46405888 C-4.99110123 -0.00160392 -2.61895656 -0.08464408 0 0 Z " fill="#00FDA5" transform="translate(732,211)"/>
<path d="M0 0 C1.89941157 2.84911735 2.74005422 4.95062601 3.74560547 8.18408203 C4.08212631 9.25802216 4.41864716 10.33196228 4.7653656 11.43844604 C5.12896683 12.61633698 5.49256805 13.79422791 5.8671875 15.0078125 C6.25354874 16.2462088 6.63990997 17.4846051 7.03797913 18.76052856 C8.09995346 22.16537041 9.15569877 25.57211526 10.21024704 28.97926331 C11.10398448 31.86413232 12.00130908 34.74788019 12.89865017 37.63162994 C21.17257746 64.22261044 29.35640172 90.84150045 37.531847 117.46288872 C41.97473542 131.9289814 46.43599035 146.38938074 50.90283203 160.84809303 C52.24729911 165.20061783 53.58991051 169.55370923 54.93083191 173.90732765 C58.99804392 187.11185264 63.08278278 200.30908945 67.28125 213.47265625 C68.21229616 216.40935076 69.14234933 219.34635771 70.072052 222.28347778 C70.91151288 224.91842999 71.76670281 227.54790694 72.62280273 230.17749023 C73.11261963 231.72223903 73.60168841 233.26722533 74.08984375 234.8125 C74.31776611 235.49437881 74.54568848 236.17625763 74.78051758 236.87879944 C75.64951698 239.68059441 76.16302631 241.49263577 75.2512207 244.33032227 C73.52665483 246.63165027 71.5278919 248.1819058 69.25 249.9375 C64.57779277 253.65193544 60.16324915 257.53959746 55.8125 261.625 C54.61074004 262.75136925 53.40891899 263.87767334 52.20703125 265.00390625 C51.64838379 265.52742676 51.08973633 266.05094727 50.51416016 266.59033203 C46.39767217 270.4227412 42.11055657 274.05515431 37.828125 277.69921875 C30.99500329 283.52150119 24.28036974 289.43419951 17.6875 295.52734375 C12.26376082 300.51749913 6.68438226 305.31038463 1 310 C-3.08577563 308.35584451 -5.93452511 305.43207392 -9.0625 302.4375 C-13.07836454 298.65597402 -17.12300027 295.00641818 -21.4375 291.5625 C-27.15073515 286.97687705 -32.45201937 282.00254458 -37.79296875 276.99609375 C-42.4639332 272.61883286 -47.29747541 268.4485711 -52.171875 264.30078125 C-55.18829109 261.73379653 -58.18686406 259.14678346 -61.18212891 256.55517578 C-62.97242571 255.02358961 -64.78648272 253.52465856 -66.60546875 252.02734375 C-67.71694335 251.0816657 -68.82765541 250.13509049 -69.9375 249.1875 C-70.93652344 248.35605469 -71.93554688 247.52460938 -72.96484375 246.66796875 C-75 244 -75 244 -74.7693634 240.81759644 C-73.97504721 236.87618377 -72.93815075 233.07783402 -71.7253418 229.25048828 C-71.37765464 228.13065426 -71.37765464 228.13065426 -71.0229435 226.98819733 C-70.25339539 224.51397073 -69.47629548 222.0421839 -68.69921875 219.5703125 C-68.14958415 217.80796515 -67.6004572 216.0454594 -67.05180359 214.2828064 C-65.88046072 210.52295815 -64.70590102 206.76413656 -63.52874756 203.00610352 C-61.67277816 197.08061983 -59.82410418 191.15287751 -57.97705078 185.22460938 C-57.35437447 183.22625597 -56.7316938 181.22790392 -56.10900879 179.22955322 C-55.80059555 178.23973701 -55.49218231 177.24992081 -55.17442322 176.23011017 C-54.23606944 173.21946605 -53.29702023 170.20903963 -52.35778809 167.19866943 C-47.19052772 150.63395819 -42.0712557 134.05483461 -36.97891998 117.46695709 C-35.38145596 112.264044 -33.78228712 107.06165435 -32.18341827 101.85917282 C-31.60258783 99.96917219 -31.02184408 98.07914493 -30.44110107 96.18911743 C-24.55432438 77.03556917 -18.63223657 57.89291525 -12.70635986 38.75143433 C-11.02589212 33.3216969 -9.34950645 27.89074307 -7.68034363 22.45751953 C-6.81348492 19.63621732 -5.94456179 16.81555366 -5.07528687 13.99499512 C-4.52171288 12.19557866 -3.97136161 10.39517172 -3.42114258 8.59472656 C-3.10685303 7.57604492 -2.79256348 6.55736328 -2.46875 5.5078125 C-2.20513672 4.64816895 -1.94152344 3.78852539 -1.66992188 2.90283203 C-1 1 -1 1 0 0 Z " fill="#1D1D1D" transform="translate(366,0)"/>
<path d="M0 0 C0.66 0 1.32 0 2 0 C10.13415627 20.14100826 18.02183578 40.37637112 25.90332031 60.6171875 C28.93330854 68.39765535 31.96982296 76.17557554 35.00604248 83.95361328 C36.670981 88.21896391 38.33546689 92.48449115 40 96.75 C40.66666451 98.45833417 41.33333118 100.16666751 42 101.875 C46 112.125 46 112.125 46.9997406 114.68699646 C47.66712641 116.39706506 48.33465798 118.10707678 49.00233459 119.81703186 C50.65919222 124.06086365 52.3135888 128.30562095 53.96264648 132.55249023 C57.07667114 140.56432283 60.21583327 148.56377919 63.43643188 156.53347778 C64.95637669 160.29880741 66.46318281 164.06933174 67.96899414 167.84033203 C68.69062746 169.63676239 69.41869236 171.43062422 70.15356445 173.22167969 C71.17214857 175.70534411 72.16823372 178.19699758 73.16015625 180.69140625 C73.4644606 181.41667007 73.76876495 182.1419339 74.08229065 182.88917542 C77.39080061 191.35743477 74.69908684 198.66389399 72.0625 206.96484375 C71.75530029 207.95165634 71.44810059 208.93846893 71.1315918 209.95518494 C70.454645 212.12687871 69.77457178 214.29759977 69.09179688 216.46746826 C67.96659654 220.04366541 66.84949487 223.62230761 65.734375 227.20166016 C64.50371663 231.15164448 63.27256618 235.10147066 62.03857422 239.05041504 C58.73324631 249.62982176 55.45437393 260.21725357 52.1875 270.80859375 C51.81318816 272.02212115 51.81318816 272.02212115 51.43131447 273.26016426 C50.144634 277.43204778 48.85832544 281.60404586 47.57217407 285.77609253 C45.99208682 290.90125434 44.41064734 296.02599823 42.82885742 301.15063477 C42.56447089 302.00719382 42.30008436 302.86375288 42.02768612 303.74626827 C41.49035121 305.48711215 40.9530139 307.22795528 40.41567421 308.96879768 C36.20521422 322.61009888 31.99672689 336.25200816 27.78933716 349.89425659 C25.78980675 356.37757876 23.78985906 362.86077218 21.78981209 369.34393501 C20.42877589 373.75585349 19.06797841 378.16784528 17.70776367 382.58001709 C6.92337075 417.56108719 6.92337075 417.56108719 2 433 C0 432 0 432 -0.89212036 429.79997253 C-1.19471771 428.82208267 -1.49731506 427.84419281 -1.80908203 426.83666992 C-2.15837265 425.72107697 -2.50766327 424.60548401 -2.86753845 423.45608521 C-3.24382889 422.22663177 -3.62011932 420.99717834 -4.0078125 419.73046875 C-4.40828603 418.44119256 -4.80942832 417.15212394 -5.2111969 415.86325073 C-6.29746734 412.3716063 -7.374127 408.87706408 -8.44906235 405.38191605 C-9.58536108 401.69294834 -10.73035561 398.0066808 -11.87426758 394.32006836 C-14.38921917 386.20882345 -16.89137626 378.09366536 -19.39076996 369.97761536 C-20.29480739 367.04302876 -21.20036502 364.10891187 -22.10595703 361.17480469 C-25.25603931 350.9667407 -28.39650969 340.75575346 -31.53125 330.54296875 C-36.40363939 314.67089814 -41.30052674 298.80639506 -46.19805813 282.9420681 C-47.84830193 277.59591193 -49.49685494 272.24923814 -51.14393139 266.90210533 C-58.26844682 243.77188675 -58.26844682 243.77188675 -65.52734375 220.68359375 C-66.15880096 218.68576997 -66.79007794 216.68788922 -67.42114258 214.68994141 C-68.51232987 211.2356575 -69.6193245 207.78707972 -70.73706055 204.34130859 C-71.20297289 202.86967547 -71.66827428 201.39784871 -72.1328125 199.92578125 C-72.52355957 198.71317627 -72.91430664 197.50057129 -73.31689453 196.2512207 C-74.60590573 190.1162092 -72.47536111 185.18557328 -70.18359375 179.54296875 C-69.8958609 178.8202478 -69.60812805 178.09752686 -69.31167603 177.35290527 C-68.68711027 175.78594199 -68.05985441 174.22004882 -67.4302063 172.65512085 C-66.06603025 169.26411862 -64.71520136 165.86784773 -63.3634491 162.47187805 C-62.65188174 160.68457616 -61.93964167 158.89754197 -61.22676086 157.11076355 C-57.45609542 147.65549687 -53.75604444 138.17309791 -50.0625 128.6875 C-49.39321997 126.97026809 -48.72386738 125.25306446 -48.05444336 123.53588867 C-46.70800405 120.08183394 -45.36192995 116.62763722 -44.01611328 113.17333984 C-41.01298013 105.4661277 -38.00497781 97.7608159 -34.99734497 90.05535889 C-34.00254899 87.50653092 -33.00795374 84.95762472 -32.01342773 82.40869141 C-28.95929323 74.58122097 -25.90431978 66.75408128 -22.84625244 58.92814636 C-15.17849497 39.30533194 -7.52673726 19.677437 0 0 Z M1 28 C-3.08827788 37.67095627 -6.96636347 47.41841549 -10.8125 57.1875 C-11.47142877 58.85897077 -12.13036448 60.53043881 -12.78930664 62.2019043 C-19.55519201 79.37482856 -26.2611861 96.57110413 -32.96191406 113.76953125 C-36.06930903 121.74491667 -39.17968798 129.71913754 -42.29077148 137.69308472 C-43.30045141 140.28161092 -44.30945318 142.87040066 -45.31835938 145.45922852 C-48.33143663 153.18739707 -51.35443456 160.91122321 -54.4140625 168.62109375 C-54.93451987 169.93512772 -55.45494731 171.24917355 -55.9753418 172.56323242 C-56.91842173 174.94116697 -57.86494447 177.31774039 -58.81567383 179.69262695 C-59.2258374 180.72734131 -59.63600098 181.76205566 -60.05859375 182.828125 C-60.41236084 183.7140332 -60.76612793 184.59994141 -61.13061523 185.51269531 C-63.25853086 191.60064938 -62.5747394 195.2658748 -60.375 201.25 C-58.07517866 207.66090092 -56.05375297 214.12538643 -54.15338135 220.6643219 C-51.26559766 230.57201808 -48.21017597 240.42857082 -45.17138672 250.29077148 C-44.1322179 253.6640696 -43.09529217 257.03805134 -42.05859375 260.41210938 C-38.96768963 270.45976511 -35.8560994 280.49942831 -32.65234375 290.51171875 C-28.27999125 304.18184932 -24.05981778 317.89924041 -19.8293457 331.61376953 C-18.66865278 335.37654273 -17.50638847 339.13882836 -16.34366417 342.90097427 C-15.20615202 346.5821667 -14.06981121 350.2637203 -12.93359375 353.9453125 C-12.6044655 355.01117962 -12.6044655 355.01117962 -12.2686882 356.09857941 C-10.19034145 362.83185952 -8.11844711 369.56638671 -6.11767578 376.32324219 C-5.84448013 377.2456369 -5.57128448 378.16803162 -5.28981018 379.11837769 C-4.8108286 380.74405028 -4.33556097 382.37082544 -3.86534119 383.99905396 C-2.54264884 388.50063203 -0.92676619 392.72008952 1 397 C2.69806106 394.45290841 3.50128074 392.82530251 4.39038086 389.9909668 C4.65025284 389.16957718 4.91012482 388.34818756 5.1778717 387.50190735 C5.45819748 386.59764511 5.73852325 385.69338287 6.02734375 384.76171875 C6.32930161 383.79997238 6.63125946 382.83822601 6.94236755 381.84733582 C11.00337006 368.86959709 14.96795841 355.86163636 18.93859863 342.85601807 C20.79211453 336.78503727 22.64706285 330.71449515 24.50390625 324.64453125 C24.70367191 323.99139072 24.90343758 323.3382502 25.10925674 322.66531754 C27.59443497 314.54339853 30.1124576 306.4335187 32.68702698 298.33955383 C35.01732837 290.99141932 37.27536575 283.62123704 39.53125 276.25 C39.73222227 275.5933605 39.93319454 274.936721 40.14025688 274.26018333 C41.59465926 269.5071417 43.04748936 264.75362002 44.5 260 C54.54398334 227.12913559 54.54398334 227.12913559 59.35316467 212.03437805 C60.5550403 208.2543288 61.74550829 204.47067513 62.9375 200.6875 C63.16066895 200.00337036 63.38383789 199.31924072 63.61376953 198.61437988 C66.09109072 190.46346993 63.10959736 184.25360495 60.08984375 176.69921875 C59.69090408 175.68736008 59.29196442 174.6755014 58.88093567 173.63298035 C57.57177448 170.31569113 56.25457224 167.00165524 54.9375 163.6875 C54.02245951 161.37216531 53.10807823 159.05656999 52.19433594 156.74072266 C50.34312608 152.0497679 48.48952653 147.35976873 46.63427734 142.67041016 C42.97630292 133.41691389 39.36126504 124.14679919 35.75 114.875 C34.78261131 112.39340457 33.81497428 109.91190607 32.8473053 107.43041992 C32.20622599 105.78640734 31.56522414 104.14236455 30.92430115 102.49829102 C28.5539281 96.41832604 26.17987349 90.33980492 23.8046875 84.26171875 C16.48483751 65.52742209 9.18583323 46.78619858 2 28 C1.67 28 1.34 28 1 28 Z " fill="#000302" transform="translate(365,411)"/>
<path d="M0 0 C8.83782935 2.21604032 17.05032113 5.85950659 25.38687134 9.46090698 C29.83898124 11.38373223 34.2990936 13.28787579 38.7578125 15.1953125 C39.68453262 15.59235886 40.61125275 15.98940521 41.5660553 16.39848328 C51.45843526 20.63347406 61.38318499 24.79001758 71.3125 28.9375 C73.0919765 29.68135614 74.87143609 30.42525274 76.65087891 31.16918945 C80.25011759 32.67367523 83.84958487 34.17761237 87.44921875 35.68115234 C96.13508201 39.3093291 104.81933248 42.94135983 113.50302124 46.57473755 C117.08093524 48.07145218 120.65939116 49.56686924 124.237854 51.06227112 C126.67072214 52.08108327 129.10117106 53.10550594 131.53149414 54.13037109 C134.37917817 55.32925534 137.23563489 56.49868243 140.10717773 57.63916016 C146.61414974 60.25483117 151.66451272 62.6517309 156.4375 67.875 C157.11329102 68.59236328 157.11329102 68.59236328 157.80273438 69.32421875 C160.40841305 72.11786011 162.88986183 75.02173801 165.3984375 77.90234375 C168.90331498 81.91965257 172.52591535 85.81322924 176.1875 89.6875 C177.51342292 91.09597575 178.83893881 92.50483478 180.1640625 93.9140625 C180.81407227 94.60532227 181.46408203 95.29658203 182.13378906 96.00878906 C184.79247657 98.84555716 187.42981108 101.70161797 190.0625 104.5625 C194.35580767 109.2264321 198.67113413 113.86905163 203 118.5 C207.8389234 123.67696799 212.65787067 128.87148234 217.45874023 134.08374023 C221.30880049 138.26010919 225.18288738 142.41358672 229.0625 146.5625 C234.12901132 151.98146428 239.15491065 157.43452046 244.16015625 162.91015625 C247.99031271 167.08838515 251.86696357 171.2232387 255.73828125 175.36328125 C259.50701921 179.39533714 263.26087919 183.44047252 267 187.5 C271.31483824 192.18408396 275.65128093 196.84735735 280 201.5 C285.86735887 207.77831479 291.70563378 214.08264422 297.52783203 220.40283203 C299.53312292 222.57838974 301.5412469 224.75132364 303.54931641 226.92431641 C305.53256321 229.07139386 307.51348932 231.22060725 309.49462891 233.36962891 C311.06023681 235.06523864 312.62962106 236.75730233 314.19921875 238.44921875 C315.2162332 239.54939841 316.23316344 240.64965592 317.25 241.75 C317.72832275 242.26377197 318.20664551 242.77754395 318.69946289 243.30688477 C322 246.88659919 322 246.88659919 322 248 C315.19630379 247.37371993 308.71611435 246.16662736 302.06567383 244.62109375 C300.46747362 244.25609961 300.46747362 244.25609961 298.83698654 243.88373184 C295.29256812 243.07304126 291.74982909 242.25524107 288.20703125 241.4375 C285.67075545 240.85604274 283.13437073 240.27506043 280.59788513 239.69451904 C275.16817313 238.45112487 269.73926777 237.20426211 264.31091309 235.95495605 C255.77903082 233.99145715 247.24563752 232.03458076 238.71191406 230.07910156 C236.54230312 229.58190484 234.372694 229.08470017 232.2030853 228.58749366 C230.74823013 228.25408895 229.2933727 227.92069412 227.83851302 227.58730912 C223.4285517 226.57670143 219.01872491 225.56550903 214.60900128 224.55386472 C194.14982385 219.86034953 173.68511673 215.19175351 153.21484375 210.546875 C151.28537116 210.10898399 151.28537116 210.10898399 149.31691933 209.6622467 C138.21028965 207.1417751 127.10330608 204.62286682 115.99575806 202.10644531 C110.33752117 200.82453978 104.67958915 199.54129687 99.02186775 198.25711823 C96.9555962 197.78843678 94.88919632 197.32032072 92.82266045 196.85280609 C90.02241559 196.21930319 87.22258701 195.58399197 84.42285156 194.94824219 C83.6042909 194.76356384 82.78573023 194.5788855 81.94236469 194.38861084 C78.90996011 193.69845095 75.95251462 192.98417154 73 192 C71.84393055 189.57381981 70.89052699 187.23791606 69.98046875 184.71875 C69.68986572 183.94409897 69.3992627 183.16944794 69.09985352 182.37132263 C68.46007019 180.66223112 67.82551642 178.95117549 67.19540405 177.23849487 C65.80636112 173.46443828 64.39162206 169.70017122 62.97859192 165.93504333 C62.21022523 163.88698498 61.44316327 161.83843674 60.67729187 159.78944397 C56.39632001 148.34639282 51.99512516 136.95029203 47.58712769 125.55569458 C46.17734005 121.91123538 44.76926336 118.26611907 43.36157227 114.62084961 C38.08822973 100.9686348 32.79870849 87.32275193 27.50048828 73.68017578 C20.92953252 56.75950313 14.37244225 39.83363125 7.88983154 22.87887573 C7.17727033 21.01608789 6.46362399 19.15371474 5.74884033 17.29177856 C4.77323595 14.7491636 3.80196445 12.20493902 2.83203125 9.66015625 C2.54245041 8.90754517 2.25286957 8.15493408 1.95451355 7.3795166 C0 2.2291016 0 2.2291016 0 0 Z M18 19 C25.98452627 41.03096814 34.50356223 62.85163562 42.99627686 84.69023132 C46.72488731 94.28237121 50.43700497 103.88085145 54.13856506 113.48345947 C56.50904283 119.63237297 58.88447077 125.7792366 61.27368164 131.92089844 C65.20263794 142.03526965 69.10188256 152.14329736 72.671875 162.390625 C73.44503976 164.56206583 74.2210376 166.73247015 74.99807739 168.90252686 C75.65986537 170.7959359 76.27427612 172.70570325 76.88647461 174.61572266 C78.85236615 180.40699687 78.85236615 180.40699687 83.28369141 184.28735352 C86.18653491 185.12480398 89.00875467 185.58038924 92 186 C94.21199163 186.49835451 96.42024062 187.01353484 98.625 187.54296875 C101.08280688 188.09350142 103.5411709 188.64155095 106 189.1875 C108.76198117 189.80481915 111.52355702 190.42394357 114.28515625 191.04296875 C115.3526284 191.28187332 115.3526284 191.28187332 116.44166565 191.52560425 C121.52579554 192.664807 126.60576474 193.82133296 131.68359375 194.98828125 C132.40321289 195.15362366 133.12283203 195.31896606 133.86425781 195.48931885 C135.32290308 195.82453521 136.78154158 196.15978103 138.24017334 196.49505615 C150.26957322 199.25940229 162.31104095 201.95320087 174.375 204.5625 C185.67216388 207.00677223 196.91641668 209.63186065 208.14477539 212.37524414 C221.37497363 215.59933448 234.65582289 218.58863822 247.94842529 221.54309082 C250.0781823 222.01741209 252.20736178 222.49425789 254.33642578 222.97167969 C257.97969113 223.78838701 261.62410147 224.59979194 265.26937866 225.4074707 C266.65304043 225.71469708 268.03637335 226.02340891 269.41934204 226.33374023 C276.60738268 227.94464163 283.65549886 229.37595742 291 230 C282.78172895 220.22692092 273.98233277 210.96318977 265.26367188 201.63867188 C261.49416185 197.60607719 257.73974433 193.56020443 254 189.5 C249.68516176 184.81591604 245.34871907 180.15264265 241 175.5 C234.14811274 168.16819943 227.33966826 160.79714987 220.54101562 153.41601562 C214.12273699 146.44931264 207.67969615 139.50675108 201.21142578 132.58642578 C196.9693161 128.04539508 192.74934828 123.48458663 188.5390625 118.9140625 C184.70948543 114.76028843 180.85791031 110.62745863 177 106.5 C173.14266455 102.3731564 169.28806262 98.24420446 165.46484375 94.08569336 C164.48379406 93.02370707 163.49673022 91.96724689 162.50390625 90.91625977 C159.88776658 88.13321378 157.44283782 85.31480757 155.125 82.27734375 C146.24200839 71.06884186 135.54384006 66.53835824 122.43510437 61.50343323 C114.26579904 58.36244214 106.22165968 54.92724503 98.15969849 51.52243042 C93.58110653 49.59251395 88.9954751 47.67949089 84.41015625 45.765625 C82.52879569 44.97984861 80.64744815 44.19404104 78.76611328 43.40820312 C77.82181458 43.01383057 76.87751587 42.61945801 75.90460205 42.21313477 C68.00569746 38.91408188 60.10754239 35.61323959 52.2102356 32.31036377 C49.43925622 31.15186443 46.66776488 29.99459645 43.89624023 28.83740234 C42.18861481 28.12343103 40.48101268 27.40940399 38.7734375 26.6953125 C38.01586655 26.37939148 37.25829559 26.06347046 36.47776794 25.73797607 C31.92381255 23.83177094 27.42426935 21.83948106 22.95327759 19.74508667 C20.88126115 18.82179748 20.88126115 18.82179748 18 19 Z " fill="#000000" transform="translate(410,385)"/>
<path d="M0 0 C-3.27004883 8.47946934 -6.54099141 16.95859377 -9.8125 25.4375 C-10.06048088 26.08021725 -10.30846176 26.72293449 -10.56395721 27.38512802 C-17.94970486 46.52702012 -25.35398473 65.6615917 -32.78024292 84.78781128 C-37.70280861 97.46785416 -42.61155056 110.15305434 -47.47639465 122.8553772 C-49.61654726 128.44095505 -51.77085183 134.02001638 -53.96166992 139.5859375 C-59.08422085 152.61111495 -59.08422085 152.61111495 -63.41333008 165.91384888 C-64.3229849 169.02761657 -65.31033032 172.11418853 -66.30279541 175.20239258 C-66.9104986 177.22273248 -67.37831766 179.24280791 -67.84716797 181.29882812 C-69.19353176 185.43651543 -70.55797749 188.33856464 -74 191 C-78.20756964 192.6441152 -82.53396084 193.52922462 -86.94799805 194.45263672 C-88.24980224 194.74288281 -89.5510991 195.03541277 -90.85190773 195.33008862 C-93.55757754 195.93954574 -96.26560688 196.53612513 -98.97640419 197.12234688 C-103.96440385 198.20397048 -108.93410894 199.36233643 -113.90567875 200.51680088 C-119.53574155 201.82099675 -125.17185632 203.09841694 -130.80750513 204.37821913 C-134.26912094 205.16478887 -137.73021402 205.95365299 -141.19137573 206.74221802 C-147.81673814 208.25133884 -154.44253282 209.75855219 -161.068519 211.26493168 C-169.45512882 213.17161069 -177.84133881 215.08004593 -186.22753906 216.98852539 C-189.28393431 217.68407219 -192.34033109 218.3796123 -195.39672852 219.07514954 C-196.15028169 219.24663716 -196.90383487 219.41812478 -197.68022299 219.594809 C-202.22289128 220.6285665 -206.76561969 221.66205941 -211.30839109 222.6953637 C-228.3429966 226.57017486 -245.37543752 230.45413502 -262.40309525 234.35939217 C-265.30161437 235.02402649 -268.20026268 235.68809391 -271.09896851 236.35191345 C-272.0111017 236.5607998 -272.9232349 236.76968615 -273.8630085 236.98490238 C-275.6358951 237.39088796 -277.40878694 237.79685061 -279.18168449 238.20278835 C-284.1588763 239.34275749 -289.13521989 240.48634166 -294.11097145 241.6325798 C-297.09306766 242.31863457 -300.07595013 243.0012164 -303.05908585 243.68273544 C-305.03160834 244.13453169 -307.00311632 244.59075036 -308.97457886 245.04714966 C-310.12217682 245.30865814 -311.26977478 245.57016663 -312.45214844 245.83959961 C-313.43648865 246.06586533 -314.42082886 246.29213104 -315.43499756 246.5252533 C-318 247 -318 247 -322 247 C-320.58261511 243.74792908 -318.87473588 241.68638933 -316.3125 239.25 C-312.95384407 236.04615186 -309.92313644 232.64355053 -306.88500977 229.14111328 C-303.78147954 225.61592742 -300.54494828 222.21911889 -297.3125 218.8125 C-292.47257598 213.69148337 -287.64524503 208.56103758 -282.875 203.375 C-278.58343782 198.70936907 -274.26757582 194.06741336 -269.9375 189.4375 C-265.76874495 184.97882338 -261.61830175 180.50533745 -257.5 176 C-252.78872712 170.84596432 -248.03100608 165.7370629 -243.26171875 160.63671875 C-239.49298079 156.60466286 -235.73912081 152.55952748 -232 148.5 C-227.09344369 143.17356122 -222.15605834 137.87656896 -217.2109375 132.5859375 C-212.96973309 128.04579357 -208.75041827 123.48610264 -204.54125977 118.91625977 C-200.69119951 114.73989081 -196.81711262 110.58641328 -192.9375 106.4375 C-187.87349953 101.02122124 -182.84973434 95.57121151 -177.84765625 90.09765625 C-174.02925656 85.932006 -170.16402915 81.80981379 -166.296875 77.68945312 C-165.48283203 76.82030273 -165.48283203 76.82030273 -164.65234375 75.93359375 C-164.0689624 75.32427002 -163.48558105 74.71494629 -162.88452148 74.0871582 C-160.91686058 71.96854276 -160.91686058 71.96854276 -159.02368164 69.38745117 C-151.52757452 59.97018606 -142.5350612 56.68141217 -131.5625 52.4375 C-129.64569969 51.66975586 -127.73019391 50.89877272 -125.81591797 50.12475586 C-121.84815408 48.52338266 -117.87525013 46.93592821 -113.89794922 45.35839844 C-105.6403192 42.07157598 -97.4516346 38.62253115 -89.26138306 35.17205811 C-86.61925185 34.06008081 -83.97536467 32.95239302 -81.33081055 31.84619141 C-65.97298204 25.42191095 -50.63705937 18.94585962 -35.30712891 12.45532227 C-31.02488576 10.64243357 -26.73891834 8.83854394 -22.45202637 7.03668213 C-19.97285912 5.98852522 -17.50038303 4.92562968 -15.02832031 3.86083984 C-13.47993372 3.20252655 -11.93143662 2.54447308 -10.3828125 1.88671875 C-9.67728241 1.57829544 -8.97175232 1.26987213 -8.24484253 0.95210266 C-3.34004136 -1.11334712 -3.34004136 -1.11334712 0 0 Z M-29.08984375 21.3046875 C-29.92409882 21.65509094 -30.75835388 22.00549438 -31.6178894 22.36651611 C-34.39247954 23.53274459 -37.1649579 24.70391189 -39.9375 25.875 C-41.88420301 26.69421779 -43.8310641 27.51305999 -45.77807617 28.33154297 C-49.83344964 30.03665378 -53.88813047 31.7433972 -57.94238281 33.45117188 C-64.55317935 36.23447091 -71.16930241 39.00494494 -77.78811646 41.76911926 C-82.24643685 43.6313041 -86.70230327 45.49889918 -91.15283203 47.37963867 C-99.07337867 50.72169376 -106.99810793 54.02760055 -115.01460266 57.13397217 C-118.47081036 58.47658337 -121.91504224 59.84849615 -125.35873413 61.22283936 C-126.95551025 61.85058754 -128.55793007 62.4642252 -130.16641235 63.06134033 C-142.05675062 67.48009336 -149.39111583 73.45054389 -157.48078918 83.19569397 C-159.88856526 86.05531348 -162.44637471 88.77116197 -165 91.5 C-165.97863521 92.56048729 -166.95658861 93.62160452 -167.93359375 94.68359375 C-171.29431652 98.32446795 -174.67833625 101.94342684 -178.0625 105.5625 C-182.23121603 110.02121366 -186.38169776 114.49466201 -190.5 119 C-195.21127288 124.15403568 -199.96899392 129.2629371 -204.73828125 134.36328125 C-208.50701921 138.39533714 -212.26087919 142.44047252 -216 146.5 C-220.90655631 151.82643878 -225.84394166 157.12343104 -230.7890625 162.4140625 C-235.03026691 166.95420643 -239.24958173 171.51389736 -243.45874023 176.08374023 C-247.30880049 180.26010919 -251.18288738 184.41358672 -255.0625 188.5625 C-260.11896738 193.97072164 -265.13635088 199.41157593 -270.12890625 204.87890625 C-272.28794729 207.23471286 -274.46648461 209.57140296 -276.65234375 211.90234375 C-277.28011719 212.57201172 -277.90789062 213.24167969 -278.5546875 213.93164062 C-279.77832654 215.23524777 -281.00350313 216.53741399 -282.23046875 217.83789062 C-287.86161227 222.92397278 -287.86161227 222.92397278 -291 229 C-283.04026674 228.49787256 -275.59036493 226.83317421 -267.875 224.875 C-265.28191431 224.23278099 -262.68844526 223.59266316 -260.09375 222.95703125 C-259.42773773 222.7936174 -258.76172546 222.63020355 -258.07553101 222.46183777 C-250.86892506 220.70498703 -243.62579043 219.12626649 -236.375 217.5625 C-225.11003519 215.12627839 -213.85999167 212.63365261 -202.625 210.0625 C-201.89640778 209.89581818 -201.16781555 209.72913635 -200.41714478 209.55740356 C-188.91786046 206.92357618 -177.43580734 204.21936841 -165.95620728 201.50128174 C-154.92715997 198.89293926 -143.87780114 196.38720976 -132.8125 193.9375 C-131.31590814 193.60526886 -129.81932605 193.27299374 -128.32275391 192.94067383 C-121.61384358 191.45286799 -114.90298314 189.97569097 -108.18482971 188.53013611 C-105.28765617 187.90496061 -102.392384 187.27127255 -99.49740601 186.63601685 C-98.13698849 186.33980422 -96.77568486 186.04762902 -95.41348267 185.75973511 C-93.54302957 185.36421194 -91.6757108 184.95395206 -89.80859375 184.54296875 C-88.75470459 184.31633545 -87.70081543 184.08970215 -86.61499023 183.85620117 C-83.74461217 182.91638081 -82.73990696 182.43747187 -81 180 C-79.89940533 177.58829732 -78.91556577 175.2168549 -77.98046875 172.7421875 C-77.69000168 171.99297028 -77.39953461 171.24375305 -77.1002655 170.47183228 C-76.12177789 167.94240394 -75.15477043 165.408737 -74.1875 162.875 C-73.48397114 161.04984654 -72.77968567 159.22498458 -72.07470703 157.40039062 C-70.53454061 153.41019133 -68.99923193 149.4181668 -67.46728516 145.42480469 C-64.93004755 138.81300905 -62.37820084 132.20690501 -59.82421875 125.6015625 C-56.14048851 116.07236696 -52.46270346 106.54090187 -48.7890625 97.0078125 C-45.0533738 87.31444651 -41.30725601 77.62519828 -37.55231094 67.93927765 C-36.02270064 63.99269323 -34.49472196 60.04547676 -32.96675682 56.09825516 C-31.74450091 52.94125243 -30.52110997 49.78469926 -29.29510498 46.62915039 C-27.93874987 43.13664862 -26.58616886 39.64270676 -25.234375 36.1484375 C-24.83334564 35.11878876 -24.43231628 34.08914001 -24.01913452 33.02828979 C-22.10197259 28.06182066 -20.35114257 23.15067032 -19 18 C-22.57663704 18 -25.8321058 19.9232482 -29.08984375 21.3046875 Z " fill="#000000" transform="translate(323,386)"/>
<path d="M0 0 C5.77452218 0.63527202 11.33280926 1.6431208 16.99047852 2.94824219 C18.2994587 3.24525559 18.2994587 3.24525559 19.63488293 3.54826927 C22.5504055 4.21080437 25.46462946 4.87888328 28.37890625 5.546875 C30.48749001 6.0270303 32.59615524 6.50682797 34.70489502 6.98629761 C41.65866056 8.56882744 48.61065208 10.15907092 55.5625 11.75 C57.96934142 12.30055505 60.37619165 12.8510716 62.78305054 13.40155029 C63.98994632 13.67758402 65.1968421 13.95361774 66.44031048 14.23801613 C71.4639761 15.38685221 76.48772403 16.53532783 81.51152611 17.68356705 C84.11327496 18.27831573 86.71497887 18.87325715 89.31661415 19.46850204 C108.39375957 23.8326354 127.48512979 28.12943571 146.58688408 32.38449287 C156.06404201 34.49646205 165.53746125 36.62511328 175.01058102 38.75511169 C182.80802041 40.50748704 190.60846363 42.24519258 198.41307747 43.96533525 C204.42988748 45.29298057 210.44086693 46.64548394 216.45012665 48.00687027 C218.92409785 48.56311124 221.39992584 49.11116721 223.87766266 49.65038681 C227.27899663 50.39176805 230.67249054 51.16223223 234.06567383 51.93994141 C235.04828469 52.1467239 236.03089556 52.35350639 237.04328251 52.56655502 C244.04903606 54.2192596 248.67289219 57.21519155 254 62 C254.65225461 62.58086679 255.30450922 63.16173359 255.97652912 63.76020241 C257.69734822 65.31485053 259.38266801 66.90121677 261.0625 68.5 C262.27655823 69.64146105 263.49139562 70.78209399 264.70703125 71.921875 C265.56288818 72.7252832 265.56288818 72.7252832 266.43603516 73.54492188 C268.93424728 75.8692029 271.50408731 78.1056584 274.0859375 80.3359375 C278.98178024 84.59232323 283.76351301 88.98038447 288.578125 93.328125 C292.3430085 96.72344938 296.11193551 100.11058342 299.9375 103.4375 C303.18827518 106.26712212 306.37941255 109.15695696 309.5625 112.0625 C313.64613518 115.78782178 317.77696174 119.43387881 322 123 C319.25884473 126.42353071 315.47605118 127.71727526 311.5390625 129.34375 C310.77914001 129.66461578 310.01921753 129.98548157 309.23626709 130.31607056 C306.7019997 131.384231 304.16351786 132.44198515 301.625 133.5 C299.81821837 134.2595317 298.01174651 135.01980068 296.20556641 135.78076172 C292.39577541 137.38462759 288.5843266 138.98445622 284.77148438 140.58105469 C276.5439789 144.02718992 268.32738644 147.49913751 260.11029053 150.97000122 C257.36049173 152.13112624 254.6102222 153.29113017 251.85986328 154.45092773 C233.67079135 162.12395305 215.51047624 169.8643325 197.35302734 177.61181641 C196.23282196 178.08958023 195.11261658 178.56734406 193.95846558 179.05958557 C191.85564964 179.95648978 189.75303739 180.85387173 187.65066528 181.7518158 C186.71342621 182.15155106 185.77618713 182.55128632 184.81054688 182.96313477 C183.99807495 183.30997818 183.18560303 183.65682159 182.34851074 184.01417542 C181.5735022 184.33949753 180.79849365 184.66481964 180 185 C178.67850952 185.56312141 178.67850952 185.56312141 177.33032227 186.13761902 C174.62635714 187.13827379 173.61923385 187.1484333 171 186 C169.26757812 184.53222656 169.26757812 184.53222656 167.53125 182.640625 C166.56034424 181.59527588 166.56034424 181.59527588 165.56982422 180.52880859 C164.88678223 179.77680176 164.20374023 179.02479492 163.5 178.25 C162.78730957 177.47865723 162.07461914 176.70731445 161.34033203 175.91259766 C159.21965879 173.61492409 157.10943166 171.30799048 155 169 C153.92550923 167.83498663 152.85009592 166.67082291 151.7734375 165.5078125 C149.84302883 163.42230459 147.91616137 161.33363278 145.9921875 159.2421875 C142.67867681 155.64535726 139.33968299 152.07251492 136 148.5 C129.14804753 141.16826093 122.33966774 133.79714932 115.54101562 126.41601562 C109.12273699 119.44931264 102.67969615 112.50675108 96.21142578 105.58642578 C91.9693161 101.04539508 87.74934828 96.48458663 83.5390625 91.9140625 C79.70948518 87.76028815 75.85787376 83.62749311 72 79.5 C65.14811274 72.16819943 58.33966826 64.79714987 51.54101562 57.41601562 C45.12273699 50.44931264 38.67969615 43.50675108 32.21142578 36.58642578 C27.97673861 32.05334062 23.75995541 27.50429471 19.56323242 22.93603516 C16.79030678 19.9220865 13.99453894 16.93211742 11.17578125 13.9609375 C10.53318359 13.28095703 9.89058594 12.60097656 9.22851562 11.90039062 C7.9746911 10.57499202 6.71701895 9.2532201 5.45507812 7.93554688 C4.88853516 7.33548828 4.32199219 6.73542969 3.73828125 6.1171875 C2.98091675 5.32223877 2.98091675 5.32223877 2.20825195 4.51123047 C1 3 1 3 0 0 Z M31 18 C33.1329051 21.89878432 35.55193001 24.73857869 38.75 27.8125 C42.42330446 31.35296483 45.80807954 35.03482355 49.14355469 38.88745117 C52.25439816 42.42744703 55.5060926 45.83232596 58.75 49.25 C64.2947011 55.11554258 69.79005318 61.0180343 75.23046875 66.98046875 C78.44028082 70.49028516 81.68897735 73.9635445 84.9375 77.4375 C89.30741469 82.1106671 93.66544291 86.79401309 98 91.5 C102.31483794 96.18408364 106.6512397 100.84739619 111 105.5 C115.83960796 110.67774651 120.65905839 115.87320243 125.4609375 121.0859375 C129.29051482 125.23971185 133.14212624 129.37250689 137 133.5 C142.37013937 139.24626952 147.71851806 145.01185271 153.046875 150.796875 C155.09443027 153.0198567 157.14709346 155.23798099 159.203125 157.453125 C159.73059326 158.02256836 160.25806152 158.59201172 160.80151367 159.17871094 C161.83569715 160.29360726 162.87225262 161.40630886 163.91137695 162.51660156 C166.55818504 165.36111666 168.98691486 168.26599493 171.3125 171.375 C172.199375 172.24125 173.08625 173.1075 174 174 C180.48479085 173.87592469 186.04943894 171.0998944 191.9140625 168.5390625 C192.98110916 168.0813295 194.04815582 167.6235965 195.14753723 167.1519928 C198.64334685 165.65058789 202.13408382 164.13774321 205.625 162.625 C208.05436163 161.57953817 210.48413515 160.535033 212.91430664 159.49145508 C216.63201645 157.89496851 220.34955339 156.29809834 224.06550598 154.69752502 C234.88792039 150.03717826 245.73980506 145.44858209 256.60140991 140.88046265 C272.11292465 134.35575536 287.599912 127.78441023 303 121 C302.24332031 120.24460937 301.48664063 119.48921875 300.70703125 118.7109375 C299.21980918 117.22156937 297.7350409 115.72968218 296.26171875 114.2265625 C292.69821478 110.60116144 289.00765463 107.19615467 285.16015625 103.875 C280.17922244 99.55158548 275.31677619 95.0921191 270.421875 90.671875 C266.02582391 86.70733813 261.61137064 82.77014253 257.13671875 78.89453125 C255.49266691 77.43682532 253.87513908 75.94916426 252.26953125 74.44921875 C251.31433594 73.55847656 250.35914063 72.66773438 249.375 71.75 C248.49585938 70.91984375 247.61671875 70.0896875 246.7109375 69.234375 C242.19135062 65.50929763 237.5804521 63.69740895 231.8984375 62.45703125 C230.70428223 62.19204834 229.51012695 61.92706543 228.27978516 61.65405273 C226.99120605 61.37634033 225.70262695 61.09862793 224.375 60.8125 C223.006824 60.51129047 221.63882632 60.20927 220.27099609 59.90649414 C217.36191099 59.26384475 214.45189481 58.62568422 211.54101562 57.99121094 C204.66630544 56.49230601 197.79657667 54.97088117 190.92718506 53.44781494 C189.38710349 53.10643203 187.84694173 52.76541071 186.30670166 52.42474365 C175.94536314 50.13204873 165.61623854 47.73719906 155.30712891 45.21850586 C146.21254102 43.01305712 137.07330858 41.02881519 127.92712402 39.05197144 C119.09127092 37.1402355 110.28230042 35.1467686 101.5 33 C91.26338261 30.49788351 80.9857248 28.21537037 70.68588257 25.99191284 C61.18206468 23.9402117 51.70547644 21.80566601 42.27832031 19.42163086 C38.43261762 18.47072141 34.99837746 17.73557824 31 18 Z " fill="#000201" transform="translate(1,211)"/>
<path d="M0 0 C-6.75685898 7.91046905 -13.58692871 15.70322389 -20.75 23.25 C-26.2947011 29.11554258 -31.79005318 35.0180343 -37.23046875 40.98046875 C-41.03351281 45.13896345 -44.88987313 49.24777704 -48.73876953 53.36376953 C-52.50731443 57.39569076 -56.26103507 61.44064175 -60 65.5 C-64.31483824 70.18408396 -68.65128093 74.84735735 -73 79.5 C-79.3617409 86.30732385 -85.68767935 93.14686473 -92 100 C-98.90389439 107.4953927 -105.83010524 114.96879128 -112.78857422 122.41357422 C-116.54000059 126.42934553 -120.27670869 130.45813831 -124 134.5 C-128.31486909 139.18405575 -132.65128069 143.84735709 -137 148.5 C-141.38854896 153.19592749 -145.76719633 157.90051798 -150.125 162.625 C-150.60718994 163.14771484 -151.08937988 163.67042969 -151.58618164 164.20898438 C-154.139336 166.97821766 -156.68958416 169.75010174 -159.23828125 172.5234375 C-159.77372559 173.10528809 -160.30916992 173.68713867 -160.86083984 174.28662109 C-161.87641512 175.39026112 -162.89113156 176.49469238 -163.90478516 177.60009766 C-165.26180984 179.07418047 -166.63070968 180.53730381 -168 182 C-168.83660156 182.969375 -169.67320312 183.93875 -170.53515625 184.9375 C-173 187 -173 187 -175.07983398 186.86669922 C-179.25869874 185.62642082 -183.19036935 183.92549808 -187.1875 182.1953125 C-188.55680916 181.60961487 -188.55680916 181.60961487 -189.95378113 181.01208496 C-191.93194495 180.16535536 -193.90918052 179.31645461 -195.8855896 178.46563721 C-200.13382002 176.63693288 -204.38652999 174.81875552 -208.63896179 172.99984741 C-210.84355053 172.056727 -213.04790373 171.11305583 -215.25202942 170.16885376 C-225.88134552 165.61653086 -236.53202119 161.11566279 -247.1875 156.625 C-250.85169112 155.07973196 -254.5156966 153.53402397 -258.1796875 151.98828125 C-259.57242638 151.40080864 -259.57242638 151.40080864 -260.99330139 150.8014679 C-273.60369859 145.48127001 -286.2078563 140.1463107 -298.8125 134.8125 C-299.9807431 134.31816467 -301.14898621 133.82382935 -302.35263062 133.31451416 C-308.90184875 130.54323392 -315.45098177 127.77175264 -322 125 C-322 122 -322 122 -320.63671875 120.52734375 C-319.99347656 120.00269531 -319.35023438 119.47804688 -318.6875 118.9375 C-315.21677644 116.03192081 -311.83760468 113.05830722 -308.5 110 C-304.73649479 106.56735239 -300.93870649 103.1844499 -297.09375 99.84375 C-294.53580973 97.59123543 -292.0182102 95.29682908 -289.5 93 C-285.73649479 89.56735239 -281.93870649 86.1844499 -278.09375 82.84375 C-275.53580973 80.59123543 -273.0182102 78.29682908 -270.5 76 C-262.34274036 68.57106711 -262.34274036 68.57106711 -259.16539001 65.88868713 C-257.68919116 64.60112334 -256.26002007 63.25809502 -254.87672424 61.87120056 C-246.49890388 54.02940998 -237.79860689 52.29068389 -226.83984375 50.00390625 C-224.90191473 49.57493507 -222.96462299 49.14307649 -221.02792358 48.70858765 C-216.85913335 47.77940886 -212.68675635 46.86964941 -208.51040649 45.97506714 C-201.84863576 44.54785057 -195.1966236 43.07843043 -188.5456543 41.60180664 C-181.48552536 40.03644321 -174.42476471 38.47422867 -167.36073303 36.92655945 C-149.50948369 33.01459356 -131.68234885 29.00223358 -113.8671875 24.9296875 C-112.58481516 24.6365737 -111.30244282 24.34345989 -109.98121071 24.04146385 C-103.59142803 22.58039078 -97.20200816 21.11773892 -90.81277466 19.65426636 C-83.44447629 17.96695524 -76.07485507 16.28548134 -68.70483398 14.60571289 C-67.53227428 14.33842125 -66.35971458 14.07112961 -65.15162277 13.79573822 C-60.696542 12.78019453 -56.24145133 11.76469424 -51.78632736 10.74934006 C-49.7759145 10.29105415 -47.76554793 9.83256515 -45.75522995 9.37386322 C-43.81411246 8.93107842 -41.87285393 8.48891138 -39.93144608 8.04740143 C-34.58518969 6.82911976 -29.24484928 5.58866513 -23.90878296 4.32644653 C-22.72610682 4.04843232 -21.54343069 3.77041811 -20.32491589 3.48397923 C-18.03754545 2.94566186 -15.75120593 2.40293929 -13.46607685 1.85518551 C-12.43270286 1.61269856 -11.39932886 1.37021162 -10.3346405 1.12037659 C-9.4238483 0.90379174 -8.51305609 0.6872069 -7.57466412 0.46405888 C-4.99110123 -0.00160392 -2.61895656 -0.08464408 0 0 Z M-43.89453125 19.72265625 C-44.66624161 19.90341705 -45.43795197 20.08417786 -46.23304749 20.27041626 C-47.89441704 20.65999763 -49.55522372 21.0519857 -51.21551514 21.44613647 C-55.62929482 22.49369468 -60.04718305 23.5236409 -64.46484375 24.5546875 C-65.35729797 24.76338974 -66.2497522 24.97209198 -67.16925049 25.18711853 C-75.38698831 27.10323277 -83.62653867 28.90920933 -91.875 30.6875 C-102.11623506 32.89990593 -112.3139757 35.24366388 -122.49169922 37.73120117 C-131.65298994 39.95419388 -140.858197 41.95650876 -150.07177734 43.94775391 C-158.90799465 45.85958621 -167.7173344 47.85314214 -176.5 50 C-185.36033331 52.16571405 -194.24783398 54.17674456 -203.16168213 56.10772705 C-205.23512007 56.5592596 -207.30694522 57.0175702 -209.37841797 57.47802734 C-215.30652544 58.79160411 -221.22511628 60.06721317 -227.2109375 61.09765625 C-239.41646886 63.32665974 -246.30647508 67.29871159 -254.62939453 76.51269531 C-256.38040018 78.41278908 -258.27626935 80.08503118 -260.25 81.75 C-264.89624296 85.76356307 -269.44340135 89.88525334 -274 94 C-283.4849537 102.56520062 -283.4849537 102.56520062 -288 106.5 C-288.6290625 107.05171875 -289.258125 107.6034375 -289.90625 108.171875 C-291.50289149 109.56595749 -293.10877212 110.94946578 -294.71875 112.328125 C-295.6365625 113.12734375 -296.554375 113.9265625 -297.5 114.75 C-298.3559375 115.48734375 -299.211875 116.2246875 -300.09375 116.984375 C-302.34355976 118.9008951 -302.34355976 118.9008951 -302 122 C-300.30746991 122.71932529 -298.61493971 123.4386503 -296.92240906 124.15797424 C-295.3809135 124.81311115 -293.83941984 125.46825251 -292.29792786 126.12339783 C-287.87208337 128.00440552 -283.44620261 129.88532782 -279.02026367 131.76611328 C-270.01931892 135.59112838 -261.01875338 139.41702738 -252.01953125 143.24609375 C-227.03222716 153.87630972 -202.02058471 164.44837213 -177 175 C-175.876401 174.04747865 -174.75429165 173.0931999 -173.6328125 172.13818359 C-172.69526123 171.34134659 -172.69526123 171.34134659 -171.73876953 170.52841187 C-169.65010501 168.69243557 -167.82046646 166.72612171 -166 164.625 C-161.97640653 160.06675526 -157.85516953 155.61436993 -153.6875 151.1875 C-149.08240784 146.29054789 -144.49000522 141.38340314 -139.9375 136.4375 C-135.64412987 131.77362498 -131.32886637 127.1309489 -127 122.5 C-122.1610766 117.32303201 -117.34212933 112.12851766 -112.54125977 106.91625977 C-108.69119951 102.73989081 -104.81711262 98.58641328 -100.9375 94.4375 C-96.76878397 89.97878634 -92.61830224 85.50533799 -88.5 81 C-83.78872712 75.84596432 -79.03100608 70.7370629 -74.26171875 65.63671875 C-70.49298079 61.60466286 -66.73912081 57.55952748 -63 53.5 C-58.68515999 48.81591412 -54.34847124 44.15287611 -50 39.5 C-48.24939148 37.62493834 -46.49909297 35.74958816 -44.74902344 33.87402344 C-43.57045108 32.61122034 -42.39140468 31.34885952 -41.21191406 30.08691406 C-39.51375862 28.26860168 -37.8189559 26.44722419 -36.125 24.625 C-35.34769531 23.79452148 -35.34769531 23.79452148 -34.5546875 22.94726562 C-32.09574484 20.79409086 -32.09574484 20.79409086 -31 18 C-35.48808724 17.75918646 -39.56369719 18.68040477 -43.89453125 19.72265625 Z " fill="#000201" transform="translate(732,211)"/>
<path d="M0 0 C1.89941157 2.84911735 2.74005422 4.95062601 3.74560547 8.18408203 C4.08212631 9.25802216 4.41864716 10.33196228 4.7653656 11.43844604 C5.12896683 12.61633698 5.49256805 13.79422791 5.8671875 15.0078125 C6.25354874 16.2462088 6.63990997 17.4846051 7.03797913 18.76052856 C8.09995346 22.16537041 9.15569877 25.57211526 10.21024704 28.97926331 C11.10398448 31.86413232 12.00130908 34.74788019 12.89865017 37.63162994 C21.17257746 64.22261044 29.35640172 90.84150045 37.531847 117.46288872 C41.97473542 131.9289814 46.43599035 146.38938074 50.90283203 160.84809303 C52.24729911 165.20061783 53.58991051 169.55370923 54.93083191 173.90732765 C58.99804392 187.11185264 63.08278278 200.30908945 67.28125 213.47265625 C68.21229616 216.40935076 69.14234933 219.34635771 70.072052 222.28347778 C70.91151288 224.91842999 71.76670281 227.54790694 72.62280273 230.17749023 C73.11261963 231.72223903 73.60168841 233.26722533 74.08984375 234.8125 C74.31776611 235.49437881 74.54568848 236.17625763 74.78051758 236.87879944 C75.64951698 239.68059441 76.16302631 241.49263577 75.2512207 244.33032227 C73.52665483 246.63165027 71.5278919 248.1819058 69.25 249.9375 C64.57779277 253.65193544 60.16324915 257.53959746 55.8125 261.625 C54.61074004 262.75136925 53.40891899 263.87767334 52.20703125 265.00390625 C51.64838379 265.52742676 51.08973633 266.05094727 50.51416016 266.59033203 C46.39767217 270.4227412 42.11055657 274.05515431 37.828125 277.69921875 C30.99500329 283.52150119 24.28036974 289.43419951 17.6875 295.52734375 C12.26376082 300.51749913 6.68438226 305.31038463 1 310 C-3.08577563 308.35584451 -5.93452511 305.43207392 -9.0625 302.4375 C-13.07836454 298.65597402 -17.12300027 295.00641818 -21.4375 291.5625 C-27.15073515 286.97687705 -32.45201937 282.00254458 -37.79296875 276.99609375 C-42.4639332 272.61883286 -47.29747541 268.4485711 -52.171875 264.30078125 C-55.18829109 261.73379653 -58.18686406 259.14678346 -61.18212891 256.55517578 C-62.97242571 255.02358961 -64.78648272 253.52465856 -66.60546875 252.02734375 C-67.71694335 251.0816657 -68.82765541 250.13509049 -69.9375 249.1875 C-70.93652344 248.35605469 -71.93554688 247.52460938 -72.96484375 246.66796875 C-75 244 -75 244 -74.7693634 240.81759644 C-73.97504721 236.87618377 -72.93815075 233.07783402 -71.7253418 229.25048828 C-71.37765464 228.13065426 -71.37765464 228.13065426 -71.0229435 226.98819733 C-70.25339539 224.51397073 -69.47629548 222.0421839 -68.69921875 219.5703125 C-68.14958415 217.80796515 -67.6004572 216.0454594 -67.05180359 214.2828064 C-65.88046072 210.52295815 -64.70590102 206.76413656 -63.52874756 203.00610352 C-61.67277816 197.08061983 -59.82410418 191.15287751 -57.97705078 185.22460938 C-57.35437447 183.22625597 -56.7316938 181.22790392 -56.10900879 179.22955322 C-55.80059555 178.23973701 -55.49218231 177.24992081 -55.17442322 176.23011017 C-54.23606944 173.21946605 -53.29702023 170.20903963 -52.35778809 167.19866943 C-47.19052772 150.63395819 -42.0712557 134.05483461 -36.97891998 117.46695709 C-35.38145596 112.264044 -33.78228712 107.06165435 -32.18341827 101.85917282 C-31.60258783 99.96917219 -31.02184408 98.07914493 -30.44110107 96.18911743 C-24.55432438 77.03556917 -18.63223657 57.89291525 -12.70635986 38.75143433 C-11.02589212 33.3216969 -9.34950645 27.89074307 -7.68034363 22.45751953 C-6.81348492 19.63621732 -5.94456179 16.81555366 -5.07528687 13.99499512 C-4.52171288 12.19557866 -3.97136161 10.39517172 -3.42114258 8.59472656 C-3.10685303 7.57604492 -2.79256348 6.55736328 -2.46875 5.5078125 C-2.20513672 4.64816895 -1.94152344 3.78852539 -1.66992188 2.90283203 C-1 1 -1 1 0 0 Z M0 35 C-2.49042083 40.43497722 -4.18515805 45.86268067 -5.75 51.625 C-7.70774093 58.65698553 -9.81515555 65.59729715 -12.1875 72.5 C-16.12399379 84.00051567 -19.51355807 95.66128411 -22.91674805 107.328125 C-25.42665974 115.90109629 -28.0700785 124.40879377 -30.94544983 132.86698914 C-32.48693396 137.40572842 -33.90959977 141.96005535 -35.25 146.5625 C-35.46664307 147.3062085 -35.68328613 148.04991699 -35.90649414 148.81616211 C-36.18674438 149.78694702 -36.18674438 149.78694702 -36.47265625 150.77734375 C-38.49916233 157.74003049 -40.59048948 164.683292 -42.6875 171.625 C-42.90058807 172.33053009 -43.11367615 173.03606018 -43.33322144 173.76296997 C-46.54549065 184.37991957 -49.88529193 194.95064548 -53.3125 205.5 C-57.31500912 217.79188517 -57.31500912 217.79188517 -61.1875 230.125 C-61.76564453 231.98511719 -61.76564453 231.98511719 -62.35546875 233.8828125 C-63.02227913 237.10774999 -63.10828419 238.91492046 -62 242 C-60.66434711 243.67769355 -60.66434711 243.67769355 -58.8125 245.0625 C-58.09191406 245.65675781 -57.37132812 246.25101563 -56.62890625 246.86328125 C-55.76136719 247.56839844 -54.89382813 248.27351562 -54 249 C-51.73939394 250.90430332 -49.49441209 252.82665545 -47.25 254.75 C-46.64953857 255.26272461 -46.04907715 255.77544922 -45.43041992 256.30371094 C-40.40294899 260.61239648 -35.5192079 265.06235705 -30.65625 269.5546875 C-27.1612841 272.77211199 -23.60084683 275.90203006 -20 279 C-19.47083984 279.45552246 -18.94167969 279.91104492 -18.39648438 280.38037109 C-12.29767855 285.62767698 -6.19161477 290.86227711 0 296 C5.47495538 292.06501572 10.45610231 287.85788326 15.3125 283.1875 C20.43375442 278.33020814 25.66147922 273.75398674 31.1796875 269.34765625 C35.88634748 265.42978555 40.30431249 261.20381592 44.76953125 257.015625 C47.8048059 254.17065795 50.89472624 251.39936209 54.04760742 248.68505859 C56.11521587 246.90056022 58.17192 245.10409491 60.2265625 243.3046875 C60.93635254 242.68319824 61.64614258 242.06170898 62.37744141 241.42138672 C62.91288574 240.9523291 63.44833008 240.48327148 64 240 C61.05973623 229.46674738 58.04567014 218.97098281 54.6875 208.5625 C51.88916617 199.88602318 49.22943247 191.17410043 46.625 182.4375 C41.10038535 163.9218419 35.40271094 145.46133913 29.5 127.0625 C26.5681126 117.91695227 23.79961346 108.72590557 21.05377197 99.52297974 C14.61200505 77.93980019 7.87029455 56.45034086 1 35 C0.67 35 0.34 35 0 35 Z " fill="#000000" transform="translate(366,0)"/>
</svg>
